<?xml version="1.0" encoding="UTF-8"?>
<svg xmlns="http://www.w3.org/2000/svg" xmlns:xlink="http://www.w3.org/1999/xlink" width="1280" height="720" viewBox="0 0 1280 720">
<defs>
<g>
<g id="glyph-0-0">
<path d="M 0.597656 -1.378906 C 0.597656 -0.941406 0.683594 -0.617188 0.855469 -0.40625 C 1.027344 -0.195312 1.238281 -0.0898438 1.488281 -0.0898438 C 1.734375 -0.0898438 1.945312 -0.195312 2.117188 -0.398438 C 2.292969 -0.601562 2.378906 -0.929688 2.378906 -1.378906 C 2.378906 -1.832031 2.292969 -2.160156 2.117188 -2.363281 C 1.941406 -2.566406 1.730469 -2.664062 1.488281 -2.664062 C 1.238281 -2.664062 1.027344 -2.5625 0.855469 -2.351562 C 0.683594 -2.140625 0.597656 -1.816406 0.597656 -1.378906 Z M 0.125 -1.378906 C 0.125 -1.824219 0.265625 -2.179688 0.542969 -2.449219 C 0.800781 -2.695312 1.113281 -2.816406 1.488281 -2.816406 C 1.859375 -2.816406 2.171875 -2.695312 2.429688 -2.453125 C 2.714844 -2.183594 2.855469 -1.828125 2.855469 -1.378906 C 2.855469 -1.023438 2.765625 -0.722656 2.585938 -0.476562 C 2.390625 -0.210938 2.113281 -0.0429688 1.753906 0.0234375 C 1.921875 0.265625 2.125 0.441406 2.363281 0.542969 C 2.5 0.597656 2.679688 0.640625 2.90625 0.667969 L 2.90625 0.742188 L 2.738281 0.742188 C 2.511719 0.742188 2.3125 0.722656 2.136719 0.6875 C 1.960938 0.652344 1.804688 0.59375 1.664062 0.519531 C 1.519531 0.445312 1.386719 0.347656 1.265625 0.214844 C 1.144531 0.0859375 1.078125 0.015625 1.0625 0.0117188 L 1.011719 -0.015625 C 0.78125 -0.121094 0.601562 -0.242188 0.476562 -0.378906 C 0.242188 -0.632812 0.125 -0.964844 0.125 -1.378906 Z "/>
</g>
<g id="glyph-0-1">
<path d="M 0.644531 -1.882812 L 0.644531 -0.582031 C 0.644531 -0.488281 0.65625 -0.414062 0.683594 -0.359375 C 0.734375 -0.257812 0.824219 -0.207031 0.960938 -0.207031 C 1.054688 -0.207031 1.144531 -0.234375 1.230469 -0.296875 C 1.28125 -0.332031 1.332031 -0.378906 1.382812 -0.4375 L 1.382812 -1.550781 C 1.382812 -1.65625 1.363281 -1.726562 1.324219 -1.757812 C 1.28125 -1.789062 1.199219 -1.808594 1.078125 -1.816406 L 1.078125 -1.882812 L 1.734375 -1.882812 L 1.734375 -0.453125 C 1.734375 -0.359375 1.753906 -0.296875 1.785156 -0.261719 C 1.820312 -0.226562 1.890625 -0.210938 1.996094 -0.214844 L 1.996094 -0.160156 C 1.921875 -0.140625 1.867188 -0.125 1.832031 -0.113281 C 1.796875 -0.101562 1.738281 -0.0859375 1.652344 -0.0585938 C 1.617188 -0.046875 1.542969 -0.015625 1.421875 0.03125 C 1.414062 0.03125 1.410156 0.0273438 1.410156 0.0195312 C 1.410156 0.015625 1.40625 0.0078125 1.40625 0 L 1.40625 -0.328125 C 1.316406 -0.21875 1.230469 -0.136719 1.15625 -0.0820312 C 1.039062 0 0.917969 0.0390625 0.789062 0.0390625 C 0.671875 0.0390625 0.558594 -0.00390625 0.457031 -0.0859375 C 0.351562 -0.167969 0.296875 -0.308594 0.296875 -0.503906 L 0.296875 -1.5625 C 0.296875 -1.667969 0.273438 -1.742188 0.226562 -1.777344 C 0.199219 -1.800781 0.132812 -1.816406 0.0351562 -1.828125 L 0.0351562 -1.882812 Z "/>
</g>
<g id="glyph-0-2">
<path d="M 0.953125 -1.910156 C 1.144531 -1.910156 1.3125 -1.84375 1.457031 -1.710938 C 1.601562 -1.578125 1.671875 -1.390625 1.671875 -1.148438 L 0.378906 -1.148438 C 0.394531 -0.832031 0.464844 -0.605469 0.59375 -0.460938 C 0.722656 -0.316406 0.875 -0.246094 1.050781 -0.246094 C 1.195312 -0.246094 1.3125 -0.28125 1.410156 -0.355469 C 1.507812 -0.429688 1.601562 -0.535156 1.683594 -0.671875 L 1.753906 -0.648438 C 1.699219 -0.476562 1.59375 -0.316406 1.441406 -0.171875 C 1.289062 -0.0234375 1.101562 0.0507812 0.882812 0.0507812 C 0.625 0.0507812 0.429688 -0.046875 0.289062 -0.238281 C 0.152344 -0.433594 0.0820312 -0.65625 0.0820312 -0.90625 C 0.0820312 -1.179688 0.160156 -1.414062 0.324219 -1.613281 C 0.484375 -1.808594 0.695312 -1.910156 0.953125 -1.910156 Z M 0.835938 -1.761719 C 0.679688 -1.761719 0.5625 -1.691406 0.480469 -1.554688 C 0.4375 -1.480469 0.40625 -1.390625 0.386719 -1.277344 L 1.246094 -1.277344 C 1.230469 -1.414062 1.207031 -1.515625 1.171875 -1.582031 C 1.105469 -1.699219 0.992188 -1.761719 0.835938 -1.761719 Z "/>
</g>
<g id="glyph-0-3">
<path d="M 0.214844 -0.640625 L 0.28125 -0.640625 C 0.3125 -0.484375 0.355469 -0.367188 0.410156 -0.285156 C 0.503906 -0.132812 0.644531 -0.0585938 0.824219 -0.0585938 C 0.925781 -0.0585938 1.007812 -0.0859375 1.066406 -0.140625 C 1.125 -0.199219 1.15625 -0.269531 1.15625 -0.359375 C 1.15625 -0.417969 1.140625 -0.472656 1.105469 -0.523438 C 1.070312 -0.578125 1.011719 -0.628906 0.925781 -0.679688 L 0.699219 -0.808594 C 0.53125 -0.898438 0.410156 -0.988281 0.328125 -1.082031 C 0.25 -1.171875 0.210938 -1.277344 0.210938 -1.402344 C 0.210938 -1.554688 0.265625 -1.679688 0.375 -1.777344 C 0.484375 -1.875 0.621094 -1.921875 0.785156 -1.921875 C 0.855469 -1.921875 0.933594 -1.910156 1.019531 -1.882812 C 1.105469 -1.855469 1.15625 -1.839844 1.164062 -1.839844 C 1.191406 -1.839844 1.207031 -1.84375 1.21875 -1.851562 C 1.230469 -1.859375 1.238281 -1.871094 1.246094 -1.882812 L 1.296875 -1.882812 L 1.308594 -1.316406 L 1.246094 -1.316406 C 1.21875 -1.449219 1.183594 -1.550781 1.136719 -1.625 C 1.054688 -1.757812 0.933594 -1.828125 0.773438 -1.828125 C 0.679688 -1.828125 0.605469 -1.796875 0.550781 -1.738281 C 0.496094 -1.679688 0.46875 -1.613281 0.46875 -1.535156 C 0.46875 -1.410156 0.5625 -1.296875 0.75 -1.199219 L 1.015625 -1.054688 C 1.304688 -0.898438 1.449219 -0.714844 1.449219 -0.507812 C 1.449219 -0.347656 1.390625 -0.214844 1.269531 -0.113281 C 1.148438 -0.0117188 0.992188 0.0390625 0.800781 0.0390625 C 0.71875 0.0390625 0.625 0.0234375 0.523438 -0.00390625 C 0.421875 -0.03125 0.359375 -0.0429688 0.339844 -0.0429688 C 0.324219 -0.0429688 0.308594 -0.0351562 0.296875 -0.0273438 C 0.285156 -0.015625 0.273438 0 0.269531 0.015625 L 0.214844 0.015625 Z "/>
</g>
<g id="glyph-0-4">
<path d="M 1.058594 -1.875 L 1.058594 -1.730469 L 0.644531 -1.730469 L 0.640625 -0.558594 C 0.640625 -0.453125 0.648438 -0.375 0.667969 -0.324219 C 0.699219 -0.230469 0.765625 -0.183594 0.859375 -0.183594 C 0.90625 -0.183594 0.949219 -0.195312 0.984375 -0.21875 C 1.019531 -0.242188 1.0625 -0.277344 1.109375 -0.328125 L 1.160156 -0.28125 L 1.117188 -0.222656 C 1.046875 -0.128906 0.972656 -0.0585938 0.894531 -0.0195312 C 0.816406 0.0195312 0.738281 0.0390625 0.664062 0.0390625 C 0.503906 0.0390625 0.398438 -0.03125 0.339844 -0.175781 C 0.308594 -0.253906 0.292969 -0.359375 0.292969 -0.496094 L 0.292969 -1.730469 L 0.0703125 -1.730469 C 0.0625 -1.734375 0.0585938 -1.738281 0.0546875 -1.742188 C 0.0507812 -1.746094 0.0507812 -1.75 0.0507812 -1.757812 C 0.0507812 -1.769531 0.0546875 -1.78125 0.0585938 -1.789062 C 0.0664062 -1.796875 0.0859375 -1.8125 0.117188 -1.839844 C 0.210938 -1.917969 0.277344 -1.980469 0.320312 -2.03125 C 0.363281 -2.078125 0.460938 -2.203125 0.613281 -2.410156 C 0.628906 -2.410156 0.640625 -2.410156 0.644531 -2.40625 C 0.648438 -2.402344 0.648438 -2.394531 0.648438 -2.375 L 0.648438 -1.875 Z "/>
</g>
<g id="glyph-0-5">
<path d="M 0.34375 -2.625 C 0.34375 -2.683594 0.363281 -2.734375 0.402344 -2.777344 C 0.445312 -2.820312 0.492188 -2.839844 0.554688 -2.839844 C 0.613281 -2.839844 0.660156 -2.820312 0.703125 -2.777344 C 0.746094 -2.738281 0.765625 -2.6875 0.765625 -2.625 C 0.765625 -2.566406 0.746094 -2.519531 0.703125 -2.476562 C 0.660156 -2.4375 0.613281 -2.414062 0.554688 -2.414062 C 0.496094 -2.414062 0.445312 -2.4375 0.402344 -2.476562 C 0.363281 -2.519531 0.34375 -2.570312 0.34375 -2.625 Z M 0.0820312 -0.0585938 C 0.226562 -0.0703125 0.316406 -0.09375 0.355469 -0.132812 C 0.394531 -0.167969 0.414062 -0.265625 0.414062 -0.421875 L 0.414062 -1.394531 C 0.414062 -1.480469 0.40625 -1.542969 0.394531 -1.578125 C 0.375 -1.632812 0.332031 -1.660156 0.265625 -1.660156 C 0.25 -1.660156 0.238281 -1.660156 0.222656 -1.65625 C 0.207031 -1.652344 0.167969 -1.644531 0.101562 -1.625 L 0.101562 -1.6875 L 0.1875 -1.714844 C 0.425781 -1.792969 0.589844 -1.851562 0.683594 -1.890625 C 0.722656 -1.90625 0.746094 -1.914062 0.757812 -1.914062 C 0.761719 -1.90625 0.761719 -1.894531 0.761719 -1.882812 L 0.761719 -0.421875 C 0.761719 -0.269531 0.78125 -0.171875 0.816406 -0.132812 C 0.855469 -0.09375 0.9375 -0.0664062 1.070312 -0.0585938 L 1.070312 0 L 0.0820312 0 Z "/>
</g>
<g id="glyph-0-6">
<path d="M 0.105469 -0.945312 C 0.105469 -1.214844 0.191406 -1.441406 0.363281 -1.628906 C 0.535156 -1.816406 0.753906 -1.910156 1.027344 -1.910156 C 1.292969 -1.910156 1.515625 -1.820312 1.691406 -1.644531 C 1.867188 -1.46875 1.957031 -1.234375 1.957031 -0.941406 C 1.957031 -0.671875 1.871094 -0.433594 1.699219 -0.234375 C 1.53125 -0.0351562 1.308594 0.0625 1.039062 0.0625 C 0.777344 0.0625 0.558594 -0.03125 0.375 -0.222656 C 0.195312 -0.414062 0.105469 -0.65625 0.105469 -0.945312 Z M 0.96875 -1.785156 C 0.863281 -1.785156 0.769531 -1.75 0.691406 -1.679688 C 0.554688 -1.558594 0.484375 -1.34375 0.484375 -1.042969 C 0.484375 -0.800781 0.539062 -0.574219 0.648438 -0.367188 C 0.757812 -0.15625 0.910156 -0.0546875 1.105469 -0.0546875 C 1.257812 -0.0546875 1.375 -0.121094 1.457031 -0.261719 C 1.539062 -0.402344 1.578125 -0.585938 1.578125 -0.8125 C 1.578125 -1.046875 1.527344 -1.269531 1.421875 -1.476562 C 1.316406 -1.683594 1.167969 -1.785156 0.96875 -1.785156 Z "/>
</g>
<g id="glyph-0-7">
<path d="M 0.0742188 -0.0585938 C 0.171875 -0.0703125 0.238281 -0.09375 0.277344 -0.128906 C 0.316406 -0.164062 0.335938 -0.246094 0.335938 -0.371094 L 0.335938 -1.402344 C 0.335938 -1.488281 0.328125 -1.550781 0.3125 -1.585938 C 0.285156 -1.636719 0.234375 -1.664062 0.152344 -1.664062 C 0.140625 -1.664062 0.128906 -1.660156 0.113281 -1.660156 C 0.101562 -1.660156 0.0859375 -1.65625 0.0664062 -1.652344 L 0.0664062 -1.726562 C 0.121094 -1.742188 0.253906 -1.785156 0.460938 -1.851562 L 0.652344 -1.914062 C 0.664062 -1.914062 0.667969 -1.910156 0.671875 -1.90625 C 0.671875 -1.898438 0.671875 -1.886719 0.671875 -1.875 L 0.671875 -1.578125 C 0.796875 -1.695312 0.894531 -1.773438 0.964844 -1.816406 C 1.070312 -1.882812 1.183594 -1.917969 1.296875 -1.917969 C 1.386719 -1.917969 1.472656 -1.890625 1.546875 -1.835938 C 1.695312 -1.734375 1.769531 -1.550781 1.769531 -1.285156 L 1.769531 -0.335938 C 1.769531 -0.238281 1.789062 -0.167969 1.828125 -0.125 C 1.867188 -0.0820312 1.933594 -0.0585938 2.023438 -0.0585938 L 2.023438 0 L 1.15625 0 L 1.15625 -0.0585938 C 1.253906 -0.0703125 1.324219 -0.0976562 1.363281 -0.140625 C 1.402344 -0.179688 1.421875 -0.269531 1.421875 -0.410156 L 1.421875 -1.277344 C 1.421875 -1.394531 1.402344 -1.492188 1.355469 -1.566406 C 1.3125 -1.644531 1.234375 -1.683594 1.117188 -1.683594 C 1.035156 -1.683594 0.957031 -1.65625 0.871094 -1.601562 C 0.824219 -1.570312 0.765625 -1.519531 0.695312 -1.445312 L 0.695312 -0.308594 C 0.695312 -0.210938 0.714844 -0.144531 0.757812 -0.109375 C 0.800781 -0.078125 0.871094 -0.0585938 0.964844 -0.0585938 L 0.964844 0 L 0.0742188 0 Z "/>
</g>
<g id="glyph-0-8">
<path d="M 0.789062 -1.691406 C 0.789062 -1.625 0.765625 -1.566406 0.71875 -1.523438 C 0.671875 -1.480469 0.621094 -1.460938 0.558594 -1.460938 C 0.492188 -1.460938 0.441406 -1.484375 0.398438 -1.53125 C 0.355469 -1.578125 0.335938 -1.628906 0.335938 -1.6875 C 0.335938 -1.75 0.359375 -1.804688 0.402344 -1.847656 C 0.445312 -1.890625 0.496094 -1.914062 0.558594 -1.914062 C 0.617188 -1.914062 0.671875 -1.894531 0.71875 -1.851562 C 0.765625 -1.808594 0.789062 -1.753906 0.789062 -1.691406 Z M 0.554688 0.0351562 C 0.496094 0.0351562 0.445312 0.0117188 0.402344 -0.03125 C 0.359375 -0.078125 0.335938 -0.132812 0.335938 -0.195312 C 0.335938 -0.257812 0.359375 -0.308594 0.402344 -0.355469 C 0.445312 -0.402344 0.496094 -0.421875 0.5625 -0.421875 C 0.625 -0.421875 0.679688 -0.402344 0.726562 -0.355469 C 0.773438 -0.3125 0.800781 -0.257812 0.800781 -0.199219 C 0.800781 -0.136719 0.777344 -0.0859375 0.734375 -0.0351562 C 0.6875 0.0117188 0.628906 0.0351562 0.554688 0.0351562 Z "/>
</g>
</g>
</defs>
<g fill="rgb(100%, 94.509804%, 46.27451%)" fill-opacity="1">
<use xlink:href="#glyph-0-0" x="30" y="23.125"/>
<use xlink:href="#glyph-0-1" x="33" y="23.125"/>
<use xlink:href="#glyph-0-2" x="35" y="23.125"/>
<use xlink:href="#glyph-0-3" x="37" y="23.125"/>
<use xlink:href="#glyph-0-4" x="39" y="23.125"/>
<use xlink:href="#glyph-0-5" x="40" y="23.125"/>
<use xlink:href="#glyph-0-6" x="41" y="23.125"/>
<use xlink:href="#glyph-0-7" x="43" y="23.125"/>
<use xlink:href="#glyph-0-8" x="45" y="23.125"/>
</g>
</svg>
