<?xml version="1.0" encoding="UTF-8"?>
<svg xmlns="http://www.w3.org/2000/svg" xmlns:xlink="http://www.w3.org/1999/xlink" width="1280" height="720" viewBox="0 0 1280 720">
<defs>
<g>
<g id="glyph-0-0">
<path d="M 0.0742188 -0.121094 C 0.320312 -0.148438 0.480469 -0.191406 0.550781 -0.253906 C 0.625 -0.316406 0.660156 -0.472656 0.660156 -0.722656 L 0.660156 -3.6875 C 0.660156 -3.925781 0.625 -4.078125 0.554688 -4.152344 C 0.480469 -4.226562 0.324219 -4.269531 0.0742188 -4.289062 L 0.0742188 -4.410156 L 3.617188 -4.410156 L 3.640625 -3.453125 L 3.46875 -3.453125 C 3.414062 -3.75 3.328125 -3.941406 3.214844 -4.027344 C 3.101562 -4.113281 2.851562 -4.15625 2.460938 -4.15625 L 1.554688 -4.15625 C 1.457031 -4.15625 1.398438 -4.140625 1.375 -4.109375 C 1.351562 -4.078125 1.339844 -4.019531 1.339844 -3.933594 L 1.339844 -2.445312 L 2.367188 -2.445312 C 2.652344 -2.445312 2.832031 -2.488281 2.910156 -2.570312 C 2.988281 -2.65625 3.050781 -2.828125 3.097656 -3.085938 L 3.253906 -3.085938 L 3.253906 -1.542969 L 3.097656 -1.542969 C 3.046875 -1.800781 2.984375 -1.972656 2.90625 -2.054688 C 2.828125 -2.140625 2.648438 -2.179688 2.367188 -2.179688 L 1.339844 -2.179688 L 1.339844 -0.53125 C 1.339844 -0.398438 1.382812 -0.320312 1.464844 -0.296875 C 1.550781 -0.273438 1.800781 -0.261719 2.21875 -0.261719 C 2.667969 -0.261719 3 -0.308594 3.214844 -0.410156 C 3.429688 -0.507812 3.625 -0.746094 3.796875 -1.125 L 3.980469 -1.125 L 3.679688 0 L 0.0742188 0 Z "/>
</g>
<g id="glyph-0-1">
<path d="M 0.109375 -0.0859375 C 0.277344 -0.101562 0.390625 -0.128906 0.445312 -0.167969 C 0.53125 -0.230469 0.578125 -0.359375 0.578125 -0.546875 L 0.578125 -2.230469 C 0.578125 -2.390625 0.554688 -2.496094 0.511719 -2.546875 C 0.46875 -2.597656 0.402344 -2.621094 0.304688 -2.621094 C 0.257812 -2.621094 0.222656 -2.617188 0.199219 -2.613281 C 0.175781 -2.609375 0.152344 -2.601562 0.121094 -2.589844 L 0.121094 -2.707031 L 0.355469 -2.785156 C 0.441406 -2.8125 0.578125 -2.863281 0.773438 -2.9375 C 0.964844 -3.011719 1.066406 -3.046875 1.078125 -3.046875 C 1.089844 -3.046875 1.09375 -3.042969 1.097656 -3.03125 C 1.097656 -3.019531 1.101562 -3 1.101562 -2.96875 L 1.101562 -2.53125 C 1.316406 -2.726562 1.5 -2.859375 1.65625 -2.933594 C 1.8125 -3.007812 1.972656 -3.046875 2.140625 -3.046875 C 2.363281 -3.046875 2.539062 -2.972656 2.671875 -2.820312 C 2.742188 -2.738281 2.800781 -2.625 2.84375 -2.484375 C 3.003906 -2.648438 3.144531 -2.765625 3.265625 -2.84375 C 3.472656 -2.980469 3.683594 -3.046875 3.898438 -3.046875 C 4.246094 -3.046875 4.480469 -2.90625 4.597656 -2.621094 C 4.664062 -2.460938 4.699219 -2.207031 4.699219 -1.859375 L 4.699219 -0.507812 C 4.699219 -0.355469 4.730469 -0.25 4.800781 -0.195312 C 4.867188 -0.140625 4.992188 -0.101562 5.167969 -0.0859375 L 5.167969 0 L 3.703125 0 L 3.703125 -0.0898438 C 3.890625 -0.109375 4.015625 -0.148438 4.074219 -0.207031 C 4.132812 -0.265625 4.164062 -0.382812 4.164062 -0.5625 L 4.164062 -1.964844 C 4.164062 -2.175781 4.140625 -2.332031 4.09375 -2.433594 C 4.015625 -2.609375 3.859375 -2.699219 3.625 -2.699219 C 3.484375 -2.699219 3.34375 -2.652344 3.203125 -2.558594 C 3.121094 -2.503906 3.023438 -2.417969 2.90625 -2.296875 L 2.90625 -0.632812 C 2.90625 -0.457031 2.9375 -0.324219 3 -0.230469 C 3.0625 -0.140625 3.191406 -0.0898438 3.390625 -0.0859375 L 3.390625 0 L 1.898438 0 L 1.898438 -0.0859375 C 2.105469 -0.109375 2.234375 -0.160156 2.292969 -0.234375 C 2.347656 -0.308594 2.375 -0.488281 2.375 -0.777344 L 2.375 -1.691406 C 2.375 -2.023438 2.355469 -2.253906 2.3125 -2.378906 C 2.238281 -2.59375 2.085938 -2.699219 1.855469 -2.699219 C 1.722656 -2.699219 1.59375 -2.664062 1.464844 -2.589844 C 1.335938 -2.515625 1.222656 -2.421875 1.125 -2.304688 L 1.125 -0.523438 C 1.125 -0.359375 1.15625 -0.246094 1.210938 -0.183594 C 1.269531 -0.121094 1.394531 -0.0859375 1.589844 -0.0859375 L 1.589844 0 L 0.109375 0 Z "/>
</g>
<g id="glyph-0-2">
<path d="M 0.0234375 -4.140625 L 0.0234375 -4.25 C 0.269531 -4.308594 0.492188 -4.371094 0.691406 -4.441406 C 0.886719 -4.511719 0.992188 -4.542969 1.007812 -4.542969 C 1.011719 -4.53125 1.015625 -4.519531 1.015625 -4.503906 L 1.015625 -2.523438 C 1.070312 -2.628906 1.15625 -2.726562 1.269531 -2.820312 C 1.46875 -2.980469 1.699219 -3.0625 1.960938 -3.0625 C 2.277344 -3.0625 2.550781 -2.929688 2.777344 -2.660156 C 3.003906 -2.390625 3.117188 -2.042969 3.117188 -1.613281 C 3.117188 -1.152344 2.96875 -0.757812 2.675781 -0.429688 C 2.382812 -0.101562 1.996094 0.0625 1.519531 0.0625 C 1.277344 0.0625 1.042969 0.015625 0.8125 -0.0820312 C 0.578125 -0.175781 0.460938 -0.273438 0.460938 -0.367188 L 0.460938 -3.808594 C 0.460938 -3.933594 0.445312 -4.023438 0.410156 -4.078125 C 0.375 -4.128906 0.296875 -4.15625 0.167969 -4.15625 Z M 1.003906 -0.476562 C 1.023438 -0.363281 1.105469 -0.28125 1.257812 -0.234375 C 1.40625 -0.183594 1.539062 -0.160156 1.652344 -0.160156 C 1.953125 -0.160156 2.179688 -0.273438 2.324219 -0.5 C 2.472656 -0.730469 2.546875 -1.003906 2.546875 -1.328125 C 2.546875 -1.652344 2.476562 -1.949219 2.339844 -2.226562 C 2.203125 -2.5 1.984375 -2.636719 1.675781 -2.636719 C 1.523438 -2.636719 1.371094 -2.589844 1.222656 -2.496094 C 1.074219 -2.402344 1.003906 -2.28125 1.003906 -2.136719 Z "/>
</g>
<g id="glyph-0-3">
<path d="M 1.527344 -3.054688 C 1.832031 -3.054688 2.101562 -2.949219 2.332031 -2.734375 C 2.5625 -2.523438 2.675781 -2.222656 2.675781 -1.835938 L 0.609375 -1.835938 C 0.628906 -1.332031 0.746094 -0.964844 0.949219 -0.734375 C 1.15625 -0.503906 1.402344 -0.390625 1.683594 -0.390625 C 1.910156 -0.390625 2.101562 -0.449219 2.257812 -0.570312 C 2.414062 -0.6875 2.558594 -0.859375 2.691406 -1.078125 L 2.804688 -1.039062 C 2.714844 -0.761719 2.550781 -0.507812 2.304688 -0.273438 C 2.0625 -0.0390625 1.761719 0.078125 1.410156 0.078125 C 1 0.078125 0.6875 -0.0742188 0.464844 -0.382812 C 0.242188 -0.691406 0.128906 -1.046875 0.128906 -1.449219 C 0.128906 -1.886719 0.257812 -2.261719 0.519531 -2.578125 C 0.777344 -2.894531 1.113281 -3.054688 1.527344 -3.054688 Z M 1.339844 -2.816406 C 1.089844 -2.816406 0.902344 -2.707031 0.773438 -2.488281 C 0.703125 -2.371094 0.652344 -2.222656 0.621094 -2.042969 L 1.996094 -2.042969 C 1.972656 -2.261719 1.929688 -2.421875 1.871094 -2.53125 C 1.765625 -2.722656 1.585938 -2.816406 1.339844 -2.816406 Z "/>
</g>
<g id="glyph-0-4">
<path d="M 1.578125 -3.078125 C 1.738281 -3.078125 1.882812 -3.042969 2.015625 -2.972656 C 2.101562 -2.925781 2.183594 -2.863281 2.265625 -2.785156 L 2.265625 -3.820312 C 2.265625 -3.953125 2.25 -4.042969 2.222656 -4.09375 C 2.191406 -4.140625 2.121094 -4.167969 2.011719 -4.167969 C 1.984375 -4.167969 1.964844 -4.164062 1.945312 -4.164062 C 1.925781 -4.160156 1.878906 -4.15625 1.8125 -4.152344 L 1.8125 -4.257812 L 2.082031 -4.328125 C 2.179688 -4.351562 2.277344 -4.378906 2.375 -4.40625 C 2.472656 -4.433594 2.554688 -4.464844 2.628906 -4.488281 C 2.664062 -4.5 2.722656 -4.519531 2.804688 -4.550781 L 2.824219 -4.542969 L 2.816406 -4.203125 C 2.8125 -4.078125 2.8125 -3.953125 2.808594 -3.820312 C 2.808594 -3.6875 2.804688 -3.558594 2.804688 -3.429688 L 2.800781 -0.773438 C 2.800781 -0.632812 2.816406 -0.53125 2.851562 -0.476562 C 2.886719 -0.417969 2.980469 -0.390625 3.128906 -0.390625 C 3.152344 -0.390625 3.175781 -0.390625 3.199219 -0.390625 C 3.222656 -0.394531 3.246094 -0.394531 3.273438 -0.402344 L 3.273438 -0.292969 C 3.257812 -0.289062 3.101562 -0.234375 2.800781 -0.128906 L 2.289062 0.0625 L 2.265625 0.03125 L 2.265625 -0.367188 C 2.144531 -0.234375 2.039062 -0.140625 1.949219 -0.0859375 C 1.792969 0.0117188 1.609375 0.0625 1.398438 0.0625 C 1.03125 0.0625 0.730469 -0.0820312 0.503906 -0.367188 C 0.273438 -0.652344 0.160156 -0.980469 0.160156 -1.359375 C 0.160156 -1.828125 0.296875 -2.234375 0.570312 -2.570312 C 0.84375 -2.90625 1.183594 -3.078125 1.578125 -3.078125 Z M 1.699219 -0.289062 C 1.867188 -0.289062 2.003906 -0.339844 2.109375 -0.441406 C 2.214844 -0.539062 2.265625 -0.632812 2.265625 -0.722656 L 2.265625 -2.121094 C 2.265625 -2.402344 2.191406 -2.601562 2.039062 -2.714844 C 1.886719 -2.832031 1.742188 -2.890625 1.597656 -2.890625 C 1.324219 -2.890625 1.113281 -2.769531 0.960938 -2.527344 C 0.808594 -2.285156 0.734375 -1.988281 0.734375 -1.632812 C 0.734375 -1.285156 0.8125 -0.972656 0.976562 -0.699219 C 1.136719 -0.425781 1.378906 -0.289062 1.699219 -0.289062 Z "/>
</g>
<g id="glyph-0-5">
<rect x="0" y="0" width="0" height="0" mask="url(#mask-0)"/>
</g>
<g id="glyph-0-6">
<path d="M 0.0742188 -0.121094 C 0.351562 -0.148438 0.527344 -0.210938 0.605469 -0.308594 C 0.683594 -0.40625 0.722656 -0.628906 0.722656 -0.980469 L 0.722656 -3.6875 C 0.722656 -3.929688 0.683594 -4.085938 0.609375 -4.160156 C 0.53125 -4.230469 0.359375 -4.273438 0.0898438 -4.289062 L 0.0898438 -4.410156 L 1.410156 -4.410156 L 2.953125 -1.046875 L 4.425781 -4.410156 L 5.753906 -4.410156 L 5.753906 -4.289062 C 5.507812 -4.269531 5.347656 -4.226562 5.277344 -4.152344 C 5.207031 -4.078125 5.167969 -3.925781 5.167969 -3.6875 L 5.167969 -0.722656 C 5.167969 -0.480469 5.207031 -0.324219 5.277344 -0.253906 C 5.347656 -0.1875 5.507812 -0.140625 5.753906 -0.121094 L 5.753906 0 L 3.886719 0 L 3.886719 -0.121094 C 4.15625 -0.140625 4.324219 -0.191406 4.390625 -0.265625 C 4.457031 -0.339844 4.488281 -0.519531 4.488281 -0.800781 L 4.488281 -3.796875 L 2.785156 0 L 2.691406 0 L 1.015625 -3.640625 L 1.015625 -0.980469 C 1.015625 -0.617188 1.070312 -0.378906 1.175781 -0.265625 C 1.246094 -0.195312 1.398438 -0.148438 1.640625 -0.121094 L 1.640625 0 L 0.0742188 0 Z "/>
</g>
<g id="glyph-0-7">
<path d="M 0.167969 -1.511719 C 0.167969 -1.941406 0.304688 -2.308594 0.582031 -2.605469 C 0.855469 -2.902344 1.207031 -3.054688 1.640625 -3.054688 C 2.070312 -3.054688 2.425781 -2.914062 2.707031 -2.628906 C 2.988281 -2.347656 3.132812 -1.972656 3.132812 -1.503906 C 3.132812 -1.070312 2.996094 -0.695312 2.722656 -0.378906 C 2.449219 -0.0585938 2.09375 0.101562 1.660156 0.101562 C 1.242188 0.101562 0.890625 -0.0507812 0.601562 -0.359375 C 0.3125 -0.664062 0.167969 -1.046875 0.167969 -1.511719 Z M 1.550781 -2.859375 C 1.378906 -2.859375 1.230469 -2.800781 1.105469 -2.6875 C 0.886719 -2.492188 0.777344 -2.152344 0.777344 -1.667969 C 0.777344 -1.28125 0.867188 -0.921875 1.039062 -0.585938 C 1.214844 -0.25 1.457031 -0.0859375 1.769531 -0.0859375 C 2.011719 -0.0859375 2.199219 -0.195312 2.328125 -0.421875 C 2.460938 -0.644531 2.527344 -0.9375 2.527344 -1.300781 C 2.527344 -1.675781 2.441406 -2.027344 2.277344 -2.359375 C 2.109375 -2.691406 1.867188 -2.859375 1.550781 -2.859375 Z "/>
</g>
<g id="glyph-0-8">
<path d="M 0.136719 -0.0898438 C 0.339844 -0.109375 0.476562 -0.152344 0.546875 -0.214844 C 0.617188 -0.277344 0.65625 -0.394531 0.65625 -0.578125 L 0.65625 -3.757812 C 0.65625 -3.898438 0.640625 -4 0.617188 -4.054688 C 0.574219 -4.144531 0.488281 -4.191406 0.355469 -4.191406 C 0.324219 -4.191406 0.292969 -4.1875 0.253906 -4.179688 C 0.21875 -4.171875 0.175781 -4.164062 0.121094 -4.152344 L 0.121094 -4.257812 C 0.414062 -4.335938 0.765625 -4.441406 1.179688 -4.570312 C 1.195312 -4.570312 1.203125 -4.5625 1.207031 -4.550781 C 1.210938 -4.539062 1.210938 -4.511719 1.210938 -4.464844 L 1.210938 -0.5625 C 1.210938 -0.375 1.242188 -0.253906 1.308594 -0.195312 C 1.375 -0.140625 1.507812 -0.105469 1.710938 -0.0898438 L 1.710938 0 L 0.136719 0 Z "/>
</g>
</g>
<image id="source-246" x="0" y="0" width="0" height="0"/>
<mask id="mask-0">
<use xlink:href="#source-246"/>
</mask>
</defs>
<g fill="rgb(80.784314%, 57.647059%, 84.705882%)" fill-opacity="1">
<use xlink:href="#glyph-0-0" x="30" y="25"/>
<use xlink:href="#glyph-0-1" x="34" y="25"/>
<use xlink:href="#glyph-0-2" x="39" y="25"/>
<use xlink:href="#glyph-0-3" x="42" y="25"/>
<use xlink:href="#glyph-0-4" x="45" y="25"/>
<use xlink:href="#glyph-0-5" x="48" y="25"/>
<use xlink:href="#glyph-0-6" x="50" y="25"/>
<use xlink:href="#glyph-0-7" x="56" y="25"/>
<use xlink:href="#glyph-0-4" x="59" y="25"/>
<use xlink:href="#glyph-0-3" x="62" y="25"/>
<use xlink:href="#glyph-0-8" x="65" y="25"/>
</g>
</svg>
