<?xml version="1.0" encoding="UTF-8"?>
<svg xmlns="http://www.w3.org/2000/svg" xmlns:xlink="http://www.w3.org/1999/xlink" width="1280" height="720" viewBox="0 0 1280 720">
<defs>
<g>
<g id="glyph-0-0">
<path d="M 3.609375 -4.59375 L 3.609375 -1.1875 L 4.015625 -1.1875 L 4.015625 -4.222656 L 5.390625 -4.222656 L 5.390625 -4.59375 Z "/>
</g>
<g id="glyph-0-1">
<path d="M 1.539062 -2.8125 L 1.539062 0.222656 L 0.167969 0.222656 L 0.167969 0.59375 L 1.945312 0.59375 L 1.945312 -2.8125 Z "/>
</g>
<g id="glyph-1-0">
<path d="M 1.007812 -3.984375 L 1.007812 -1.523438 C 1.007812 -1.234375 1.0625 -0.992188 1.171875 -0.800781 C 1.332031 -0.511719 1.605469 -0.367188 1.984375 -0.367188 C 2.441406 -0.367188 2.753906 -0.523438 2.917969 -0.835938 C 3.007812 -1.003906 3.050781 -1.234375 3.050781 -1.523438 L 3.050781 -3.984375 L 3.601562 -3.984375 L 3.601562 -1.746094 C 3.601562 -1.257812 3.535156 -0.878906 3.402344 -0.617188 C 3.160156 -0.136719 2.703125 0.105469 2.027344 0.105469 C 1.355469 0.105469 0.898438 -0.132812 0.660156 -0.617188 C 0.527344 -0.878906 0.460938 -1.257812 0.460938 -1.746094 L 0.460938 -3.984375 Z "/>
</g>
<g id="glyph-1-1">
<path d="M 0.648438 -0.910156 C 0.664062 -0.75 0.703125 -0.625 0.769531 -0.539062 C 0.894531 -0.378906 1.105469 -0.300781 1.410156 -0.300781 C 1.589844 -0.300781 1.75 -0.339844 1.886719 -0.417969 C 2.023438 -0.496094 2.09375 -0.621094 2.09375 -0.785156 C 2.09375 -0.910156 2.039062 -1.003906 1.929688 -1.070312 C 1.859375 -1.109375 1.71875 -1.15625 1.511719 -1.207031 L 1.125 -1.304688 C 0.875 -1.367188 0.691406 -1.433594 0.574219 -1.511719 C 0.363281 -1.644531 0.261719 -1.824219 0.261719 -2.058594 C 0.261719 -2.332031 0.359375 -2.554688 0.558594 -2.726562 C 0.757812 -2.894531 1.023438 -2.980469 1.355469 -2.980469 C 1.792969 -2.980469 2.109375 -2.851562 2.304688 -2.597656 C 2.425781 -2.433594 2.484375 -2.257812 2.480469 -2.070312 L 2.019531 -2.070312 C 2.007812 -2.179688 1.96875 -2.28125 1.902344 -2.371094 C 1.789062 -2.5 1.59375 -2.5625 1.320312 -2.5625 C 1.132812 -2.5625 0.996094 -2.527344 0.898438 -2.457031 C 0.804688 -2.386719 0.757812 -2.292969 0.757812 -2.179688 C 0.757812 -2.050781 0.820312 -1.949219 0.945312 -1.875 C 1.015625 -1.828125 1.125 -1.789062 1.265625 -1.753906 L 1.585938 -1.675781 C 1.9375 -1.589844 2.171875 -1.507812 2.292969 -1.429688 C 2.480469 -1.304688 2.578125 -1.109375 2.578125 -0.839844 C 2.578125 -0.582031 2.480469 -0.359375 2.28125 -0.171875 C 2.085938 0.015625 1.789062 0.109375 1.386719 0.109375 C 0.953125 0.109375 0.648438 0.0117188 0.46875 -0.183594 C 0.289062 -0.378906 0.191406 -0.621094 0.179688 -0.910156 Z "/>
</g>
<g id="glyph-1-2">
<path d="M 1.566406 -2.96875 C 1.773438 -2.96875 1.972656 -2.921875 2.167969 -2.824219 C 2.359375 -2.726562 2.507812 -2.601562 2.609375 -2.449219 C 2.707031 -2.304688 2.773438 -2.132812 2.804688 -1.9375 C 2.832031 -1.804688 2.847656 -1.589844 2.847656 -1.296875 L 0.71875 -1.296875 C 0.726562 -1.003906 0.796875 -0.765625 0.929688 -0.585938 C 1.058594 -0.410156 1.257812 -0.320312 1.53125 -0.320312 C 1.789062 -0.320312 1.992188 -0.402344 2.144531 -0.574219 C 2.230469 -0.671875 2.292969 -0.78125 2.328125 -0.910156 L 2.808594 -0.910156 C 2.796875 -0.804688 2.753906 -0.6875 2.679688 -0.554688 C 2.609375 -0.421875 2.53125 -0.316406 2.441406 -0.234375 C 2.292969 -0.0898438 2.109375 0.0078125 1.890625 0.0585938 C 1.773438 0.0898438 1.640625 0.101562 1.492188 0.101562 C 1.128906 0.101562 0.824219 -0.0273438 0.574219 -0.292969 C 0.320312 -0.554688 0.195312 -0.921875 0.195312 -1.398438 C 0.195312 -1.863281 0.320312 -2.242188 0.574219 -2.535156 C 0.828125 -2.824219 1.160156 -2.96875 1.566406 -2.96875 Z M 2.347656 -1.683594 C 2.328125 -1.894531 2.28125 -2.066406 2.207031 -2.191406 C 2.074219 -2.425781 1.851562 -2.542969 1.539062 -2.542969 C 1.3125 -2.542969 1.125 -2.464844 0.972656 -2.300781 C 0.820312 -2.140625 0.742188 -1.933594 0.734375 -1.683594 Z "/>
</g>
<g id="glyph-1-3">
<rect x="0" y="0" width="0" height="0" mask="url(#mask-0)"/>
</g>
<g id="glyph-1-4">
<path d="M 2.144531 -4.09375 C 2.847656 -4.09375 3.367188 -3.867188 3.707031 -3.414062 C 3.96875 -3.0625 4.101562 -2.613281 4.101562 -2.0625 C 4.101562 -1.46875 3.949219 -0.972656 3.648438 -0.578125 C 3.292969 -0.113281 2.789062 0.117188 2.132812 0.117188 C 1.519531 0.117188 1.039062 -0.0859375 0.6875 -0.492188 C 0.375 -0.882812 0.21875 -1.375 0.21875 -1.972656 C 0.21875 -2.511719 0.351562 -2.972656 0.617188 -3.355469 C 0.960938 -3.847656 1.46875 -4.09375 2.144531 -4.09375 Z M 2.199219 -0.367188 C 2.671875 -0.367188 3.015625 -0.535156 3.230469 -0.878906 C 3.441406 -1.21875 3.546875 -1.609375 3.546875 -2.054688 C 3.546875 -2.523438 3.425781 -2.898438 3.179688 -3.183594 C 2.933594 -3.46875 2.601562 -3.613281 2.175781 -3.613281 C 1.761719 -3.613281 1.425781 -3.472656 1.167969 -3.1875 C 0.90625 -2.90625 0.777344 -2.488281 0.777344 -1.9375 C 0.777344 -1.496094 0.886719 -1.125 1.109375 -0.820312 C 1.332031 -0.519531 1.695312 -0.367188 2.199219 -0.367188 Z "/>
</g>
<g id="glyph-1-5">
<path d="M 0.421875 -3.984375 L 1.0625 -3.984375 L 3.074219 -0.757812 L 3.074219 -3.984375 L 3.585938 -3.984375 L 3.585938 0 L 2.980469 0 L 0.9375 -3.226562 L 0.9375 0 L 0.421875 0 Z "/>
</g>
<g id="glyph-1-6">
<path d="M 0.421875 -3.984375 L 0.964844 -3.984375 L 0.964844 -0.476562 L 2.980469 -0.476562 L 2.980469 0 L 0.421875 0 Z "/>
</g>
<g id="glyph-1-7">
<path d="M 0.113281 -3.984375 L 0.742188 -3.984375 L 1.886719 -2.070312 L 3.03125 -3.984375 L 3.664062 -3.984375 L 2.160156 -1.605469 L 2.160156 0 L 1.621094 0 L 1.621094 -1.605469 Z "/>
</g>
<g id="glyph-1-8">
<path d="M 0.457031 -3.714844 L 0.949219 -3.714844 L 0.949219 -2.90625 L 1.414062 -2.90625 L 1.414062 -2.507812 L 0.949219 -2.507812 L 0.949219 -0.609375 C 0.949219 -0.507812 0.984375 -0.441406 1.050781 -0.40625 C 1.089844 -0.386719 1.152344 -0.378906 1.242188 -0.378906 C 1.265625 -0.378906 1.292969 -0.378906 1.320312 -0.378906 C 1.347656 -0.378906 1.378906 -0.382812 1.414062 -0.386719 L 1.414062 0 C 1.359375 0.015625 1.300781 0.0273438 1.238281 0.0351562 C 1.179688 0.0429688 1.113281 0.046875 1.042969 0.046875 C 0.8125 0.046875 0.660156 -0.0117188 0.578125 -0.128906 C 0.496094 -0.246094 0.457031 -0.398438 0.457031 -0.582031 L 0.457031 -2.507812 L 0.0625 -2.507812 L 0.0625 -2.90625 L 0.457031 -2.90625 Z "/>
</g>
<g id="glyph-1-9">
<path d="M 0.359375 -4 L 0.847656 -4 L 0.847656 -2.511719 C 0.960938 -2.660156 1.066406 -2.761719 1.160156 -2.820312 C 1.316406 -2.925781 1.511719 -2.976562 1.746094 -2.976562 C 2.167969 -2.976562 2.453125 -2.828125 2.605469 -2.535156 C 2.6875 -2.375 2.726562 -2.148438 2.726562 -1.863281 L 2.726562 0 L 2.222656 0 L 2.222656 -1.832031 C 2.222656 -2.042969 2.199219 -2.199219 2.144531 -2.300781 C 2.054688 -2.460938 1.886719 -2.539062 1.644531 -2.539062 C 1.441406 -2.539062 1.257812 -2.46875 1.09375 -2.332031 C 0.929688 -2.191406 0.847656 -1.929688 0.847656 -1.539062 L 0.847656 0 L 0.359375 0 Z "/>
</g>
<g id="glyph-1-10">
<path d="M 0.480469 -3.347656 C 0.488281 -3.550781 0.523438 -3.699219 0.585938 -3.792969 C 0.699219 -3.957031 0.917969 -4.042969 1.246094 -4.042969 C 1.277344 -4.042969 1.308594 -4.042969 1.339844 -4.039062 C 1.371094 -4.039062 1.410156 -4.035156 1.453125 -4.03125 L 1.453125 -3.585938 C 1.402344 -3.589844 1.363281 -3.59375 1.339844 -3.59375 C 1.316406 -3.59375 1.296875 -3.59375 1.277344 -3.59375 C 1.128906 -3.59375 1.039062 -3.554688 1.011719 -3.480469 C 0.984375 -3.402344 0.96875 -3.207031 0.96875 -2.890625 L 1.453125 -2.890625 L 1.453125 -2.507812 L 0.964844 -2.507812 L 0.964844 0 L 0.480469 0 L 0.480469 -2.507812 L 0.0742188 -2.507812 L 0.0742188 -2.890625 L 0.480469 -2.890625 Z "/>
</g>
<g id="glyph-1-11">
<path d="M 1.511719 -0.316406 C 1.835938 -0.316406 2.058594 -0.4375 2.175781 -0.683594 C 2.296875 -0.929688 2.355469 -1.199219 2.355469 -1.5 C 2.355469 -1.769531 2.3125 -1.992188 2.226562 -2.160156 C 2.089844 -2.429688 1.851562 -2.5625 1.515625 -2.5625 C 1.21875 -2.5625 1 -2.449219 0.867188 -2.222656 C 0.730469 -1.996094 0.660156 -1.71875 0.660156 -1.398438 C 0.660156 -1.089844 0.730469 -0.832031 0.867188 -0.625 C 1 -0.417969 1.214844 -0.316406 1.511719 -0.316406 Z M 1.53125 -2.988281 C 1.90625 -2.988281 2.222656 -2.863281 2.480469 -2.613281 C 2.738281 -2.363281 2.867188 -2 2.867188 -1.515625 C 2.867188 -1.046875 2.753906 -0.660156 2.527344 -0.351562 C 2.296875 -0.046875 1.945312 0.105469 1.464844 0.105469 C 1.066406 0.105469 0.746094 -0.03125 0.511719 -0.300781 C 0.277344 -0.570312 0.160156 -0.933594 0.160156 -1.390625 C 0.160156 -1.878906 0.285156 -2.265625 0.53125 -2.554688 C 0.78125 -2.84375 1.113281 -2.988281 1.53125 -2.988281 Z "/>
</g>
<g id="glyph-1-12">
<path d="M 0.371094 -3.984375 L 0.859375 -3.984375 L 0.859375 0 L 0.371094 0 Z "/>
</g>
<g id="glyph-1-13">
<path d="M 0.582031 -2.90625 L 1.140625 -0.617188 L 1.710938 -2.90625 L 2.257812 -2.90625 L 2.828125 -0.628906 L 3.421875 -2.90625 L 3.910156 -2.90625 L 3.066406 0 L 2.558594 0 L 1.964844 -2.25 L 1.394531 0 L 0.886719 0 L 0.0507812 -2.90625 Z "/>
</g>
<g id="glyph-1-14">
<path d="M 0.359375 -2.890625 L 0.855469 -2.890625 L 0.855469 0 L 0.359375 0 Z M 0.359375 -3.984375 L 0.855469 -3.984375 L 0.855469 -3.429688 L 0.359375 -3.429688 Z "/>
</g>
<g id="glyph-1-15">
<path d="M 0.359375 -2.90625 L 0.820312 -2.90625 L 0.820312 -2.492188 C 0.957031 -2.664062 1.105469 -2.785156 1.257812 -2.859375 C 1.414062 -2.933594 1.582031 -2.96875 1.769531 -2.96875 C 2.183594 -2.96875 2.460938 -2.828125 2.605469 -2.539062 C 2.6875 -2.382812 2.726562 -2.15625 2.726562 -1.863281 L 2.726562 0 L 2.230469 0 L 2.230469 -1.832031 C 2.230469 -2.007812 2.203125 -2.152344 2.152344 -2.257812 C 2.066406 -2.441406 1.90625 -2.53125 1.679688 -2.53125 C 1.5625 -2.53125 1.46875 -2.519531 1.394531 -2.496094 C 1.261719 -2.457031 1.144531 -2.375 1.042969 -2.257812 C 0.960938 -2.160156 0.90625 -2.0625 0.882812 -1.960938 C 0.859375 -1.859375 0.847656 -1.710938 0.847656 -1.523438 L 0.847656 0 L 0.359375 0 Z "/>
</g>
<g id="glyph-1-16">
<path d="M 1.382812 -2.957031 C 1.609375 -2.957031 1.808594 -2.902344 1.980469 -2.789062 C 2.074219 -2.726562 2.167969 -2.632812 2.261719 -2.511719 L 2.261719 -2.878906 L 2.710938 -2.878906 L 2.710938 -0.234375 C 2.710938 0.132812 2.660156 0.425781 2.550781 0.636719 C 2.347656 1.03125 1.964844 1.230469 1.402344 1.230469 C 1.089844 1.230469 0.828125 1.160156 0.613281 1.019531 C 0.398438 0.878906 0.28125 0.660156 0.253906 0.359375 L 0.75 0.359375 C 0.773438 0.492188 0.820312 0.589844 0.890625 0.660156 C 1.003906 0.769531 1.175781 0.824219 1.414062 0.824219 C 1.789062 0.824219 2.03125 0.691406 2.148438 0.429688 C 2.21875 0.273438 2.25 -0.00390625 2.242188 -0.402344 C 2.144531 -0.253906 2.027344 -0.144531 1.890625 -0.0742188 C 1.753906 0 1.570312 0.0351562 1.34375 0.0351562 C 1.03125 0.0351562 0.753906 -0.078125 0.519531 -0.300781 C 0.285156 -0.523438 0.164062 -0.890625 0.164062 -1.40625 C 0.164062 -1.894531 0.285156 -2.273438 0.523438 -2.546875 C 0.761719 -2.820312 1.046875 -2.957031 1.382812 -2.957031 Z M 2.261719 -1.464844 C 2.261719 -1.824219 2.1875 -2.089844 2.039062 -2.265625 C 1.890625 -2.4375 1.703125 -2.527344 1.472656 -2.527344 C 1.128906 -2.527344 0.894531 -2.363281 0.769531 -2.042969 C 0.703125 -1.871094 0.667969 -1.644531 0.667969 -1.367188 C 0.667969 -1.039062 0.734375 -0.789062 0.867188 -0.621094 C 1 -0.449219 1.179688 -0.363281 1.402344 -0.363281 C 1.753906 -0.363281 2 -0.523438 2.144531 -0.839844 C 2.222656 -1.019531 2.261719 -1.226562 2.261719 -1.464844 Z "/>
</g>
<g id="glyph-1-17">
<path d="M 1.476562 -2.988281 C 1.804688 -2.988281 2.070312 -2.910156 2.277344 -2.75 C 2.484375 -2.589844 2.605469 -2.316406 2.648438 -1.929688 L 2.171875 -1.929688 C 2.144531 -2.109375 2.078125 -2.257812 1.976562 -2.375 C 1.871094 -2.492188 1.707031 -2.550781 1.476562 -2.550781 C 1.167969 -2.550781 0.945312 -2.402344 0.8125 -2.097656 C 0.726562 -1.898438 0.679688 -1.65625 0.679688 -1.367188 C 0.679688 -1.074219 0.742188 -0.832031 0.867188 -0.632812 C 0.988281 -0.433594 1.183594 -0.332031 1.445312 -0.332031 C 1.648438 -0.332031 1.808594 -0.394531 1.925781 -0.519531 C 2.046875 -0.644531 2.128906 -0.8125 2.171875 -1.027344 L 2.648438 -1.027344 C 2.59375 -0.644531 2.457031 -0.359375 2.242188 -0.183594 C 2.023438 -0.00390625 1.746094 0.0859375 1.40625 0.0859375 C 1.027344 0.0859375 0.726562 -0.0546875 0.5 -0.332031 C 0.273438 -0.609375 0.160156 -0.957031 0.160156 -1.371094 C 0.160156 -1.882812 0.285156 -2.28125 0.53125 -2.5625 C 0.78125 -2.847656 1.09375 -2.988281 1.476562 -2.988281 Z "/>
</g>
<g id="glyph-1-18">
<path d="M 0.0820312 -2.90625 L 0.714844 -2.90625 L 1.378906 -1.882812 L 2.054688 -2.90625 L 2.648438 -2.890625 L 1.671875 -1.488281 L 2.695312 0 L 2.070312 0 L 1.347656 -1.089844 L 0.648438 0 L 0.03125 0 L 1.050781 -1.488281 Z "/>
</g>
</g>
<image id="source-815" x="0" y="0" width="0" height="0"/>
<mask id="mask-0">
<use xlink:href="#source-815"/>
</mask>
</defs>
<g fill="rgb(93.72549%, 32.54902%, 31.372549%)" fill-opacity="1">
<use xlink:href="#glyph-0-0" x="30" y="25.888672"/>
</g>
<g fill="rgb(93.72549%, 32.54902%, 31.372549%)" fill-opacity="1">
<use xlink:href="#glyph-1-0" x="36" y="25.888672"/>
<use xlink:href="#glyph-1-1" x="40" y="25.888672"/>
<use xlink:href="#glyph-1-2" x="43" y="25.888672"/>
<use xlink:href="#glyph-1-3" x="46" y="25.888672"/>
<use xlink:href="#glyph-1-4" x="48" y="25.888672"/>
<use xlink:href="#glyph-1-5" x="52" y="25.888672"/>
<use xlink:href="#glyph-1-6" x="56" y="25.888672"/>
<use xlink:href="#glyph-1-7" x="59" y="25.888672"/>
<use xlink:href="#glyph-1-3" x="62" y="25.888672"/>
<use xlink:href="#glyph-1-8" x="63" y="25.888672"/>
<use xlink:href="#glyph-1-9" x="65" y="25.888672"/>
<use xlink:href="#glyph-1-2" x="68" y="25.888672"/>
<use xlink:href="#glyph-1-3" x="71" y="25.888672"/>
<use xlink:href="#glyph-1-10" x="73" y="25.888672"/>
<use xlink:href="#glyph-1-11" x="75" y="25.888672"/>
<use xlink:href="#glyph-1-12" x="78" y="25.888672"/>
<use xlink:href="#glyph-1-12" x="79" y="25.888672"/>
<use xlink:href="#glyph-1-11" x="80" y="25.888672"/>
<use xlink:href="#glyph-1-13" x="83" y="25.888672"/>
<use xlink:href="#glyph-1-14" x="87" y="25.888672"/>
<use xlink:href="#glyph-1-15" x="88" y="25.888672"/>
<use xlink:href="#glyph-1-16" x="91" y="25.888672"/>
<use xlink:href="#glyph-1-3" x="94" y="25.888672"/>
<use xlink:href="#glyph-1-17" x="96" y="25.888672"/>
<use xlink:href="#glyph-1-11" x="99" y="25.888672"/>
<use xlink:href="#glyph-1-15" x="102" y="25.888672"/>
<use xlink:href="#glyph-1-8" x="105" y="25.888672"/>
<use xlink:href="#glyph-1-2" x="107" y="25.888672"/>
<use xlink:href="#glyph-1-18" x="110" y="25.888672"/>
<use xlink:href="#glyph-1-8" x="113" y="25.888672"/>
</g>
<g fill="rgb(93.72549%, 32.54902%, 31.372549%)" fill-opacity="1">
<use xlink:href="#glyph-0-1" x="115" y="25.888672"/>
</g>
</svg>
