<?xml version="1.0" encoding="UTF-8"?>
<svg xmlns="http://www.w3.org/2000/svg" xmlns:xlink="http://www.w3.org/1999/xlink" width="1280" height="720" viewBox="0 0 1280 720">
<defs>
<g>
<g id="glyph-0-0">
<path d="M 1.761719 -2.191406 C 1.761719 -2 1.699219 -1.839844 1.578125 -1.714844 C 1.453125 -1.589844 1.292969 -1.527344 1.105469 -1.527344 C 0.914062 -1.527344 0.753906 -1.589844 0.632812 -1.714844 C 0.507812 -1.839844 0.445312 -2 0.445312 -2.191406 C 0.445312 -2.382812 0.507812 -2.539062 0.632812 -2.660156 C 0.757812 -2.785156 0.914062 -2.847656 1.105469 -2.847656 C 1.296875 -2.847656 1.453125 -2.785156 1.578125 -2.660156 C 1.703125 -2.539062 1.761719 -2.382812 1.761719 -2.191406 Z "/>
</g>
<g id="glyph-0-1">
<rect x="0" y="0" width="0" height="0" mask="url(#mask-0)"/>
</g>
<g id="glyph-0-2">
<path d="M 0.851562 -1.414062 C 0.867188 -1.164062 0.925781 -0.964844 1.03125 -0.808594 C 1.226562 -0.519531 1.574219 -0.371094 2.070312 -0.371094 C 2.292969 -0.371094 2.496094 -0.40625 2.679688 -0.46875 C 3.035156 -0.59375 3.210938 -0.8125 3.210938 -1.128906 C 3.210938 -1.367188 3.136719 -1.539062 2.988281 -1.640625 C 2.835938 -1.742188 2.597656 -1.828125 2.277344 -1.902344 L 1.683594 -2.035156 C 1.296875 -2.121094 1.019531 -2.21875 0.859375 -2.324219 C 0.582031 -2.507812 0.441406 -2.78125 0.441406 -3.144531 C 0.441406 -3.539062 0.578125 -3.863281 0.851562 -4.113281 C 1.125 -4.367188 1.507812 -4.492188 2.007812 -4.492188 C 2.46875 -4.492188 2.859375 -4.382812 3.179688 -4.160156 C 3.5 -3.9375 3.660156 -3.585938 3.660156 -3.097656 L 3.101562 -3.097656 C 3.074219 -3.332031 3.007812 -3.511719 2.910156 -3.636719 C 2.730469 -3.867188 2.421875 -3.980469 1.988281 -3.980469 C 1.640625 -3.980469 1.386719 -3.90625 1.234375 -3.757812 C 1.082031 -3.613281 1.003906 -3.441406 1.003906 -3.246094 C 1.003906 -3.03125 1.09375 -2.875 1.273438 -2.773438 C 1.390625 -2.710938 1.65625 -2.632812 2.070312 -2.535156 L 2.683594 -2.394531 C 2.980469 -2.328125 3.210938 -2.234375 3.371094 -2.117188 C 3.648438 -1.914062 3.789062 -1.617188 3.789062 -1.226562 C 3.789062 -0.742188 3.613281 -0.394531 3.257812 -0.183594 C 2.90625 0.0234375 2.496094 0.128906 2.027344 0.128906 C 1.484375 0.128906 1.058594 -0.0117188 0.75 -0.289062 C 0.441406 -0.566406 0.289062 -0.941406 0.296875 -1.414062 Z "/>
</g>
<g id="glyph-0-3">
<path d="M 3.65625 -4.382812 L 3.65625 -3.859375 L 2.179688 -3.859375 L 2.179688 0 L 1.574219 0 L 1.574219 -3.859375 L 0.0976562 -3.859375 L 0.0976562 -4.382812 Z "/>
</g>
<g id="glyph-0-4">
<path d="M 2.355469 -4.503906 C 3.128906 -4.503906 3.703125 -4.253906 4.074219 -3.757812 C 4.367188 -3.367188 4.511719 -2.871094 4.511719 -2.265625 C 4.511719 -1.613281 4.34375 -1.070312 4.011719 -0.636719 C 3.621094 -0.125 3.066406 0.128906 2.34375 0.128906 C 1.671875 0.128906 1.140625 -0.09375 0.753906 -0.539062 C 0.410156 -0.96875 0.238281 -1.511719 0.238281 -2.167969 C 0.238281 -2.761719 0.386719 -3.269531 0.679688 -3.691406 C 1.058594 -4.230469 1.617188 -4.503906 2.355469 -4.503906 Z M 2.417969 -0.402344 C 2.941406 -0.402344 3.316406 -0.589844 3.550781 -0.964844 C 3.785156 -1.339844 3.902344 -1.769531 3.902344 -2.257812 C 3.902344 -2.773438 3.769531 -3.1875 3.5 -3.503906 C 3.230469 -3.816406 2.859375 -3.972656 2.394531 -3.972656 C 1.941406 -3.972656 1.570312 -3.820312 1.28125 -3.507812 C 0.996094 -3.195312 0.851562 -2.738281 0.851562 -2.128906 C 0.851562 -1.644531 0.976562 -1.234375 1.222656 -0.902344 C 1.46875 -0.570312 1.867188 -0.402344 2.417969 -0.402344 Z "/>
</g>
<g id="glyph-0-5">
<path d="M 2.503906 -2.375 C 2.78125 -2.375 3.003906 -2.429688 3.164062 -2.542969 C 3.328125 -2.652344 3.40625 -2.855469 3.40625 -3.144531 C 3.40625 -3.457031 3.292969 -3.667969 3.066406 -3.78125 C 2.945312 -3.84375 2.785156 -3.871094 2.582031 -3.871094 L 1.128906 -3.871094 L 1.128906 -2.375 Z M 0.535156 -4.382812 L 2.566406 -4.382812 C 2.898438 -4.382812 3.175781 -4.335938 3.390625 -4.238281 C 3.804688 -4.050781 4.011719 -3.703125 4.011719 -3.203125 C 4.011719 -2.9375 3.957031 -2.722656 3.847656 -2.558594 C 3.738281 -2.390625 3.585938 -2.253906 3.390625 -2.152344 C 3.5625 -2.082031 3.691406 -1.992188 3.777344 -1.878906 C 3.863281 -1.765625 3.914062 -1.582031 3.921875 -1.328125 L 3.945312 -0.738281 C 3.949219 -0.574219 3.964844 -0.449219 3.984375 -0.367188 C 4.019531 -0.226562 4.085938 -0.136719 4.175781 -0.0976562 L 4.175781 0 L 3.449219 0 C 3.429688 -0.0390625 3.414062 -0.0859375 3.402344 -0.144531 C 3.390625 -0.207031 3.378906 -0.320312 3.371094 -0.492188 L 3.335938 -1.222656 C 3.320312 -1.507812 3.214844 -1.703125 3.015625 -1.800781 C 2.902344 -1.851562 2.726562 -1.878906 2.480469 -1.878906 L 1.128906 -1.878906 L 1.128906 0 L 0.535156 0 Z "/>
</g>
<g id="glyph-0-6">
<path d="M 0.523438 -4.382812 L 3.71875 -4.382812 L 3.71875 -3.847656 L 1.101562 -3.847656 L 1.101562 -2.515625 L 3.519531 -2.515625 L 3.519531 -2.007812 L 1.101562 -2.007812 L 1.101562 -0.523438 L 3.761719 -0.523438 L 3.761719 0 L 0.523438 0 Z "/>
</g>
<g id="glyph-0-7">
<path d="M 0.394531 -3.195312 L 0.925781 -3.195312 L 0.925781 -2.742188 C 1.050781 -2.898438 1.167969 -3.011719 1.269531 -3.085938 C 1.449219 -3.207031 1.648438 -3.265625 1.875 -3.265625 C 2.128906 -3.265625 2.332031 -3.203125 2.488281 -3.078125 C 2.574219 -3.007812 2.65625 -2.902344 2.726562 -2.761719 C 2.847656 -2.933594 2.988281 -3.0625 3.148438 -3.144531 C 3.308594 -3.226562 3.488281 -3.265625 3.691406 -3.265625 C 4.121094 -3.265625 4.414062 -3.113281 4.566406 -2.800781 C 4.652344 -2.632812 4.691406 -2.410156 4.691406 -2.128906 L 4.691406 0 L 4.136719 0 L 4.136719 -2.21875 C 4.136719 -2.433594 4.082031 -2.578125 3.976562 -2.660156 C 3.871094 -2.738281 3.738281 -2.777344 3.585938 -2.777344 C 3.375 -2.777344 3.195312 -2.707031 3.042969 -2.566406 C 2.890625 -2.425781 2.8125 -2.1875 2.8125 -1.859375 L 2.8125 0 L 2.265625 0 L 2.265625 -2.085938 C 2.265625 -2.300781 2.242188 -2.460938 2.191406 -2.558594 C 2.109375 -2.707031 1.957031 -2.785156 1.734375 -2.785156 C 1.53125 -2.785156 1.347656 -2.707031 1.179688 -2.546875 C 1.015625 -2.390625 0.929688 -2.105469 0.929688 -1.695312 L 0.929688 0 L 0.394531 0 Z "/>
</g>
<g id="glyph-0-8">
<path d="M 0.351562 -4.398438 L 0.875 -4.398438 L 0.875 -2.808594 C 0.992188 -2.960938 1.132812 -3.078125 1.292969 -3.15625 C 1.457031 -3.238281 1.636719 -3.277344 1.824219 -3.277344 C 2.222656 -3.277344 2.546875 -3.140625 2.792969 -2.867188 C 3.042969 -2.59375 3.164062 -2.191406 3.164062 -1.660156 C 3.164062 -1.152344 3.042969 -0.734375 2.796875 -0.398438 C 2.554688 -0.0664062 2.214844 0.101562 1.78125 0.101562 C 1.539062 0.101562 1.332031 0.0429688 1.167969 -0.0742188 C 1.066406 -0.144531 0.960938 -0.253906 0.847656 -0.410156 L 0.847656 0 L 0.351562 0 Z M 1.75 -0.371094 C 2.039062 -0.371094 2.257812 -0.488281 2.398438 -0.71875 C 2.542969 -0.949219 2.617188 -1.253906 2.617188 -1.632812 C 2.617188 -1.96875 2.542969 -2.246094 2.398438 -2.46875 C 2.253906 -2.6875 2.042969 -2.796875 1.761719 -2.796875 C 1.519531 -2.796875 1.304688 -2.707031 1.121094 -2.527344 C 0.9375 -2.347656 0.84375 -2.046875 0.84375 -1.632812 C 0.84375 -1.332031 0.882812 -1.089844 0.957031 -0.902344 C 1.097656 -0.550781 1.363281 -0.371094 1.75 -0.371094 Z "/>
</g>
<g id="glyph-0-9">
<path d="M 1.722656 -3.265625 C 1.949219 -3.265625 2.171875 -3.214844 2.382812 -3.105469 C 2.597656 -3 2.757812 -2.863281 2.871094 -2.695312 C 2.976562 -2.535156 3.050781 -2.34375 3.085938 -2.128906 C 3.117188 -1.984375 3.132812 -1.75 3.132812 -1.425781 L 0.789062 -1.425781 C 0.800781 -1.101562 0.878906 -0.84375 1.019531 -0.644531 C 1.164062 -0.449219 1.386719 -0.351562 1.6875 -0.351562 C 1.964844 -0.351562 2.191406 -0.445312 2.355469 -0.628906 C 2.453125 -0.738281 2.519531 -0.859375 2.558594 -1.003906 L 3.089844 -1.003906 C 3.074219 -0.886719 3.027344 -0.753906 2.949219 -0.609375 C 2.871094 -0.464844 2.78125 -0.347656 2.683594 -0.257812 C 2.523438 -0.0976562 2.320312 0.0117188 2.078125 0.0664062 C 1.949219 0.0976562 1.804688 0.113281 1.640625 0.113281 C 1.242188 0.113281 0.90625 -0.03125 0.628906 -0.320312 C 0.351562 -0.609375 0.214844 -1.015625 0.214844 -1.535156 C 0.214844 -2.050781 0.355469 -2.464844 0.632812 -2.785156 C 0.910156 -3.105469 1.273438 -3.265625 1.722656 -3.265625 Z M 2.582031 -1.851562 C 2.558594 -2.085938 2.507812 -2.273438 2.429688 -2.410156 C 2.28125 -2.667969 2.035156 -2.796875 1.691406 -2.796875 C 1.445312 -2.796875 1.238281 -2.710938 1.070312 -2.53125 C 0.902344 -2.351562 0.816406 -2.128906 0.804688 -1.851562 Z "/>
</g>
<g id="glyph-0-10">
<path d="M 0.734375 -1.558594 C 0.734375 -1.21875 0.804688 -0.933594 0.953125 -0.699219 C 1.097656 -0.46875 1.328125 -0.355469 1.648438 -0.355469 C 1.898438 -0.355469 2.101562 -0.460938 2.261719 -0.675781 C 2.421875 -0.890625 2.503906 -1.195312 2.503906 -1.597656 C 2.503906 -2 2.421875 -2.300781 2.253906 -2.492188 C 2.089844 -2.6875 1.886719 -2.785156 1.644531 -2.785156 C 1.375 -2.785156 1.152344 -2.679688 0.984375 -2.472656 C 0.816406 -2.265625 0.734375 -1.960938 0.734375 -1.558594 Z M 1.542969 -3.253906 C 1.789062 -3.253906 1.992188 -3.199219 2.15625 -3.097656 C 2.253906 -3.039062 2.359375 -2.933594 2.480469 -2.785156 L 2.480469 -4.398438 L 3 -4.398438 L 3 0 L 2.515625 0 L 2.515625 -0.445312 C 2.390625 -0.246094 2.242188 -0.105469 2.070312 -0.0195312 C 1.898438 0.0703125 1.703125 0.113281 1.484375 0.113281 C 1.128906 0.113281 0.820312 -0.0351562 0.558594 -0.335938 C 0.296875 -0.636719 0.167969 -1.035156 0.167969 -1.53125 C 0.167969 -1.996094 0.285156 -2.398438 0.523438 -2.742188 C 0.761719 -3.082031 1.101562 -3.253906 1.542969 -3.253906 Z "/>
</g>
<g id="glyph-0-11">
<path d="M 0.394531 -3.179688 L 0.941406 -3.179688 L 0.941406 0 L 0.394531 0 Z M 0.394531 -4.382812 L 0.941406 -4.382812 L 0.941406 -3.773438 L 0.394531 -3.773438 Z "/>
</g>
<g id="glyph-0-12">
<path d="M 0.394531 -3.195312 L 0.902344 -3.195312 L 0.902344 -2.742188 C 1.054688 -2.929688 1.214844 -3.0625 1.382812 -3.144531 C 1.554688 -3.226562 1.742188 -3.265625 1.949219 -3.265625 C 2.402344 -3.265625 2.707031 -3.109375 2.867188 -2.792969 C 2.953125 -2.621094 3 -2.371094 3 -2.050781 L 3 0 L 2.453125 0 L 2.453125 -2.015625 C 2.453125 -2.210938 2.421875 -2.367188 2.367188 -2.484375 C 2.269531 -2.683594 2.097656 -2.785156 1.847656 -2.785156 C 1.71875 -2.785156 1.613281 -2.769531 1.535156 -2.746094 C 1.386719 -2.703125 1.257812 -2.613281 1.144531 -2.480469 C 1.054688 -2.375 0.996094 -2.269531 0.972656 -2.15625 C 0.945312 -2.042969 0.929688 -1.882812 0.929688 -1.671875 L 0.929688 0 L 0.394531 0 Z "/>
</g>
<g id="glyph-0-13">
<path d="M 1.523438 -3.253906 C 1.773438 -3.253906 1.992188 -3.191406 2.179688 -3.066406 C 2.28125 -2.996094 2.382812 -2.894531 2.488281 -2.761719 L 2.488281 -3.164062 L 2.984375 -3.164062 L 2.984375 -0.257812 C 2.984375 0.148438 2.925781 0.464844 2.804688 0.699219 C 2.582031 1.132812 2.160156 1.351562 1.542969 1.351562 C 1.199219 1.351562 0.910156 1.273438 0.675781 1.121094 C 0.441406 0.964844 0.308594 0.726562 0.28125 0.398438 L 0.828125 0.398438 C 0.851562 0.539062 0.902344 0.652344 0.980469 0.726562 C 1.101562 0.847656 1.292969 0.90625 1.554688 0.90625 C 1.964844 0.90625 2.234375 0.761719 2.363281 0.472656 C 2.4375 0.300781 2.472656 -0.00390625 2.46875 -0.445312 C 2.359375 -0.28125 2.230469 -0.160156 2.078125 -0.0820312 C 1.929688 0 1.726562 0.0390625 1.480469 0.0390625 C 1.132812 0.0390625 0.832031 -0.0859375 0.570312 -0.328125 C 0.3125 -0.574219 0.183594 -0.980469 0.183594 -1.546875 C 0.183594 -2.082031 0.3125 -2.5 0.574219 -2.800781 C 0.835938 -3.101562 1.152344 -3.253906 1.523438 -3.253906 Z M 2.488281 -1.609375 C 2.488281 -2.007812 2.40625 -2.300781 2.242188 -2.492188 C 2.078125 -2.683594 1.871094 -2.777344 1.621094 -2.777344 C 1.242188 -2.777344 0.984375 -2.601562 0.84375 -2.246094 C 0.769531 -2.058594 0.734375 -1.808594 0.734375 -1.503906 C 0.734375 -1.144531 0.808594 -0.871094 0.953125 -0.683594 C 1.097656 -0.496094 1.296875 -0.398438 1.542969 -0.398438 C 1.929688 -0.398438 2.199219 -0.574219 2.355469 -0.921875 C 2.445312 -1.117188 2.488281 -1.347656 2.488281 -1.609375 Z "/>
</g>
<g id="glyph-0-14">
<path d="M 0.449219 -4.382812 L 1.300781 -4.382812 L 2.558594 -0.675781 L 3.808594 -4.382812 L 4.652344 -4.382812 L 4.652344 0 L 4.085938 0 L 4.085938 -2.585938 C 4.085938 -2.675781 4.089844 -2.824219 4.09375 -3.03125 C 4.097656 -3.238281 4.097656 -3.460938 4.097656 -3.695312 L 2.847656 0 L 2.261719 0 L 1.003906 -3.695312 L 1.003906 -3.5625 C 1.003906 -3.453125 1.003906 -3.292969 1.011719 -3.070312 C 1.015625 -2.851562 1.015625 -2.691406 1.015625 -2.585938 L 1.015625 0 L 0.449219 0 Z "/>
</g>
<g id="glyph-0-15">
<path d="M 1.660156 -0.347656 C 2.015625 -0.347656 2.261719 -0.480469 2.394531 -0.75 C 2.527344 -1.019531 2.59375 -1.320312 2.59375 -1.648438 C 2.59375 -1.949219 2.546875 -2.191406 2.449219 -2.378906 C 2.296875 -2.671875 2.039062 -2.820312 1.667969 -2.820312 C 1.339844 -2.820312 1.101562 -2.695312 0.953125 -2.445312 C 0.804688 -2.195312 0.726562 -1.890625 0.726562 -1.535156 C 0.726562 -1.195312 0.800781 -0.914062 0.953125 -0.6875 C 1.101562 -0.460938 1.335938 -0.347656 1.660156 -0.347656 Z M 1.683594 -3.289062 C 2.09375 -3.289062 2.441406 -3.152344 2.726562 -2.875 C 3.011719 -2.601562 3.152344 -2.199219 3.152344 -1.664062 C 3.152344 -1.148438 3.027344 -0.722656 2.777344 -0.386719 C 2.527344 -0.0507812 2.136719 0.117188 1.609375 0.117188 C 1.171875 0.117188 0.824219 -0.03125 0.5625 -0.328125 C 0.304688 -0.625 0.175781 -1.027344 0.175781 -1.527344 C 0.175781 -2.066406 0.3125 -2.492188 0.585938 -2.808594 C 0.859375 -3.128906 1.222656 -3.289062 1.683594 -3.289062 Z "/>
</g>
<g id="glyph-0-16">
<path d="M 0.410156 -4.382812 L 0.945312 -4.382812 L 0.945312 0 L 0.410156 0 Z "/>
</g>
<g id="glyph-1-0">
<path d="M 0.304688 -2.460938 L 0.304688 -2.023438 L 5.796875 -2.023438 L 5.796875 -2.460938 Z "/>
</g>
<g id="glyph-1-1">
<path d="M 1.265625 -3.175781 L 1.265625 -2.761719 L 2.867188 -2.761719 L 2.867188 -0.0976562 C 2.804688 -0.109375 2.742188 -0.128906 2.6875 -0.148438 C 2.25 -0.289062 1.882812 -0.617188 1.589844 -1.144531 C 1.699219 -1.460938 1.796875 -1.808594 1.871094 -2.1875 L 1.441406 -2.261719 C 1.234375 -1.210938 0.84375 -0.371094 0.257812 0.25 L 0.539062 0.597656 C 0.886719 0.246094 1.179688 -0.195312 1.417969 -0.722656 C 1.667969 -0.324219 2 -0.03125 2.402344 0.160156 C 2.9375 0.386719 3.820312 0.5 5.054688 0.5 L 5.738281 0.5 L 5.816406 0.0625 C 5.488281 0.0859375 5.167969 0.0976562 4.859375 0.0976562 C 4.246094 0.0898438 3.734375 0.0546875 3.304688 -0.0078125 L 3.304688 -1.269531 L 5.125 -1.269531 L 5.125 -1.6875 L 3.304688 -1.6875 L 3.304688 -2.761719 L 4.859375 -2.761719 L 4.859375 -3.175781 Z M 5.554688 -4.367188 L 3.335938 -4.367188 C 3.25 -4.621094 3.152344 -4.84375 3.054688 -5.046875 L 2.585938 -4.972656 C 2.695312 -4.789062 2.796875 -4.589844 2.890625 -4.367188 L 0.554688 -4.367188 L 0.554688 -3.035156 L 0.984375 -3.035156 L 0.984375 -3.964844 L 5.125 -3.964844 L 5.125 -3.066406 L 5.554688 -3.066406 Z "/>
</g>
<g id="glyph-1-2">
<path d="M 0.355469 -4.746094 L 0.355469 -4.351562 L 2.15625 -4.351562 L 2.15625 -3.808594 L 0.734375 -3.808594 L 0.734375 -2.265625 L 2.339844 -2.265625 C 2.242188 -2.097656 2.136719 -1.914062 2.027344 -1.722656 L 0.273438 -1.722656 L 0.273438 -1.320312 L 1.785156 -1.320312 C 1.648438 -1.113281 1.515625 -0.898438 1.367188 -0.683594 C 1.875 -0.566406 2.382812 -0.433594 2.890625 -0.28125 C 2.339844 -0.0664062 1.515625 0.105469 0.425781 0.230469 L 0.59375 0.625 C 1.914062 0.445312 2.867188 0.203125 3.445312 -0.109375 C 4.125 0.109375 4.804688 0.359375 5.476562 0.648438 L 5.75 0.289062 C 5.101562 0.03125 4.464844 -0.1875 3.84375 -0.378906 C 4.167969 -0.640625 4.394531 -0.953125 4.515625 -1.320312 L 5.828125 -1.320312 L 5.828125 -1.722656 L 2.523438 -1.722656 C 2.621094 -1.894531 2.726562 -2.070312 2.835938 -2.265625 L 5.378906 -2.265625 L 5.378906 -3.808594 L 3.953125 -3.808594 L 3.953125 -4.351562 L 5.757812 -4.351562 L 5.757812 -4.746094 Z M 3.371094 -0.519531 C 2.902344 -0.652344 2.445312 -0.769531 1.992188 -0.867188 C 2.082031 -1.003906 2.179688 -1.15625 2.285156 -1.320312 L 4.070312 -1.320312 C 3.949219 -1.003906 3.714844 -0.734375 3.371094 -0.519531 Z M 3.53125 -3.808594 L 2.578125 -3.808594 L 2.578125 -4.351562 L 3.53125 -4.351562 Z M 4.957031 -2.644531 L 3.953125 -2.644531 L 3.953125 -3.421875 L 4.957031 -3.421875 Z M 3.53125 -2.644531 L 2.578125 -2.644531 L 2.578125 -3.421875 L 3.53125 -3.421875 Z M 2.15625 -2.644531 L 1.15625 -2.644531 L 1.15625 -3.421875 L 2.15625 -3.421875 Z "/>
</g>
<g id="glyph-1-3">
<path d="M 1.300781 -2.859375 L 2.855469 -2.859375 L 2.855469 -1.789062 L 1.300781 -1.789062 Z M 1.277344 -1.386719 L 2.855469 -1.386719 L 2.855469 0.402344 L 3.304688 0.402344 L 3.304688 -1.386719 L 4.96875 -1.386719 L 4.96875 -0.324219 C 4.96875 -0.0664062 4.851562 0.0625 4.632812 0.0625 C 4.425781 0.0625 4.199219 0.0507812 3.953125 0.0351562 L 4.070312 0.46875 L 4.773438 0.46875 C 5.199219 0.46875 5.414062 0.257812 5.414062 -0.171875 L 5.414062 -4.746094 L 0.863281 -4.746094 L 0.863281 -1.816406 C 0.847656 -0.976562 0.648438 -0.289062 0.257812 0.257812 L 0.59375 0.554688 C 0.984375 0.0429688 1.210938 -0.605469 1.277344 -1.386719 Z M 4.96875 -1.789062 L 3.304688 -1.789062 L 3.304688 -2.859375 L 4.96875 -2.859375 Z M 4.96875 -3.269531 L 3.304688 -3.269531 L 3.304688 -4.320312 L 4.96875 -4.320312 Z M 2.855469 -4.320312 L 2.855469 -3.269531 L 1.300781 -3.269531 L 1.300781 -4.320312 Z "/>
</g>
<g id="glyph-1-4">
<path d="M 4.972656 0.585938 C 5.328125 0.585938 5.503906 0.386719 5.503906 -0.0117188 L 5.503906 -4.753906 L 0.605469 -4.753906 L 0.605469 0.605469 L 1.042969 0.605469 L 1.042969 -4.324219 L 5.066406 -4.324219 L 5.066406 -0.109375 C 5.066406 0.0742188 4.984375 0.164062 4.832031 0.164062 L 4.039062 0.148438 L 4.160156 0.585938 Z M 1.492188 -3.625 L 1.492188 -3.214844 L 4.625 -3.214844 L 4.625 -3.625 Z M 1.832031 -2.554688 L 1.832031 -0.585938 L 4.285156 -0.585938 L 4.285156 -2.554688 Z M 3.855469 -0.976562 L 2.261719 -0.976562 L 2.261719 -2.15625 L 3.855469 -2.15625 Z "/>
</g>
<g id="glyph-1-5">
<rect x="0" y="0" width="0" height="0" mask="url(#mask-1)"/>
</g>
<g id="glyph-1-6">
<path d="M 1.464844 -2.53125 C 1.59375 -2.320312 1.742188 -2.054688 1.914062 -1.730469 L 2.152344 -2.082031 C 1.917969 -2.417969 1.691406 -2.726562 1.464844 -3.007812 L 1.464844 -3.378906 L 2.046875 -3.378906 L 2.046875 -3.789062 L 1.464844 -3.789062 L 1.464844 -4.992188 L 1.039062 -4.992188 L 1.039062 -3.789062 L 0.355469 -3.789062 L 0.355469 -3.378906 L 1.003906 -3.378906 C 0.84375 -2.585938 0.582031 -1.875 0.21875 -1.265625 L 0.425781 -0.890625 C 0.671875 -1.34375 0.878906 -1.84375 1.039062 -2.394531 L 1.039062 0.617188 L 1.464844 0.617188 Z M 2.261719 -4.40625 L 2.261719 -4.0625 L 3.765625 -4.0625 L 3.765625 -3.671875 L 2.46875 -3.671875 L 2.46875 -3.34375 L 3.765625 -3.34375 L 3.765625 -2.945312 L 2.15625 -2.945312 L 2.15625 -2.601562 L 5.78125 -2.601562 L 5.78125 -2.945312 L 4.1875 -2.945312 L 4.1875 -3.34375 L 5.480469 -3.34375 L 5.480469 -3.671875 L 4.1875 -3.671875 L 4.1875 -4.0625 L 5.671875 -4.0625 L 5.671875 -4.40625 L 4.808594 -4.40625 C 4.902344 -4.578125 4.972656 -4.765625 5.027344 -4.96875 L 4.601562 -5.027344 C 4.550781 -4.816406 4.484375 -4.605469 4.386719 -4.40625 L 3.542969 -4.40625 C 3.46875 -4.625 3.398438 -4.828125 3.316406 -5.003906 L 2.882812 -4.929688 C 2.96875 -4.773438 3.054688 -4.601562 3.128906 -4.40625 Z M 3.289062 0.605469 L 3.75 0.605469 C 4.074219 0.605469 4.242188 0.457031 4.242188 0.175781 L 4.242188 -0.769531 C 4.5625 -0.269531 5.023438 0.160156 5.609375 0.511719 L 5.890625 0.1875 C 5.390625 -0.0664062 4.980469 -0.386719 4.664062 -0.765625 C 5.058594 -0.933594 5.414062 -1.179688 5.730469 -1.507812 L 5.449219 -1.785156 C 5.125 -1.453125 4.789062 -1.214844 4.4375 -1.0625 C 4.363281 -1.167969 4.300781 -1.277344 4.242188 -1.394531 L 4.242188 -1.84375 L 2.574219 -1.84375 L 2.574219 -1.503906 L 3.824219 -1.503906 L 3.824219 0.0507812 C 3.824219 0.175781 3.769531 0.246094 3.660156 0.246094 L 3.191406 0.226562 Z M 3.355469 -2.476562 L 3.214844 -2.199219 C 3.765625 -2.121094 4.296875 -2.003906 4.808594 -1.84375 L 4.925781 -2.136719 C 4.425781 -2.285156 3.898438 -2.394531 3.355469 -2.476562 Z M 2.152344 -1.125 L 2.152344 -0.769531 L 3.09375 -0.769531 C 2.867188 -0.335938 2.476562 0.0078125 1.917969 0.25 L 2.175781 0.582031 C 2.847656 0.257812 3.300781 -0.214844 3.527344 -0.835938 L 3.527344 -1.125 Z "/>
</g>
<g id="glyph-1-7">
<path d="M 1.761719 -4.578125 L 0.386719 -4.578125 L 0.386719 -0.0742188 L 0.789062 -0.0742188 L 0.789062 -0.574219 L 1.363281 -0.574219 L 1.363281 -0.21875 L 1.761719 -0.21875 Z M 0.789062 -0.964844 L 0.789062 -4.191406 L 1.363281 -4.191406 L 1.363281 -0.964844 Z M 2.523438 -3.128906 L 3.164062 -3.128906 L 3.164062 -2.265625 L 2.523438 -2.265625 Z M 3.164062 -3.496094 L 2.523438 -3.496094 L 2.523438 -4.367188 L 3.164062 -4.367188 Z M 5.40625 0.539062 C 5.589844 0.527344 5.714844 0.457031 5.761719 0.347656 C 5.824219 0.226562 5.855469 -0.0976562 5.855469 -0.617188 L 5.554688 -0.734375 C 5.554688 -0.414062 5.542969 -0.183594 5.53125 -0.0351562 C 5.519531 0.0859375 5.46875 0.152344 5.394531 0.160156 L 5.164062 0.160156 C 5.097656 0.148438 5.066406 0.105469 5.066406 0.03125 L 5.066406 -1.515625 L 4.839844 -1.515625 C 4.902344 -1.71875 4.949219 -1.925781 4.992188 -2.144531 L 5.683594 -2.144531 L 5.683594 -2.546875 L 5.058594 -2.546875 C 5.109375 -2.925781 5.140625 -3.335938 5.144531 -3.777344 L 5.144531 -4.332031 L 5.707031 -4.332031 L 5.707031 -4.734375 L 3.867188 -4.734375 L 3.867188 -4.332031 L 4.785156 -4.332031 L 4.785156 -3.777344 C 4.777344 -3.347656 4.746094 -2.9375 4.691406 -2.546875 L 4.203125 -2.546875 C 4.269531 -2.957031 4.339844 -3.433594 4.398438 -3.976562 L 4.03125 -4.015625 C 3.984375 -3.46875 3.90625 -2.847656 3.800781 -2.144531 L 4.621094 -2.144531 C 4.386719 -1.070312 3.917969 -0.238281 3.207031 0.355469 L 3.511719 0.625 C 4.027344 0.171875 4.425781 -0.402344 4.699219 -1.113281 L 4.699219 0.0976562 C 4.699219 0.390625 4.851562 0.539062 5.15625 0.539062 Z M 3.316406 -1.632812 L 3.023438 -1.453125 C 3.121094 -1.269531 3.207031 -1.085938 3.292969 -0.910156 C 3.035156 -0.703125 2.78125 -0.519531 2.523438 -0.371094 L 2.523438 -1.886719 L 3.53125 -1.886719 L 3.53125 -4.753906 L 2.136719 -4.753906 L 2.136719 -0.347656 C 2.136719 -0.261719 2.109375 -0.203125 2.046875 -0.164062 L 2.164062 0.25 C 2.664062 -0.0117188 3.085938 -0.289062 3.441406 -0.574219 C 3.488281 -0.453125 3.539062 -0.335938 3.582031 -0.21875 L 3.890625 -0.441406 C 3.757812 -0.78125 3.570312 -1.179688 3.316406 -1.632812 Z "/>
</g>
</g>
<image id="source-1353" x="0" y="0" width="0" height="0"/>
<mask id="mask-0">
<use xlink:href="#source-1353"/>
</mask>
<image id="source-1396" x="0" y="0" width="0" height="0"/>
<mask id="mask-1">
<use xlink:href="#source-1396"/>
</mask>
</defs>
<g fill="rgb(93.72549%, 32.54902%, 31.372549%)" fill-opacity="1">
<use xlink:href="#glyph-0-0" x="30" y="26.304688"/>
<use xlink:href="#glyph-0-1" x="32" y="26.304688"/>
<use xlink:href="#glyph-0-1" x="34" y="26.304688"/>
</g>
<g fill="rgb(93.72549%, 32.54902%, 31.372549%)" fill-opacity="1">
<use xlink:href="#glyph-1-0" x="36" y="26.476562"/>
<use xlink:href="#glyph-1-1" x="42" y="26.476562"/>
<use xlink:href="#glyph-1-2" x="48" y="26.476562"/>
<use xlink:href="#glyph-1-3" x="54" y="26.476562"/>
<use xlink:href="#glyph-1-4" x="60" y="26.476562"/>
<use xlink:href="#glyph-1-5" x="66" y="26.476562"/>
</g>
<g fill="rgb(93.72549%, 32.54902%, 31.372549%)" fill-opacity="1">
<use xlink:href="#glyph-0-2" x="68" y="26.304688"/>
<use xlink:href="#glyph-0-3" x="72" y="26.304688"/>
<use xlink:href="#glyph-0-4" x="76" y="26.304688"/>
<use xlink:href="#glyph-0-5" x="81" y="26.304688"/>
<use xlink:href="#glyph-0-6" x="85" y="26.304688"/>
<use xlink:href="#glyph-0-1" x="89" y="26.304688"/>
</g>
<g fill="rgb(93.72549%, 32.54902%, 31.372549%)" fill-opacity="1">
<use xlink:href="#glyph-1-0" x="91" y="26.476562"/>
<use xlink:href="#glyph-1-6" x="97" y="26.476562"/>
<use xlink:href="#glyph-1-7" x="103" y="26.476562"/>
<use xlink:href="#glyph-1-5" x="109" y="26.476562"/>
</g>
<g fill="rgb(93.72549%, 32.54902%, 31.372549%)" fill-opacity="1">
<use xlink:href="#glyph-0-6" x="111" y="26.304688"/>
<use xlink:href="#glyph-0-7" x="115" y="26.304688"/>
<use xlink:href="#glyph-0-8" x="120" y="26.304688"/>
<use xlink:href="#glyph-0-9" x="123" y="26.304688"/>
<use xlink:href="#glyph-0-10" x="126" y="26.304688"/>
<use xlink:href="#glyph-0-10" x="129" y="26.304688"/>
<use xlink:href="#glyph-0-11" x="132" y="26.304688"/>
<use xlink:href="#glyph-0-12" x="133" y="26.304688"/>
<use xlink:href="#glyph-0-13" x="136" y="26.304688"/>
<use xlink:href="#glyph-0-1" x="139" y="26.304688"/>
<use xlink:href="#glyph-0-14" x="141" y="26.304688"/>
<use xlink:href="#glyph-0-15" x="146" y="26.304688"/>
<use xlink:href="#glyph-0-10" x="149" y="26.304688"/>
<use xlink:href="#glyph-0-9" x="152" y="26.304688"/>
<use xlink:href="#glyph-0-16" x="155" y="26.304688"/>
</g>
</svg>
