<?xml version="1.0" encoding="UTF-8"?>
<svg xmlns="http://www.w3.org/2000/svg" xmlns:xlink="http://www.w3.org/1999/xlink" width="1280" height="720" viewBox="0 0 1280 720">
<defs>
<g>
<g id="glyph-0-0">
<path d="M 7.542969 -6.417969 L 7.101562 -6 C 7.371094 -5.867188 7.640625 -5.734375 7.894531 -5.585938 C 7.492188 -5.339844 7.015625 -5.183594 6.453125 -5.109375 L 6.710938 -4.523438 C 7.417969 -4.609375 8.03125 -4.839844 8.542969 -5.21875 C 8.921875 -5 9.265625 -4.765625 9.558594 -4.535156 L 10 -4.988281 C 9.691406 -5.207031 9.363281 -5.414062 8.996094 -5.632812 C 9.300781 -5.976562 9.558594 -6.417969 9.765625 -6.953125 L 9.765625 -7.503906 L 7.933594 -7.503906 C 8.019531 -7.675781 8.089844 -7.847656 8.152344 -8.03125 L 7.527344 -8.105469 C 7.308594 -7.515625 6.882812 -7.015625 6.257812 -6.601562 L 6.648438 -6.097656 C 6.980469 -6.34375 7.261719 -6.601562 7.503906 -6.882812 L 9.03125 -6.882812 C 8.863281 -6.539062 8.640625 -6.234375 8.382812 -5.976562 C 8.117188 -6.125 7.835938 -6.269531 7.542969 -6.417969 Z M 1.015625 -1.957031 C 0.964844 -0.929688 0.84375 -0.0117188 0.648438 0.769531 L 1.394531 1.015625 C 1.566406 0.171875 1.675781 -0.792969 1.722656 -1.871094 Z M 2.957031 -2.054688 L 2.296875 -1.90625 C 2.394531 -1.171875 2.46875 -0.34375 2.542969 0.609375 L 3.289062 0.441406 C 3.191406 -0.453125 3.082031 -1.285156 2.957031 -2.054688 Z M 3.949219 -5.183594 L 3.289062 -4.976562 C 3.410156 -4.609375 3.519531 -4.230469 3.617188 -3.839844 C 3.007812 -3.679688 2.394531 -3.542969 1.761719 -3.433594 C 2.46875 -4.277344 3.375 -5.707031 4.449219 -7.726562 L 3.679688 -8.019531 C 3.410156 -7.492188 3.164062 -7.003906 2.921875 -6.539062 C 2.457031 -6.453125 1.980469 -6.378906 1.515625 -6.332031 C 2.054688 -7.164062 2.589844 -8.261719 3.128906 -9.644531 L 2.335938 -9.949219 C 1.917969 -8.679688 1.441406 -7.554688 0.890625 -6.5625 C 0.792969 -6.417969 0.671875 -6.320312 0.550781 -6.269531 L 0.757812 -5.535156 L 2.503906 -5.792969 C 1.894531 -4.742188 1.382812 -3.996094 0.953125 -3.542969 C 0.855469 -3.460938 0.734375 -3.386719 0.597656 -3.324219 L 0.808594 -2.589844 C 1.761719 -2.714844 2.75 -2.921875 3.789062 -3.214844 C 3.839844 -3.019531 3.875 -2.824219 3.921875 -2.601562 L 4.609375 -2.773438 C 4.414062 -3.679688 4.191406 -4.484375 3.949219 -5.183594 Z M 4.117188 -2.359375 L 3.496094 -2.140625 C 3.679688 -1.589844 3.851562 -0.941406 4.019531 -0.207031 L 4.695312 -0.511719 C 4.535156 -1.171875 4.339844 -1.785156 4.117188 -2.359375 Z M 5.171875 -8.972656 L 5.171875 -3.542969 L 11.109375 -3.542969 L 11.109375 -8.972656 L 7.945312 -8.972656 C 8.089844 -9.242188 8.214844 -9.535156 8.300781 -9.863281 L 7.429688 -9.984375 C 7.359375 -9.644531 7.234375 -9.300781 7.089844 -8.972656 Z M 10.328125 -4.253906 L 5.941406 -4.253906 L 5.941406 -8.273438 L 10.328125 -8.273438 Z M 5.230469 -2.324219 C 5.058594 -1.34375 4.816406 -0.464844 4.472656 0.34375 L 5.144531 0.769531 C 5.488281 -0.0625 5.769531 -1.039062 5.976562 -2.164062 Z M 10.644531 -2.601562 L 9.925781 -2.359375 C 10.339844 -1.578125 10.730469 -0.671875 11.085938 0.355469 L 11.769531 0.0507812 C 11.453125 -0.890625 11.085938 -1.773438 10.644531 -2.601562 Z M 8.847656 1.015625 C 9.242188 1.015625 9.535156 0.929688 9.703125 0.78125 C 9.914062 0.585938 10.058594 0.0742188 10.132812 -0.78125 L 9.386719 -1.027344 C 9.339844 -0.414062 9.265625 -0.0351562 9.15625 0.0976562 C 9.058594 0.195312 8.910156 0.246094 8.703125 0.246094 L 7.601562 0.246094 C 7.359375 0.246094 7.234375 0.132812 7.234375 -0.0742188 L 7.234375 -2.503906 L 6.441406 -2.503906 L 6.441406 0.0859375 C 6.441406 0.695312 6.734375 1.015625 7.347656 1.015625 Z M 8.117188 -3.300781 L 7.503906 -2.921875 C 8.003906 -2.222656 8.410156 -1.589844 8.703125 -1.027344 L 9.3125 -1.441406 C 9.03125 -1.980469 8.628906 -2.589844 8.117188 -3.300781 Z "/>
</g>
<g id="glyph-0-1">
<path d="M 1.050781 -1.871094 C 1.003906 -0.867188 0.855469 0.0117188 0.609375 0.792969 L 1.40625 1.027344 C 1.636719 0.21875 1.785156 -0.722656 1.84375 -1.773438 Z M 3.140625 -2.054688 L 2.421875 -1.894531 C 2.566406 -1.160156 2.6875 -0.328125 2.800781 0.625 L 3.617188 0.441406 C 3.472656 -0.464844 3.3125 -1.296875 3.140625 -2.054688 Z M 4.351562 -5.15625 L 3.65625 -4.9375 C 3.777344 -4.582031 3.898438 -4.21875 4.019531 -3.839844 C 3.3125 -3.65625 2.617188 -3.507812 1.929688 -3.386719 C 2.6875 -4.21875 3.640625 -5.660156 4.816406 -7.710938 L 3.996094 -8.003906 C 3.703125 -7.480469 3.433594 -6.980469 3.164062 -6.515625 C 2.652344 -6.429688 2.125 -6.355469 1.613281 -6.292969 C 2.222656 -7.148438 2.835938 -8.285156 3.433594 -9.691406 L 2.589844 -10.023438 C 2.125 -8.726562 1.589844 -7.566406 0.953125 -6.5625 C 0.84375 -6.40625 0.722656 -6.292969 0.585938 -6.234375 L 0.808594 -5.425781 C 1.441406 -5.523438 2.078125 -5.621094 2.6875 -5.71875 C 2.054688 -4.695312 1.515625 -3.960938 1.0625 -3.519531 C 0.953125 -3.421875 0.820312 -3.335938 0.660156 -3.277344 L 0.890625 -2.46875 C 1.945312 -2.601562 3.054688 -2.835938 4.203125 -3.179688 C 4.253906 -2.980469 4.300781 -2.773438 4.351562 -2.566406 L 5.085938 -2.761719 C 4.863281 -3.667969 4.621094 -4.460938 4.351562 -5.15625 Z M 4.558594 -2.371094 L 3.875 -2.152344 C 4.132812 -1.515625 4.363281 -0.792969 4.582031 0.0117188 L 5.316406 -0.304688 C 5.097656 -1.039062 4.851562 -1.734375 4.558594 -2.371094 Z M 4.9375 -8.410156 L 4.9375 -7.566406 L 7.894531 -7.566406 L 7.894531 -5.707031 L 5.269531 -5.707031 L 5.269531 -4.863281 L 11.414062 -4.863281 L 11.414062 -5.707031 L 8.761719 -5.707031 L 8.761719 -7.566406 L 11.683594 -7.566406 L 11.683594 -8.410156 L 8.761719 -8.410156 L 8.761719 -9.972656 L 7.894531 -9.972656 L 7.894531 -8.410156 Z M 11.023438 -3.679688 L 5.695312 -3.679688 L 5.695312 1.222656 L 6.550781 1.222656 L 6.550781 0.660156 L 10.167969 0.660156 L 10.167969 1.222656 L 11.023438 1.222656 Z M 6.550781 -0.171875 L 6.550781 -2.847656 L 10.167969 -2.847656 L 10.167969 -0.171875 Z "/>
</g>
</g>
</defs>
<g fill="rgb(30.980392%, 76.470588%, 96.862745%)" fill-opacity="1">
<use xlink:href="#glyph-0-0" x="30" y="32.956055"/>
<use xlink:href="#glyph-0-1" x="42" y="32.956055"/>
</g>
</svg>
