<?xml version="1.0" encoding="UTF-8"?>
<svg xmlns="http://www.w3.org/2000/svg" xmlns:xlink="http://www.w3.org/1999/xlink" width="854" height="480" viewBox="0 0 854 480">
<defs>
<g>
<g id="glyph-0-0">
<path d="M 1.125 0 L 5.703125 0 L 5.703125 -0.875 L 2.140625 -0.875 L 2.140625 -8.140625 L 1.125 -8.140625 Z "/>
</g>
<g id="glyph-0-1">
<path d="M 1.125 0 L 2.046875 0 L 2.046875 -4.515625 C 2.046875 -5.203125 1.984375 -6.203125 1.90625 -6.90625 L 1.953125 -6.90625 L 2.609375 -5.0625 L 4.15625 -0.828125 L 4.84375 -0.828125 L 6.375 -5.0625 L 7.03125 -6.90625 L 7.078125 -6.90625 C 7.015625 -6.203125 6.9375 -5.203125 6.9375 -4.515625 L 6.9375 0 L 7.90625 0 L 7.90625 -8.140625 L 6.671875 -8.140625 L 5.109375 -3.78125 C 4.921875 -3.234375 4.75 -2.65625 4.546875 -2.09375 L 4.5 -2.09375 C 4.296875 -2.65625 4.125 -3.234375 3.90625 -3.78125 L 2.359375 -8.140625 L 1.125 -8.140625 Z "/>
</g>
<g id="glyph-0-2">
</g>
<g id="glyph-0-3">
<path d="M 8.96875 -7.96875 C 8.953125 -7.046875 8.90625 -5.953125 8.640625 -4.796875 L 7.65625 -4.796875 C 7.859375 -5.75 8.09375 -6.96875 8.265625 -7.96875 Z M 6.921875 -8.703125 L 6.921875 -7.96875 L 7.59375 -7.96875 C 7.40625 -6.703125 7.09375 -5.078125 6.859375 -4.09375 L 8.46875 -4.09375 C 8.015625 -2.546875 7.1875 -0.9375 5.671875 0.46875 C 5.859375 0.5625 6.125 0.75 6.25 0.875 C 7.359375 -0.171875 8.125 -1.328125 8.625 -2.515625 L 8.625 -0.21875 C 8.625 0.28125 8.65625 0.4375 8.8125 0.578125 C 8.953125 0.71875 9.171875 0.75 9.375 0.75 C 9.484375 0.75 9.734375 0.75 9.859375 0.75 C 10.046875 0.75 10.234375 0.71875 10.359375 0.640625 C 10.5 0.546875 10.59375 0.40625 10.640625 0.1875 C 10.6875 -0.015625 10.734375 -0.640625 10.734375 -1.171875 C 10.546875 -1.25 10.328125 -1.359375 10.1875 -1.5 C 10.203125 -0.9375 10.171875 -0.453125 10.15625 -0.25 C 10.125 -0.125 10.09375 -0.03125 10.046875 0.015625 C 9.984375 0.0625 9.890625 0.0625 9.8125 0.0625 C 9.71875 0.0625 9.609375 0.0625 9.53125 0.0625 C 9.453125 0.0625 9.390625 0.046875 9.34375 0.015625 C 9.296875 -0.015625 9.28125 -0.09375 9.28125 -0.171875 L 9.28125 -3.5 L 8.984375 -3.5 L 9.171875 -4.09375 L 10.625 -4.09375 L 10.625 -4.796875 L 9.328125 -4.796875 C 9.5625 -5.953125 9.625 -7.046875 9.640625 -7.96875 L 10.546875 -7.96875 L 10.546875 -8.703125 Z M 5.96875 -6.0625 L 5.96875 -4.703125 L 4.59375 -4.703125 L 4.59375 -6.0625 Z M 5.96875 -6.734375 L 4.59375 -6.734375 L 4.59375 -8.015625 L 5.96875 -8.015625 Z M 3.9375 -8.703125 L 3.9375 -1.671875 C 3.9375 -1.171875 3.671875 -0.828125 3.515625 -0.6875 C 3.640625 -0.5625 3.859375 -0.265625 3.9375 -0.109375 C 4.09375 -0.28125 4.34375 -0.484375 6.140625 -1.53125 C 6.234375 -1.25 6.3125 -1.015625 6.359375 -0.796875 L 7.015625 -1.0625 C 6.875 -1.703125 6.4375 -2.75 6.015625 -3.5625 L 5.40625 -3.328125 C 5.59375 -2.96875 5.78125 -2.546875 5.9375 -2.125 L 4.59375 -1.40625 L 4.59375 -4.015625 L 6.65625 -4.015625 L 6.65625 -8.703125 Z M 0.828125 -8.625 L 0.828125 -0.09375 L 1.484375 -0.09375 L 1.484375 -1.34375 L 3.25 -1.34375 L 3.25 -8.625 Z M 1.484375 -7.84375 L 2.59375 -7.84375 L 2.59375 -2.109375 L 1.484375 -2.109375 Z "/>
</g>
<g id="glyph-0-4">
<path d="M 3.421875 -3.9375 L 3.421875 -0.015625 L 4.203125 -0.015625 L 4.203125 -0.671875 L 7.59375 -0.671875 L 7.59375 -3.9375 Z M 4.203125 -3.234375 L 6.8125 -3.234375 L 6.8125 -1.390625 L 4.203125 -1.390625 Z M 4.25 -6.625 L 4.25 -5.609375 L 1.84375 -5.609375 L 1.84375 -6.625 Z M 4.25 -7.25 L 1.84375 -7.25 L 1.84375 -8.1875 L 4.25 -8.1875 Z M 9.3125 -6.625 L 9.3125 -5.59375 L 6.828125 -5.59375 L 6.828125 -6.625 Z M 9.3125 -7.25 L 6.828125 -7.25 L 6.828125 -8.1875 L 9.3125 -8.1875 Z M 9.75 -8.859375 L 6.046875 -8.859375 L 6.046875 -4.9375 L 9.3125 -4.9375 L 9.3125 -0.234375 C 9.3125 -0.03125 9.25 0.03125 9.03125 0.046875 C 8.828125 0.046875 8.09375 0.0625 7.359375 0.03125 C 7.484375 0.25 7.625 0.65625 7.65625 0.890625 C 8.625 0.890625 9.28125 0.875 9.65625 0.734375 C 10.015625 0.59375 10.15625 0.328125 10.15625 -0.234375 L 10.15625 -8.859375 Z M 1.015625 -8.859375 L 1.015625 0.90625 L 1.84375 0.90625 L 1.84375 -4.9375 L 5.03125 -4.9375 L 5.03125 -8.859375 Z "/>
</g>
<g id="glyph-0-5">
<path d="M 1.921875 -6.828125 L 4.09375 -6.828125 L 4.09375 -5.984375 L 1.921875 -5.984375 Z M 1.921875 -8.25 L 4.09375 -8.25 L 4.09375 -7.421875 L 1.921875 -7.421875 Z M 1.171875 -8.859375 L 1.171875 -5.375 L 4.859375 -5.375 L 4.859375 -8.859375 Z M 6.640625 -5.265625 L 9.28125 -5.265625 L 9.28125 -4.4375 L 6.640625 -4.4375 Z M 6.640625 -3.84375 L 9.28125 -3.84375 L 9.28125 -3 L 6.640625 -3 Z M 6.640625 -6.6875 L 9.28125 -6.6875 L 9.28125 -5.859375 L 6.640625 -5.859375 Z M 6.796875 -2.1875 C 6.375 -1.671875 5.671875 -1.171875 4.96875 -0.84375 C 5.125 -0.734375 5.40625 -0.46875 5.515625 -0.328125 C 6.21875 -0.71875 7.015625 -1.359375 7.515625 -1.984375 Z M 8.359375 -1.875 C 8.96875 -1.46875 9.703125 -0.828125 10.0625 -0.375 L 10.671875 -0.765625 C 10.3125 -1.203125 9.5625 -1.8125 8.9375 -2.203125 Z M 1.28125 -3.296875 C 1.234375 -1.921875 1.046875 -0.4375 0.375 0.375 C 0.5625 0.5 0.78125 0.75 0.90625 0.921875 C 1.328125 0.40625 1.59375 -0.3125 1.75 -1.109375 C 2.75 0.390625 4.40625 0.640625 6.828125 0.640625 L 10.4375 0.640625 C 10.46875 0.4375 10.609375 0.09375 10.734375 -0.0625 C 10.078125 -0.046875 7.328125 -0.046875 6.828125 -0.046875 C 5.46875 -0.0625 4.328125 -0.125 3.4375 -0.5 L 3.4375 -2.0625 L 5.328125 -2.0625 L 5.328125 -2.703125 L 3.4375 -2.703125 L 3.4375 -3.90625 L 5.515625 -3.90625 L 5.515625 -4.5625 L 0.515625 -4.5625 L 0.515625 -3.90625 L 2.71875 -3.90625 L 2.71875 -0.921875 C 2.390625 -1.203125 2.09375 -1.546875 1.890625 -2 C 1.9375 -2.4375 1.96875 -2.859375 1.984375 -3.296875 Z M 5.875 -7.296875 L 5.875 -2.375 L 10.0625 -2.375 L 10.0625 -7.296875 L 7.984375 -7.296875 L 8.328125 -8.15625 L 10.515625 -8.15625 L 10.515625 -8.78125 L 5.453125 -8.78125 L 5.453125 -8.15625 L 7.546875 -8.15625 C 7.46875 -7.875 7.375 -7.5625 7.28125 -7.296875 Z "/>
</g>
</g>
</defs>
<g fill="rgb(30.980392%, 76.470588%, 96.862745%)" fill-opacity="1">
<use xlink:href="#glyph-0-0" x="30" y="32.887695"/>
<use xlink:href="#glyph-0-0" x="36" y="32.887695"/>
<use xlink:href="#glyph-0-1" x="42" y="32.887695"/>
<use xlink:href="#glyph-0-2" x="51" y="32.887695"/>
</g>
<g fill="rgb(30.980392%, 76.470588%, 96.862745%)" fill-opacity="1">
<use xlink:href="#glyph-0-3" x="53" y="32.887695"/>
<use xlink:href="#glyph-0-4" x="64" y="32.887695"/>
<use xlink:href="#glyph-0-5" x="75" y="32.887695"/>
</g>
</svg>
