<?xml version="1.0" encoding="UTF-8"?>
<svg xmlns="http://www.w3.org/2000/svg" xmlns:xlink="http://www.w3.org/1999/xlink" width="854" height="480" viewBox="0 0 854 480">
<defs>
<g>
<g id="glyph-0-0">
<path d="M 2.1875 -1.6875 C 2.113281 -1.75 2.035156 -1.789062 1.953125 -1.8125 C 1.878906 -1.84375 1.800781 -1.859375 1.71875 -1.859375 C 1.5 -1.859375 1.332031 -1.789062 1.21875 -1.65625 C 1.101562 -1.519531 1.046875 -1.320312 1.046875 -1.0625 L 1.046875 0 L 0.6875 0 L 0.6875 -2.125 L 1.046875 -2.125 L 1.046875 -1.71875 C 1.097656 -1.863281 1.179688 -1.972656 1.296875 -2.046875 C 1.421875 -2.128906 1.566406 -2.171875 1.734375 -2.171875 C 1.828125 -2.171875 1.910156 -2.160156 1.984375 -2.140625 C 2.054688 -2.117188 2.125 -2.085938 2.1875 -2.046875 Z "/>
</g>
<g id="glyph-0-1">
<path d="M 2.109375 -1.15625 L 2.109375 -0.984375 L 0.59375 -0.984375 L 0.59375 -0.96875 C 0.59375 -0.738281 0.65625 -0.554688 0.78125 -0.421875 C 0.90625 -0.296875 1.078125 -0.234375 1.296875 -0.234375 C 1.398438 -0.234375 1.515625 -0.25 1.640625 -0.28125 C 1.765625 -0.320312 1.894531 -0.378906 2.03125 -0.453125 L 2.03125 -0.109375 C 1.894531 -0.0546875 1.765625 -0.015625 1.640625 0.015625 C 1.515625 0.046875 1.394531 0.0625 1.28125 0.0625 C 0.957031 0.0625 0.703125 -0.0351562 0.515625 -0.234375 C 0.328125 -0.441406 0.234375 -0.71875 0.234375 -1.0625 C 0.234375 -1.40625 0.320312 -1.675781 0.5 -1.875 C 0.6875 -2.070312 0.929688 -2.171875 1.234375 -2.171875 C 1.503906 -2.171875 1.71875 -2.078125 1.875 -1.890625 C 2.03125 -1.710938 2.109375 -1.46875 2.109375 -1.15625 Z M 1.765625 -1.25 C 1.753906 -1.457031 1.703125 -1.613281 1.609375 -1.71875 C 1.523438 -1.820312 1.394531 -1.875 1.21875 -1.875 C 1.050781 -1.875 0.910156 -1.816406 0.796875 -1.703125 C 0.691406 -1.597656 0.628906 -1.445312 0.609375 -1.25 Z "/>
</g>
<g id="glyph-0-2">
<path d="M 1.84375 -2.046875 L 1.84375 -1.71875 C 1.75 -1.769531 1.648438 -1.8125 1.546875 -1.84375 C 1.441406 -1.875 1.335938 -1.890625 1.234375 -1.890625 C 1.078125 -1.890625 0.957031 -1.863281 0.875 -1.8125 C 0.800781 -1.757812 0.765625 -1.679688 0.765625 -1.578125 C 0.765625 -1.484375 0.789062 -1.410156 0.84375 -1.359375 C 0.90625 -1.316406 1.050781 -1.269531 1.28125 -1.21875 L 1.421875 -1.203125 C 1.597656 -1.171875 1.726562 -1.101562 1.8125 -1 C 1.90625 -0.90625 1.953125 -0.773438 1.953125 -0.609375 C 1.953125 -0.398438 1.878906 -0.234375 1.734375 -0.109375 C 1.585938 0.00390625 1.378906 0.0625 1.109375 0.0625 C 1.003906 0.0625 0.894531 0.046875 0.78125 0.015625 C 0.664062 -0.00390625 0.539062 -0.0351562 0.40625 -0.078125 L 0.40625 -0.4375 C 0.53125 -0.375 0.648438 -0.320312 0.765625 -0.28125 C 0.890625 -0.25 1.003906 -0.234375 1.109375 -0.234375 C 1.265625 -0.234375 1.382812 -0.265625 1.46875 -0.328125 C 1.5625 -0.390625 1.609375 -0.476562 1.609375 -0.59375 C 1.609375 -0.757812 1.453125 -0.875 1.140625 -0.9375 L 1.125 -0.9375 L 0.984375 -0.96875 C 0.785156 -1 0.640625 -1.0625 0.546875 -1.15625 C 0.453125 -1.25 0.40625 -1.378906 0.40625 -1.546875 C 0.40625 -1.742188 0.472656 -1.894531 0.609375 -2 C 0.753906 -2.113281 0.953125 -2.171875 1.203125 -2.171875 C 1.316406 -2.171875 1.425781 -2.160156 1.53125 -2.140625 C 1.644531 -2.117188 1.75 -2.085938 1.84375 -2.046875 Z "/>
</g>
<g id="glyph-0-3">
<path d="M 0.71875 -0.265625 L 0.71875 0.8125 L 0.359375 0.8125 L 0.359375 -2.125 L 0.71875 -2.125 L 0.71875 -1.859375 C 0.769531 -1.960938 0.84375 -2.039062 0.9375 -2.09375 C 1.039062 -2.144531 1.15625 -2.171875 1.28125 -2.171875 C 1.539062 -2.171875 1.742188 -2.070312 1.890625 -1.875 C 2.035156 -1.675781 2.109375 -1.398438 2.109375 -1.046875 C 2.109375 -0.703125 2.035156 -0.429688 1.890625 -0.234375 C 1.742188 -0.0351562 1.539062 0.0625 1.28125 0.0625 C 1.15625 0.0625 1.039062 0.0351562 0.9375 -0.015625 C 0.84375 -0.078125 0.769531 -0.160156 0.71875 -0.265625 Z M 1.734375 -1.0625 C 1.734375 -1.332031 1.691406 -1.535156 1.609375 -1.671875 C 1.523438 -1.804688 1.398438 -1.875 1.234375 -1.875 C 1.054688 -1.875 0.925781 -1.804688 0.84375 -1.671875 C 0.757812 -1.535156 0.71875 -1.332031 0.71875 -1.0625 C 0.71875 -0.789062 0.757812 -0.582031 0.84375 -0.4375 C 0.925781 -0.300781 1.054688 -0.234375 1.234375 -0.234375 C 1.398438 -0.234375 1.523438 -0.300781 1.609375 -0.4375 C 1.691406 -0.582031 1.734375 -0.789062 1.734375 -1.0625 Z "/>
</g>
<g id="glyph-0-4">
<path d="M 1.171875 -1.875 C 0.992188 -1.875 0.859375 -1.804688 0.765625 -1.671875 C 0.671875 -1.535156 0.625 -1.332031 0.625 -1.0625 C 0.625 -0.789062 0.671875 -0.582031 0.765625 -0.4375 C 0.859375 -0.300781 0.992188 -0.234375 1.171875 -0.234375 C 1.347656 -0.234375 1.484375 -0.300781 1.578125 -0.4375 C 1.671875 -0.582031 1.71875 -0.789062 1.71875 -1.0625 C 1.71875 -1.332031 1.671875 -1.535156 1.578125 -1.671875 C 1.484375 -1.804688 1.347656 -1.875 1.171875 -1.875 Z M 1.171875 -2.171875 C 1.460938 -2.171875 1.6875 -2.078125 1.84375 -1.890625 C 2 -1.703125 2.078125 -1.425781 2.078125 -1.0625 C 2.078125 -0.695312 2 -0.414062 1.84375 -0.21875 C 1.6875 -0.03125 1.460938 0.0625 1.171875 0.0625 C 0.878906 0.0625 0.65625 -0.03125 0.5 -0.21875 C 0.34375 -0.414062 0.265625 -0.695312 0.265625 -1.0625 C 0.265625 -1.425781 0.34375 -1.703125 0.5 -1.890625 C 0.65625 -2.078125 0.878906 -2.171875 1.171875 -2.171875 Z "/>
</g>
<g id="glyph-0-5">
<path d="M 2 -1.3125 L 2 0 L 1.640625 0 L 1.640625 -1.3125 C 1.640625 -1.507812 1.601562 -1.648438 1.53125 -1.734375 C 1.46875 -1.828125 1.367188 -1.875 1.234375 -1.875 C 1.066406 -1.875 0.9375 -1.816406 0.84375 -1.703125 C 0.757812 -1.585938 0.71875 -1.421875 0.71875 -1.203125 L 0.71875 0 L 0.375 0 L 0.375 -2.125 L 0.71875 -2.125 L 0.71875 -1.8125 C 0.78125 -1.925781 0.863281 -2.015625 0.96875 -2.078125 C 1.070312 -2.140625 1.195312 -2.171875 1.34375 -2.171875 C 1.5625 -2.171875 1.722656 -2.097656 1.828125 -1.953125 C 1.941406 -1.816406 2 -1.601562 2 -1.3125 Z "/>
</g>
<g id="glyph-0-6">
</g>
<g id="glyph-0-7">
<path d="M 0.171875 -1 L 2.171875 -1 L 2.171875 -0.671875 L 0.171875 -0.671875 Z M 0.171875 -1.765625 L 2.171875 -1.765625 L 2.171875 -1.4375 L 0.171875 -1.4375 Z "/>
</g>
<g id="glyph-0-8">
<path d="M 1.21875 -0.765625 C 1.21875 -0.609375 1.242188 -0.488281 1.296875 -0.40625 C 1.359375 -0.332031 1.445312 -0.296875 1.5625 -0.296875 L 1.96875 -0.296875 L 1.96875 0 L 1.515625 0 C 1.304688 0 1.144531 -0.0664062 1.03125 -0.203125 C 0.914062 -0.335938 0.859375 -0.523438 0.859375 -0.765625 L 0.859375 -2.703125 L 0.296875 -2.703125 L 0.296875 -2.984375 L 1.21875 -2.984375 Z "/>
</g>
<g id="glyph-0-9">
<path d="M 1.328125 -1.0625 L 1.21875 -1.0625 C 1.007812 -1.0625 0.851562 -1.023438 0.75 -0.953125 C 0.65625 -0.890625 0.609375 -0.785156 0.609375 -0.640625 C 0.609375 -0.515625 0.644531 -0.414062 0.71875 -0.34375 C 0.789062 -0.269531 0.898438 -0.234375 1.046875 -0.234375 C 1.234375 -0.234375 1.378906 -0.300781 1.484375 -0.4375 C 1.597656 -0.570312 1.65625 -0.753906 1.65625 -0.984375 L 1.65625 -1.0625 Z M 2.015625 -1.21875 L 2.015625 0 L 1.65625 0 L 1.65625 -0.3125 C 1.582031 -0.1875 1.488281 -0.09375 1.375 -0.03125 C 1.257812 0.03125 1.125 0.0625 0.96875 0.0625 C 0.75 0.0625 0.570312 0 0.4375 -0.125 C 0.3125 -0.25 0.25 -0.414062 0.25 -0.625 C 0.25 -0.851562 0.328125 -1.03125 0.484375 -1.15625 C 0.648438 -1.28125 0.882812 -1.34375 1.1875 -1.34375 L 1.65625 -1.34375 L 1.65625 -1.390625 C 1.65625 -1.566406 1.613281 -1.691406 1.53125 -1.765625 C 1.445312 -1.835938 1.3125 -1.875 1.125 -1.875 C 1.007812 -1.875 0.890625 -1.859375 0.765625 -1.828125 C 0.640625 -1.796875 0.519531 -1.75 0.40625 -1.6875 L 0.40625 -2.03125 C 0.539062 -2.082031 0.664062 -2.117188 0.78125 -2.140625 C 0.894531 -2.160156 1.007812 -2.171875 1.125 -2.171875 C 1.300781 -2.171875 1.453125 -2.144531 1.578125 -2.09375 C 1.703125 -2.039062 1.800781 -1.96875 1.875 -1.875 C 1.925781 -1.800781 1.960938 -1.71875 1.984375 -1.625 C 2.003906 -1.539062 2.015625 -1.40625 2.015625 -1.21875 Z "/>
</g>
<g id="glyph-0-10">
<path d="M 1.28125 -1.90625 C 1.320312 -2 1.375 -2.066406 1.4375 -2.109375 C 1.507812 -2.148438 1.59375 -2.171875 1.6875 -2.171875 C 1.863281 -2.171875 1.984375 -2.101562 2.046875 -1.96875 C 2.117188 -1.84375 2.15625 -1.597656 2.15625 -1.234375 L 2.15625 0 L 1.84375 0 L 1.84375 -1.21875 C 1.84375 -1.519531 1.820312 -1.707031 1.78125 -1.78125 C 1.75 -1.851562 1.691406 -1.890625 1.609375 -1.890625 C 1.503906 -1.890625 1.429688 -1.847656 1.390625 -1.765625 C 1.359375 -1.691406 1.34375 -1.507812 1.34375 -1.21875 L 1.34375 0 L 1.015625 0 L 1.015625 -1.21875 C 1.015625 -1.519531 0.992188 -1.707031 0.953125 -1.78125 C 0.921875 -1.851562 0.859375 -1.890625 0.765625 -1.890625 C 0.671875 -1.890625 0.609375 -1.847656 0.578125 -1.765625 C 0.546875 -1.691406 0.53125 -1.507812 0.53125 -1.21875 L 0.53125 0 L 0.203125 0 L 0.203125 -2.125 L 0.53125 -2.125 L 0.53125 -1.953125 C 0.570312 -2.023438 0.625 -2.078125 0.6875 -2.109375 C 0.75 -2.148438 0.816406 -2.171875 0.890625 -2.171875 C 0.992188 -2.171875 1.078125 -2.148438 1.140625 -2.109375 C 1.203125 -2.066406 1.25 -2 1.28125 -1.90625 Z "/>
</g>
<g id="glyph-0-11">
<path d="M 0.921875 -0.578125 L 1.40625 -0.578125 L 1.40625 0 L 0.921875 0 Z "/>
</g>
<g id="glyph-0-12">
<path d="M 1.75 -1.0625 C 1.75 -1.332031 1.703125 -1.535156 1.609375 -1.671875 C 1.523438 -1.804688 1.398438 -1.875 1.234375 -1.875 C 1.066406 -1.875 0.9375 -1.804688 0.84375 -1.671875 C 0.757812 -1.535156 0.71875 -1.332031 0.71875 -1.0625 C 0.71875 -0.789062 0.757812 -0.582031 0.84375 -0.4375 C 0.9375 -0.300781 1.066406 -0.234375 1.234375 -0.234375 C 1.398438 -0.234375 1.523438 -0.300781 1.609375 -0.4375 C 1.703125 -0.582031 1.75 -0.789062 1.75 -1.0625 Z M 0.71875 -1.859375 C 0.769531 -1.960938 0.84375 -2.039062 0.9375 -2.09375 C 1.039062 -2.144531 1.15625 -2.171875 1.28125 -2.171875 C 1.539062 -2.171875 1.742188 -2.070312 1.890625 -1.875 C 2.035156 -1.6875 2.109375 -1.414062 2.109375 -1.0625 C 2.109375 -0.71875 2.035156 -0.441406 1.890625 -0.234375 C 1.742188 -0.0351562 1.539062 0.0625 1.28125 0.0625 C 1.15625 0.0625 1.039062 0.0351562 0.9375 -0.015625 C 0.84375 -0.078125 0.769531 -0.160156 0.71875 -0.265625 L 0.71875 0 L 0.359375 0 L 0.359375 -2.953125 L 0.71875 -2.953125 Z "/>
</g>
<g id="glyph-0-13">
<path d="M 1.625 -1.859375 L 1.625 -2.953125 L 1.984375 -2.953125 L 1.984375 0 L 1.625 0 L 1.625 -0.265625 C 1.570312 -0.160156 1.492188 -0.078125 1.390625 -0.015625 C 1.296875 0.0351562 1.1875 0.0625 1.0625 0.0625 C 0.800781 0.0625 0.597656 -0.0351562 0.453125 -0.234375 C 0.304688 -0.441406 0.234375 -0.71875 0.234375 -1.0625 C 0.234375 -1.414062 0.304688 -1.6875 0.453125 -1.875 C 0.597656 -2.070312 0.800781 -2.171875 1.0625 -2.171875 C 1.1875 -2.171875 1.296875 -2.144531 1.390625 -2.09375 C 1.492188 -2.039062 1.570312 -1.960938 1.625 -1.859375 Z M 0.609375 -1.0625 C 0.609375 -0.789062 0.648438 -0.582031 0.734375 -0.4375 C 0.816406 -0.300781 0.941406 -0.234375 1.109375 -0.234375 C 1.273438 -0.234375 1.398438 -0.300781 1.484375 -0.4375 C 1.578125 -0.582031 1.625 -0.789062 1.625 -1.0625 C 1.625 -1.332031 1.578125 -1.535156 1.484375 -1.671875 C 1.398438 -1.804688 1.273438 -1.875 1.109375 -1.875 C 0.941406 -1.875 0.816406 -1.804688 0.734375 -1.671875 C 0.648438 -1.535156 0.609375 -1.332031 0.609375 -1.0625 Z "/>
</g>
<g id="glyph-0-14">
<path d="M 1.6875 -2.953125 C 1.507812 -2.660156 1.378906 -2.367188 1.296875 -2.078125 C 1.222656 -1.796875 1.1875 -1.507812 1.1875 -1.21875 C 1.1875 -0.925781 1.222656 -0.632812 1.296875 -0.34375 C 1.378906 -0.0625 1.507812 0.222656 1.6875 0.515625 L 1.375 0.515625 C 1.1875 0.210938 1.046875 -0.078125 0.953125 -0.359375 C 0.859375 -0.648438 0.8125 -0.9375 0.8125 -1.21875 C 0.8125 -1.5 0.859375 -1.78125 0.953125 -2.0625 C 1.046875 -2.351562 1.1875 -2.648438 1.375 -2.953125 Z "/>
</g>
<g id="glyph-0-15">
<path d="M 1.703125 -2.84375 L 1.703125 -1.78125 L 1.375 -1.78125 L 1.375 -2.84375 Z M 0.96875 -2.84375 L 0.96875 -1.78125 L 0.640625 -1.78125 L 0.640625 -2.84375 Z "/>
</g>
<g id="glyph-0-16">
<path d="M 2.125 -2.125 L 1.359375 -1.109375 L 2.203125 0 L 1.796875 0 L 1.171875 -0.859375 L 0.546875 0 L 0.140625 0 L 0.984375 -1.109375 L 0.21875 -2.125 L 0.609375 -2.125 L 1.171875 -1.359375 L 1.734375 -2.125 Z "/>
</g>
<g id="glyph-0-17">
<path d="M 0.484375 -2.125 L 1.375 -2.125 L 1.375 -0.265625 L 2.078125 -0.265625 L 2.078125 0 L 0.34375 0 L 0.34375 -0.265625 L 1.03125 -0.265625 L 1.03125 -1.859375 L 0.484375 -1.859375 Z M 1.03125 -2.953125 L 1.375 -2.953125 L 1.375 -2.515625 L 1.03125 -2.515625 Z "/>
</g>
<g id="glyph-0-18">
<path d="M 0.671875 -1.21875 L 1.671875 -1.21875 L 1.671875 -0.90625 L 0.671875 -0.90625 Z "/>
</g>
<g id="glyph-0-19">
<path d="M 1.625 -1.078125 C 1.625 -1.335938 1.582031 -1.535156 1.5 -1.671875 C 1.414062 -1.804688 1.289062 -1.875 1.125 -1.875 C 0.957031 -1.875 0.828125 -1.804688 0.734375 -1.671875 C 0.648438 -1.535156 0.609375 -1.335938 0.609375 -1.078125 C 0.609375 -0.816406 0.648438 -0.617188 0.734375 -0.484375 C 0.828125 -0.347656 0.957031 -0.28125 1.125 -0.28125 C 1.289062 -0.28125 1.414062 -0.347656 1.5 -0.484375 C 1.582031 -0.617188 1.625 -0.816406 1.625 -1.078125 Z M 1.984375 -0.140625 C 1.984375 0.179688 1.90625 0.421875 1.75 0.578125 C 1.601562 0.742188 1.382812 0.828125 1.09375 0.828125 C 0.988281 0.828125 0.882812 0.816406 0.78125 0.796875 C 0.675781 0.785156 0.570312 0.765625 0.46875 0.734375 L 0.46875 0.390625 C 0.59375 0.441406 0.707031 0.484375 0.8125 0.515625 C 0.914062 0.546875 1.007812 0.5625 1.09375 0.5625 C 1.28125 0.5625 1.414062 0.507812 1.5 0.40625 C 1.582031 0.300781 1.625 0.140625 1.625 -0.078125 L 1.625 -0.34375 C 1.570312 -0.21875 1.492188 -0.125 1.390625 -0.0625 C 1.296875 -0.0078125 1.179688 0.015625 1.046875 0.015625 C 0.796875 0.015625 0.597656 -0.0820312 0.453125 -0.28125 C 0.304688 -0.476562 0.234375 -0.742188 0.234375 -1.078125 C 0.234375 -1.410156 0.304688 -1.675781 0.453125 -1.875 C 0.597656 -2.070312 0.796875 -2.171875 1.046875 -2.171875 C 1.179688 -2.171875 1.296875 -2.144531 1.390625 -2.09375 C 1.492188 -2.039062 1.570312 -1.957031 1.625 -1.84375 L 1.625 -2.125 L 1.984375 -2.125 Z "/>
</g>
<g id="glyph-0-20">
<path d="M 0.953125 -0.578125 L 1.4375 -0.578125 L 1.4375 -0.1875 L 1.0625 0.546875 L 0.765625 0.546875 L 0.953125 -0.1875 Z "/>
</g>
<g id="glyph-0-21">
<path d="M 0.375 -0.8125 L 0.375 -2.125 L 0.71875 -2.125 L 0.71875 -0.8125 C 0.71875 -0.613281 0.75 -0.46875 0.8125 -0.375 C 0.882812 -0.289062 0.992188 -0.25 1.140625 -0.25 C 1.304688 -0.25 1.429688 -0.304688 1.515625 -0.421875 C 1.597656 -0.535156 1.640625 -0.703125 1.640625 -0.921875 L 1.640625 -2.125 L 2 -2.125 L 2 0 L 1.640625 0 L 1.640625 -0.3125 C 1.578125 -0.195312 1.492188 -0.101562 1.390625 -0.03125 C 1.285156 0.03125 1.160156 0.0625 1.015625 0.0625 C 0.796875 0.0625 0.632812 -0.0078125 0.53125 -0.15625 C 0.425781 -0.300781 0.375 -0.519531 0.375 -0.8125 Z "/>
</g>
<g id="glyph-0-22">
<path d="M 1.171875 -2.734375 L 1.171875 -2.125 L 1.953125 -2.125 L 1.953125 -1.859375 L 1.171875 -1.859375 L 1.171875 -0.703125 C 1.171875 -0.546875 1.195312 -0.4375 1.25 -0.375 C 1.3125 -0.3125 1.414062 -0.28125 1.5625 -0.28125 L 1.953125 -0.28125 L 1.953125 0 L 1.53125 0 C 1.269531 0 1.082031 -0.0507812 0.96875 -0.15625 C 0.863281 -0.257812 0.8125 -0.441406 0.8125 -0.703125 L 0.8125 -1.859375 L 0.25 -1.859375 L 0.25 -2.125 L 0.8125 -2.125 L 0.8125 -2.734375 Z "/>
</g>
<g id="glyph-0-23">
<path d="M 0.765625 -2.515625 L 0.765625 -1.453125 L 1.203125 -1.453125 C 1.378906 -1.453125 1.515625 -1.5 1.609375 -1.59375 C 1.710938 -1.6875 1.765625 -1.816406 1.765625 -1.984375 C 1.765625 -2.148438 1.710938 -2.28125 1.609375 -2.375 C 1.515625 -2.46875 1.378906 -2.515625 1.203125 -2.515625 Z M 0.375 -2.84375 L 1.203125 -2.84375 C 1.515625 -2.84375 1.753906 -2.769531 1.921875 -2.625 C 2.085938 -2.476562 2.171875 -2.265625 2.171875 -1.984375 C 2.171875 -1.703125 2.085938 -1.488281 1.921875 -1.34375 C 1.753906 -1.207031 1.515625 -1.140625 1.203125 -1.140625 L 0.765625 -1.140625 L 0.765625 0 L 0.375 0 Z "/>
</g>
<g id="glyph-0-24">
<path d="M 0.1875 -2.125 L 0.546875 -2.125 L 1.171875 -0.34375 L 1.796875 -2.125 L 2.15625 -2.125 L 1.390625 0 L 0.953125 0 Z "/>
</g>
<g id="glyph-0-25">
<path d="M 0.09375 -2.84375 L 2.25 -2.84375 L 2.25 -2.515625 L 1.359375 -2.515625 L 1.359375 0 L 0.984375 0 L 0.984375 -2.515625 L 0.09375 -2.515625 Z "/>
</g>
<g id="glyph-0-26">
<path d="M 0 -2.84375 L 0.375 -2.84375 L 0.640625 -0.53125 L 0.96875 -2.0625 L 1.375 -2.0625 L 1.703125 -0.53125 L 1.96875 -2.84375 L 2.34375 -2.84375 L 1.921875 0 L 1.5625 0 L 1.171875 -1.6875 L 0.78125 0 L 0.421875 0 Z "/>
</g>
<g id="glyph-0-27">
<path d="M 0.65625 -2.953125 L 0.96875 -2.953125 C 1.15625 -2.648438 1.296875 -2.351562 1.390625 -2.0625 C 1.484375 -1.78125 1.53125 -1.5 1.53125 -1.21875 C 1.53125 -0.9375 1.484375 -0.648438 1.390625 -0.359375 C 1.296875 -0.078125 1.15625 0.210938 0.96875 0.515625 L 0.65625 0.515625 C 0.820312 0.222656 0.945312 -0.0664062 1.03125 -0.359375 C 1.113281 -0.648438 1.15625 -0.9375 1.15625 -1.21875 C 1.15625 -1.507812 1.113281 -1.796875 1.03125 -2.078125 C 0.945312 -2.367188 0.820312 -2.660156 0.65625 -2.953125 Z "/>
</g>
<g id="glyph-0-28">
<path d="M 0.875 -2.953125 L 1.6875 -2.953125 L 1.6875 -2.6875 L 1.234375 -2.6875 L 1.234375 0.234375 L 1.6875 0.234375 L 1.6875 0.515625 L 0.875 0.515625 Z "/>
</g>
<g id="glyph-0-29">
<path d="M 1.46875 -2.953125 L 1.46875 0.515625 L 0.65625 0.515625 L 0.65625 0.234375 L 1.109375 0.234375 L 1.109375 -2.6875 L 0.65625 -2.6875 L 0.65625 -2.953125 Z "/>
</g>
<g id="glyph-0-30">
<path d="M 0.921875 -1.421875 C 0.921875 -1.492188 0.941406 -1.554688 0.984375 -1.609375 C 1.035156 -1.660156 1.097656 -1.6875 1.171875 -1.6875 C 1.234375 -1.6875 1.289062 -1.660156 1.34375 -1.609375 C 1.394531 -1.554688 1.421875 -1.492188 1.421875 -1.421875 C 1.421875 -1.347656 1.394531 -1.285156 1.34375 -1.234375 C 1.300781 -1.191406 1.242188 -1.171875 1.171875 -1.171875 C 1.097656 -1.171875 1.035156 -1.191406 0.984375 -1.234375 C 0.941406 -1.285156 0.921875 -1.347656 0.921875 -1.421875 Z M 1.171875 -2.578125 C 0.992188 -2.578125 0.859375 -2.476562 0.765625 -2.28125 C 0.679688 -2.09375 0.640625 -1.804688 0.640625 -1.421875 C 0.640625 -1.023438 0.679688 -0.726562 0.765625 -0.53125 C 0.859375 -0.34375 0.992188 -0.25 1.171875 -0.25 C 1.347656 -0.25 1.476562 -0.34375 1.5625 -0.53125 C 1.65625 -0.726562 1.703125 -1.023438 1.703125 -1.421875 C 1.703125 -1.804688 1.65625 -2.09375 1.5625 -2.28125 C 1.476562 -2.476562 1.347656 -2.578125 1.171875 -2.578125 Z M 1.171875 -2.890625 C 1.472656 -2.890625 1.703125 -2.765625 1.859375 -2.515625 C 2.015625 -2.265625 2.09375 -1.898438 2.09375 -1.421875 C 2.09375 -0.929688 2.015625 -0.5625 1.859375 -0.3125 C 1.703125 -0.0625 1.472656 0.0625 1.171875 0.0625 C 0.867188 0.0625 0.640625 -0.0625 0.484375 -0.3125 C 0.328125 -0.5625 0.25 -0.929688 0.25 -1.421875 C 0.25 -1.898438 0.328125 -2.265625 0.484375 -2.515625 C 0.640625 -2.765625 0.867188 -2.890625 1.171875 -2.890625 Z "/>
</g>
<g id="glyph-0-31">
<path d="M 1.296875 -2.796875 L 1.109375 -2 L 1.5625 -2 L 1.765625 -2.796875 L 2.078125 -2.796875 L 1.875 -2 L 2.328125 -2 L 2.328125 -1.71875 L 1.796875 -1.71875 L 1.640625 -1.078125 L 2.109375 -1.078125 L 2.109375 -0.78125 L 1.5625 -0.78125 L 1.375 0 L 1.0625 0 L 1.265625 -0.78125 L 0.796875 -0.78125 L 0.59375 0 L 0.296875 0 L 0.5 -0.78125 L 0 -0.78125 L 0 -1.078125 L 0.5625 -1.078125 L 0.734375 -1.71875 L 0.21875 -1.71875 L 0.21875 -2 L 0.796875 -2 L 1 -2.796875 Z M 1.5 -1.71875 L 1.03125 -1.71875 L 0.875 -1.078125 L 1.34375 -1.078125 Z "/>
</g>
<g id="glyph-0-32">
<path d="M 1.46875 -1.515625 C 1.65625 -1.460938 1.796875 -1.375 1.890625 -1.25 C 1.992188 -1.125 2.046875 -0.96875 2.046875 -0.78125 C 2.046875 -0.519531 1.957031 -0.3125 1.78125 -0.15625 C 1.613281 -0.0078125 1.375 0.0625 1.0625 0.0625 C 0.925781 0.0625 0.789062 0.046875 0.65625 0.015625 C 0.519531 -0.00390625 0.390625 -0.0351562 0.265625 -0.078125 L 0.265625 -0.46875 C 0.390625 -0.394531 0.515625 -0.34375 0.640625 -0.3125 C 0.765625 -0.28125 0.890625 -0.265625 1.015625 -0.265625 C 1.222656 -0.265625 1.382812 -0.3125 1.5 -0.40625 C 1.613281 -0.5 1.671875 -0.640625 1.671875 -0.828125 C 1.671875 -0.984375 1.613281 -1.109375 1.5 -1.203125 C 1.382812 -1.304688 1.234375 -1.359375 1.046875 -1.359375 L 0.75 -1.359375 L 0.75 -1.671875 L 1.046875 -1.671875 C 1.222656 -1.671875 1.359375 -1.707031 1.453125 -1.78125 C 1.554688 -1.863281 1.609375 -1.972656 1.609375 -2.109375 C 1.609375 -2.253906 1.5625 -2.363281 1.46875 -2.4375 C 1.375 -2.519531 1.242188 -2.5625 1.078125 -2.5625 C 0.960938 -2.5625 0.84375 -2.546875 0.71875 -2.515625 C 0.601562 -2.492188 0.476562 -2.457031 0.34375 -2.40625 L 0.34375 -2.765625 C 0.5 -2.804688 0.632812 -2.835938 0.75 -2.859375 C 0.875 -2.878906 0.984375 -2.890625 1.078125 -2.890625 C 1.347656 -2.890625 1.566406 -2.816406 1.734375 -2.671875 C 1.898438 -2.535156 1.984375 -2.351562 1.984375 -2.125 C 1.984375 -1.96875 1.9375 -1.835938 1.84375 -1.734375 C 1.757812 -1.628906 1.632812 -1.554688 1.46875 -1.515625 Z "/>
</g>
<g id="glyph-0-33">
<path d="M 0.265625 -2.84375 L 2.046875 -2.84375 L 2.046875 -2.671875 L 1.03125 0 L 0.640625 0 L 1.625 -2.515625 L 0.265625 -2.515625 Z "/>
</g>
<g id="glyph-0-34">
<path d="M 0.515625 -0.328125 L 1.109375 -0.328125 L 1.109375 -2.484375 L 0.46875 -2.34375 L 0.46875 -2.703125 L 1.109375 -2.84375 L 1.484375 -2.84375 L 1.484375 -0.328125 L 2.078125 -0.328125 L 2.078125 0 L 0.515625 0 Z "/>
</g>
<g id="glyph-0-35">
<path d="M 1.390625 -2.484375 L 0.5 -0.984375 L 1.390625 -0.984375 Z M 1.328125 -2.84375 L 1.78125 -2.84375 L 1.78125 -0.984375 L 2.15625 -0.984375 L 2.15625 -0.671875 L 1.78125 -0.671875 L 1.78125 0 L 1.390625 0 L 1.390625 -0.671875 L 0.1875 -0.671875 L 0.1875 -1.046875 Z "/>
</g>
<g id="glyph-0-36">
<path d="M 0.703125 -0.328125 L 2.015625 -0.328125 L 2.015625 0 L 0.28125 0 L 0.28125 -0.328125 C 0.519531 -0.578125 0.726562 -0.796875 0.90625 -0.984375 C 1.082031 -1.171875 1.207031 -1.304688 1.28125 -1.390625 C 1.40625 -1.546875 1.488281 -1.671875 1.53125 -1.765625 C 1.570312 -1.859375 1.59375 -1.957031 1.59375 -2.0625 C 1.59375 -2.21875 1.546875 -2.335938 1.453125 -2.421875 C 1.359375 -2.515625 1.234375 -2.5625 1.078125 -2.5625 C 0.960938 -2.5625 0.84375 -2.539062 0.71875 -2.5 C 0.59375 -2.457031 0.457031 -2.394531 0.3125 -2.3125 L 0.3125 -2.703125 C 0.4375 -2.765625 0.5625 -2.8125 0.6875 -2.84375 C 0.820312 -2.875 0.945312 -2.890625 1.0625 -2.890625 C 1.34375 -2.890625 1.566406 -2.8125 1.734375 -2.65625 C 1.910156 -2.507812 2 -2.316406 2 -2.078125 C 2 -1.960938 1.96875 -1.84375 1.90625 -1.71875 C 1.851562 -1.59375 1.765625 -1.457031 1.640625 -1.3125 C 1.566406 -1.226562 1.460938 -1.113281 1.328125 -0.96875 C 1.191406 -0.832031 0.984375 -0.617188 0.703125 -0.328125 Z "/>
</g>
</g>
</defs>
<g fill="rgb(100%, 100%, 100%)" fill-opacity="1">
<use xlink:href="#glyph-0-0" x="30" y="23.610352"/>
<use xlink:href="#glyph-0-1" x="32" y="23.610352"/>
<use xlink:href="#glyph-0-2" x="34" y="23.610352"/>
<use xlink:href="#glyph-0-3" x="36" y="23.610352"/>
<use xlink:href="#glyph-0-4" x="38" y="23.610352"/>
<use xlink:href="#glyph-0-5" x="40" y="23.610352"/>
<use xlink:href="#glyph-0-2" x="42" y="23.610352"/>
<use xlink:href="#glyph-0-1" x="44" y="23.610352"/>
<use xlink:href="#glyph-0-6" x="46" y="23.610352"/>
<use xlink:href="#glyph-0-7" x="48" y="23.610352"/>
<use xlink:href="#glyph-0-6" x="50" y="23.610352"/>
<use xlink:href="#glyph-0-4" x="52" y="23.610352"/>
<use xlink:href="#glyph-0-8" x="54" y="23.610352"/>
<use xlink:href="#glyph-0-8" x="56" y="23.610352"/>
<use xlink:href="#glyph-0-9" x="58" y="23.610352"/>
<use xlink:href="#glyph-0-10" x="60" y="23.610352"/>
<use xlink:href="#glyph-0-9" x="62" y="23.610352"/>
<use xlink:href="#glyph-0-11" x="64" y="23.610352"/>
<use xlink:href="#glyph-0-1" x="66" y="23.610352"/>
<use xlink:href="#glyph-0-10" x="68" y="23.610352"/>
<use xlink:href="#glyph-0-12" x="70" y="23.610352"/>
<use xlink:href="#glyph-0-1" x="72" y="23.610352"/>
<use xlink:href="#glyph-0-13" x="74" y="23.610352"/>
<use xlink:href="#glyph-0-14" x="76" y="23.610352"/>
<use xlink:href="#glyph-0-6" x="78" y="23.610352"/>
</g>
<g fill="rgb(100%, 100%, 100%)" fill-opacity="1">
<use xlink:href="#glyph-0-6" x="30" y="27.985352"/>
<use xlink:href="#glyph-0-6" x="32" y="27.985352"/>
<use xlink:href="#glyph-0-6" x="34" y="27.985352"/>
<use xlink:href="#glyph-0-6" x="36" y="27.985352"/>
<use xlink:href="#glyph-0-10" x="38" y="27.985352"/>
<use xlink:href="#glyph-0-4" x="40" y="27.985352"/>
<use xlink:href="#glyph-0-13" x="42" y="27.985352"/>
<use xlink:href="#glyph-0-1" x="44" y="27.985352"/>
<use xlink:href="#glyph-0-8" x="46" y="27.985352"/>
<use xlink:href="#glyph-0-7" x="48" y="27.985352"/>
<use xlink:href="#glyph-0-15" x="50" y="27.985352"/>
<use xlink:href="#glyph-0-10" x="52" y="27.985352"/>
<use xlink:href="#glyph-0-16" x="54" y="27.985352"/>
<use xlink:href="#glyph-0-12" x="56" y="27.985352"/>
<use xlink:href="#glyph-0-9" x="58" y="27.985352"/>
<use xlink:href="#glyph-0-17" x="60" y="27.985352"/>
<use xlink:href="#glyph-0-18" x="62" y="27.985352"/>
<use xlink:href="#glyph-0-1" x="64" y="27.985352"/>
<use xlink:href="#glyph-0-10" x="66" y="27.985352"/>
<use xlink:href="#glyph-0-12" x="68" y="27.985352"/>
<use xlink:href="#glyph-0-1" x="70" y="27.985352"/>
<use xlink:href="#glyph-0-13" x="72" y="27.985352"/>
<use xlink:href="#glyph-0-18" x="74" y="27.985352"/>
<use xlink:href="#glyph-0-8" x="76" y="27.985352"/>
<use xlink:href="#glyph-0-9" x="78" y="27.985352"/>
<use xlink:href="#glyph-0-0" x="80" y="27.985352"/>
<use xlink:href="#glyph-0-19" x="82" y="27.985352"/>
<use xlink:href="#glyph-0-1" x="84" y="27.985352"/>
<use xlink:href="#glyph-0-15" x="86" y="27.985352"/>
<use xlink:href="#glyph-0-20" x="88" y="27.985352"/>
<use xlink:href="#glyph-0-6" x="90" y="27.985352"/>
</g>
<g fill="rgb(100%, 100%, 100%)" fill-opacity="1">
<use xlink:href="#glyph-0-6" x="30" y="32.360352"/>
<use xlink:href="#glyph-0-6" x="32" y="32.360352"/>
<use xlink:href="#glyph-0-6" x="34" y="32.360352"/>
<use xlink:href="#glyph-0-6" x="36" y="32.360352"/>
<use xlink:href="#glyph-0-17" x="38" y="32.360352"/>
<use xlink:href="#glyph-0-5" x="40" y="32.360352"/>
<use xlink:href="#glyph-0-3" x="42" y="32.360352"/>
<use xlink:href="#glyph-0-21" x="44" y="32.360352"/>
<use xlink:href="#glyph-0-22" x="46" y="32.360352"/>
<use xlink:href="#glyph-0-7" x="48" y="32.360352"/>
<use xlink:href="#glyph-0-15" x="50" y="32.360352"/>
<use xlink:href="#glyph-0-23" x="52" y="32.360352"/>
<use xlink:href="#glyph-0-1" x="54" y="32.360352"/>
<use xlink:href="#glyph-0-22" x="56" y="32.360352"/>
<use xlink:href="#glyph-0-1" x="58" y="32.360352"/>
<use xlink:href="#glyph-0-0" x="60" y="32.360352"/>
<use xlink:href="#glyph-0-6" x="62" y="32.360352"/>
<use xlink:href="#glyph-0-8" x="64" y="32.360352"/>
<use xlink:href="#glyph-0-17" x="66" y="32.360352"/>
<use xlink:href="#glyph-0-24" x="68" y="32.360352"/>
<use xlink:href="#glyph-0-1" x="70" y="32.360352"/>
<use xlink:href="#glyph-0-2" x="72" y="32.360352"/>
<use xlink:href="#glyph-0-6" x="74" y="32.360352"/>
<use xlink:href="#glyph-0-17" x="76" y="32.360352"/>
<use xlink:href="#glyph-0-5" x="78" y="32.360352"/>
<use xlink:href="#glyph-0-6" x="80" y="32.360352"/>
<use xlink:href="#glyph-0-25" x="82" y="32.360352"/>
<use xlink:href="#glyph-0-9" x="84" y="32.360352"/>
<use xlink:href="#glyph-0-17" x="86" y="32.360352"/>
<use xlink:href="#glyph-0-6" x="88" y="32.360352"/>
<use xlink:href="#glyph-0-26" x="90" y="32.360352"/>
<use xlink:href="#glyph-0-9" x="92" y="32.360352"/>
<use xlink:href="#glyph-0-17" x="94" y="32.360352"/>
<use xlink:href="#glyph-0-15" x="96" y="32.360352"/>
<use xlink:href="#glyph-0-6" x="98" y="32.360352"/>
</g>
<g fill="rgb(100%, 100%, 100%)" fill-opacity="1">
<use xlink:href="#glyph-0-27" x="30" y="36.735352"/>
<use xlink:href="#glyph-0-6" x="32" y="36.735352"/>
</g>
<g fill="rgb(100%, 100%, 100%)" fill-opacity="1">
<use xlink:href="#glyph-0-1" x="30" y="41.110352"/>
<use xlink:href="#glyph-0-10" x="32" y="41.110352"/>
<use xlink:href="#glyph-0-12" x="34" y="41.110352"/>
<use xlink:href="#glyph-0-1" x="36" y="41.110352"/>
<use xlink:href="#glyph-0-13" x="38" y="41.110352"/>
<use xlink:href="#glyph-0-13" x="40" y="41.110352"/>
<use xlink:href="#glyph-0-17" x="42" y="41.110352"/>
<use xlink:href="#glyph-0-5" x="44" y="41.110352"/>
<use xlink:href="#glyph-0-19" x="46" y="41.110352"/>
<use xlink:href="#glyph-0-6" x="48" y="41.110352"/>
<use xlink:href="#glyph-0-7" x="50" y="41.110352"/>
<use xlink:href="#glyph-0-6" x="52" y="41.110352"/>
<use xlink:href="#glyph-0-0" x="54" y="41.110352"/>
<use xlink:href="#glyph-0-1" x="56" y="41.110352"/>
<use xlink:href="#glyph-0-2" x="58" y="41.110352"/>
<use xlink:href="#glyph-0-3" x="60" y="41.110352"/>
<use xlink:href="#glyph-0-4" x="62" y="41.110352"/>
<use xlink:href="#glyph-0-5" x="64" y="41.110352"/>
<use xlink:href="#glyph-0-2" x="66" y="41.110352"/>
<use xlink:href="#glyph-0-1" x="68" y="41.110352"/>
<use xlink:href="#glyph-0-28" x="70" y="41.110352"/>
<use xlink:href="#glyph-0-15" x="72" y="41.110352"/>
<use xlink:href="#glyph-0-1" x="74" y="41.110352"/>
<use xlink:href="#glyph-0-10" x="76" y="41.110352"/>
<use xlink:href="#glyph-0-12" x="78" y="41.110352"/>
<use xlink:href="#glyph-0-1" x="80" y="41.110352"/>
<use xlink:href="#glyph-0-13" x="82" y="41.110352"/>
<use xlink:href="#glyph-0-13" x="84" y="41.110352"/>
<use xlink:href="#glyph-0-17" x="86" y="41.110352"/>
<use xlink:href="#glyph-0-5" x="88" y="41.110352"/>
<use xlink:href="#glyph-0-19" x="90" y="41.110352"/>
<use xlink:href="#glyph-0-2" x="92" y="41.110352"/>
<use xlink:href="#glyph-0-15" x="94" y="41.110352"/>
<use xlink:href="#glyph-0-29" x="96" y="41.110352"/>
<use xlink:href="#glyph-0-28" x="98" y="41.110352"/>
<use xlink:href="#glyph-0-30" x="100" y="41.110352"/>
<use xlink:href="#glyph-0-29" x="102" y="41.110352"/>
<use xlink:href="#glyph-0-6" x="104" y="41.110352"/>
</g>
<g fill="rgb(100%, 100%, 100%)" fill-opacity="1">
<use xlink:href="#glyph-0-31" x="30" y="45.485352"/>
<use xlink:href="#glyph-0-6" x="32" y="45.485352"/>
<use xlink:href="#glyph-0-1" x="34" y="45.485352"/>
<use xlink:href="#glyph-0-10" x="36" y="45.485352"/>
<use xlink:href="#glyph-0-12" x="38" y="45.485352"/>
<use xlink:href="#glyph-0-1" x="40" y="45.485352"/>
<use xlink:href="#glyph-0-13" x="42" y="45.485352"/>
<use xlink:href="#glyph-0-13" x="44" y="45.485352"/>
<use xlink:href="#glyph-0-17" x="46" y="45.485352"/>
<use xlink:href="#glyph-0-5" x="48" y="45.485352"/>
<use xlink:href="#glyph-0-19" x="50" y="45.485352"/>
<use xlink:href="#glyph-0-6" x="52" y="45.485352"/>
<use xlink:href="#glyph-0-7" x="54" y="45.485352"/>
<use xlink:href="#glyph-0-6" x="56" y="45.485352"/>
<use xlink:href="#glyph-0-28" x="58" y="45.485352"/>
<use xlink:href="#glyph-0-18" x="60" y="45.485352"/>
<use xlink:href="#glyph-0-30" x="62" y="45.485352"/>
<use xlink:href="#glyph-0-11" x="64" y="45.485352"/>
<use xlink:href="#glyph-0-30" x="66" y="45.485352"/>
<use xlink:href="#glyph-0-32" x="68" y="45.485352"/>
<use xlink:href="#glyph-0-33" x="70" y="45.485352"/>
<use xlink:href="#glyph-0-20" x="72" y="45.485352"/>
<use xlink:href="#glyph-0-6" x="74" y="45.485352"/>
<use xlink:href="#glyph-0-30" x="76" y="45.485352"/>
<use xlink:href="#glyph-0-11" x="78" y="45.485352"/>
<use xlink:href="#glyph-0-30" x="80" y="45.485352"/>
<use xlink:href="#glyph-0-34" x="82" y="45.485352"/>
<use xlink:href="#glyph-0-35" x="84" y="45.485352"/>
<use xlink:href="#glyph-0-20" x="86" y="45.485352"/>
<use xlink:href="#glyph-0-6" x="88" y="45.485352"/>
<use xlink:href="#glyph-0-11" x="90" y="45.485352"/>
<use xlink:href="#glyph-0-11" x="92" y="45.485352"/>
<use xlink:href="#glyph-0-11" x="94" y="45.485352"/>
<use xlink:href="#glyph-0-6" x="96" y="45.485352"/>
<use xlink:href="#glyph-0-29" x="98" y="45.485352"/>
<use xlink:href="#glyph-0-6" x="100" y="45.485352"/>
</g>
<g fill="rgb(100%, 100%, 100%)" fill-opacity="1">
<use xlink:href="#glyph-0-31" x="30" y="49.860352"/>
<use xlink:href="#glyph-0-6" x="32" y="49.860352"/>
<use xlink:href="#glyph-0-8" x="34" y="49.860352"/>
<use xlink:href="#glyph-0-1" x="36" y="49.860352"/>
<use xlink:href="#glyph-0-5" x="38" y="49.860352"/>
<use xlink:href="#glyph-0-14" x="40" y="49.860352"/>
<use xlink:href="#glyph-0-1" x="42" y="49.860352"/>
<use xlink:href="#glyph-0-10" x="44" y="49.860352"/>
<use xlink:href="#glyph-0-12" x="46" y="49.860352"/>
<use xlink:href="#glyph-0-1" x="48" y="49.860352"/>
<use xlink:href="#glyph-0-13" x="50" y="49.860352"/>
<use xlink:href="#glyph-0-13" x="52" y="49.860352"/>
<use xlink:href="#glyph-0-17" x="54" y="49.860352"/>
<use xlink:href="#glyph-0-5" x="56" y="49.860352"/>
<use xlink:href="#glyph-0-19" x="58" y="49.860352"/>
<use xlink:href="#glyph-0-27" x="60" y="49.860352"/>
<use xlink:href="#glyph-0-6" x="62" y="49.860352"/>
<use xlink:href="#glyph-0-7" x="64" y="49.860352"/>
<use xlink:href="#glyph-0-7" x="66" y="49.860352"/>
<use xlink:href="#glyph-0-6" x="68" y="49.860352"/>
<use xlink:href="#glyph-0-34" x="70" y="49.860352"/>
<use xlink:href="#glyph-0-30" x="72" y="49.860352"/>
<use xlink:href="#glyph-0-36" x="74" y="49.860352"/>
<use xlink:href="#glyph-0-35" x="76" y="49.860352"/>
</g>
</svg>
