<?xml version="1.0" encoding="UTF-8"?>
<svg xmlns="http://www.w3.org/2000/svg" xmlns:xlink="http://www.w3.org/1999/xlink" width="1280" height="720" viewBox="0 0 1280 720">
<defs>
<g>
<g id="glyph-0-0">
<path d="M 1.640625 0.0625 C 1.460938 0.0625 1.300781 0.0351562 1.15625 -0.015625 C 1.007812 -0.0664062 0.878906 -0.140625 0.765625 -0.234375 C 0.660156 -0.335938 0.570312 -0.453125 0.5 -0.578125 C 0.4375 -0.710938 0.394531 -0.863281 0.375 -1.03125 L 0.875 -1.03125 C 0.90625 -0.832031 0.988281 -0.675781 1.125 -0.5625 C 1.257812 -0.445312 1.429688 -0.390625 1.640625 -0.390625 C 1.867188 -0.390625 2.050781 -0.457031 2.1875 -0.59375 C 2.332031 -0.738281 2.40625 -0.929688 2.40625 -1.171875 C 2.40625 -1.398438 2.332031 -1.585938 2.1875 -1.734375 C 2.039062 -1.878906 1.847656 -1.953125 1.609375 -1.953125 L 1.140625 -1.953125 L 1.140625 -2.46875 L 1.9375 -3.28125 C 1.976562 -3.320312 2.019531 -3.359375 2.0625 -3.390625 C 2.101562 -3.421875 2.140625 -3.453125 2.171875 -3.484375 C 2.210938 -3.515625 2.253906 -3.546875 2.296875 -3.578125 C 2.253906 -3.578125 2.210938 -3.578125 2.171875 -3.578125 C 2.128906 -3.566406 2.082031 -3.5625 2.03125 -3.5625 C 1.988281 -3.5625 1.941406 -3.5625 1.890625 -3.5625 L 0.5 -3.5625 L 0.5 -4 L 2.71875 -4 L 2.71875 -3.453125 L 1.78125 -2.546875 C 1.757812 -2.523438 1.738281 -2.503906 1.71875 -2.484375 C 1.695312 -2.472656 1.675781 -2.457031 1.65625 -2.4375 C 1.632812 -2.425781 1.617188 -2.410156 1.609375 -2.390625 C 1.804688 -2.390625 1.984375 -2.359375 2.140625 -2.296875 C 2.304688 -2.242188 2.441406 -2.164062 2.546875 -2.0625 C 2.660156 -1.957031 2.75 -1.828125 2.8125 -1.671875 C 2.882812 -1.523438 2.921875 -1.359375 2.921875 -1.171875 C 2.921875 -0.984375 2.890625 -0.8125 2.828125 -0.65625 C 2.765625 -0.507812 2.675781 -0.378906 2.5625 -0.265625 C 2.457031 -0.160156 2.328125 -0.078125 2.171875 -0.015625 C 2.015625 0.0351562 1.835938 0.0625 1.640625 0.0625 Z "/>
</g>
</g>
</defs>
<g fill="rgb(41.568627%, 10.588235%, 60.392157%)" fill-opacity="1">
<use xlink:href="#glyph-0-0" x="30" y="25.388672"/>
</g>
</svg>
