<?xml version="1.0" encoding="UTF-8"?>
<svg xmlns="http://www.w3.org/2000/svg" xmlns:xlink="http://www.w3.org/1999/xlink" width="1920" height="1080" viewBox="0 0 1920 1080">
<defs>
<g>
<g id="glyph-0-0">
<path d="M 0.375 -3.59375 L 2.625 -3.59375 L 2.625 -3.09375 L 1.359375 0 L 0.859375 0 L 2.0625 -2.875 C 2.09375 -2.925781 2.113281 -2.96875 2.125 -3 C 2.144531 -3.039062 2.164062 -3.070312 2.1875 -3.09375 C 2.195312 -3.125 2.207031 -3.148438 2.21875 -3.171875 L 2.21875 -3.203125 C 2.164062 -3.191406 2.113281 -3.1875 2.0625 -3.1875 C 2.019531 -3.1875 1.976562 -3.1875 1.9375 -3.1875 C 1.894531 -3.1875 1.851562 -3.1875 1.8125 -3.1875 L 0.828125 -3.1875 L 0.828125 -2.65625 L 0.375 -2.65625 Z "/>
</g>
<g id="glyph-0-1">
<path d="M 1.84375 -3.59375 L 2.328125 -3.59375 L 0.875 -1.375 L 0.875 -1.171875 L 2.046875 -1.171875 L 2.046875 -2.046875 L 2.5 -2.046875 L 2.5 0 L 2.046875 0 L 2.046875 -0.78125 L 0.421875 -0.78125 L 0.421875 -1.421875 Z "/>
</g>
<g id="glyph-0-2">
<path d="M 0.453125 -3.59375 L 0.90625 -3.59375 L 0.90625 -2.0625 L 1.46875 -2.0625 L 2.296875 -3.59375 L 2.828125 -3.59375 L 1.875 -1.890625 L 2.875 0 L 2.34375 0 L 1.46875 -1.671875 L 0.90625 -1.671875 L 0.90625 0 L 0.453125 0 Z "/>
</g>
</g>
</defs>
<g fill="rgb(100%, 100%, 100%)" fill-opacity="1">
<use xlink:href="#glyph-0-0" x="30" y="24.849609"/>
<use xlink:href="#glyph-0-1" x="33" y="24.849609"/>
<use xlink:href="#glyph-0-2" x="36" y="24.849609"/>
</g>
</svg>
