<?xml version="1.0" encoding="UTF-8"?>
<svg xmlns="http://www.w3.org/2000/svg" xmlns:xlink="http://www.w3.org/1999/xlink" width="1280" height="720" viewBox="0 0 1280 720">
<defs>
<g>
<g id="glyph-0-0">
<path d="M 2.984375 -3.40625 L 2.984375 -0.09375 L 3.296875 -0.09375 L 3.296875 -3.40625 Z M 3.796875 -3.640625 L 3.796875 0.359375 L 4.125 0.359375 L 4.125 -3.640625 Z M 2.203125 -3.59375 L 2.203125 -2.046875 C 2.203125 -1.234375 2.15625 -0.4375 1.640625 0.203125 C 1.71875 0.25 1.875 0.328125 1.9375 0.375 C 2.453125 -0.3125 2.515625 -1.1875 2.515625 -2.046875 L 2.515625 -3.59375 Z M 0.359375 -2.390625 L 0.359375 -2.125 L 1.640625 -2.125 L 1.640625 -2.390625 Z M 0.359375 -1.796875 L 0.359375 -1.546875 L 1.640625 -1.546875 L 1.640625 -1.796875 Z M 0.1875 -2.96875 L 0.1875 -2.703125 L 1.796875 -2.703125 L 1.796875 -2.96875 Z M 0.671875 -3.609375 C 0.796875 -3.4375 0.9375 -3.171875 1 -3.015625 L 1.265625 -3.171875 C 1.1875 -3.328125 1.0625 -3.5625 0.921875 -3.75 Z M 0.359375 -1.21875 L 0.359375 0.296875 L 0.640625 0.296875 L 0.640625 0.078125 L 1.671875 0.078125 L 1.671875 -1.21875 Z M 0.640625 -0.9375 L 1.375 -0.9375 L 1.375 -0.1875 L 0.640625 -0.1875 Z "/>
</g>
<g id="glyph-0-1">
<path d="M 2.328125 -2.15625 C 2.421875 -1.96875 2.515625 -1.703125 2.546875 -1.546875 L 2.75 -1.59375 C 2.71875 -1.765625 2.609375 -2.015625 2.515625 -2.203125 Z M 3.515625 -2.21875 C 3.46875 -2.046875 3.375 -1.75 3.28125 -1.59375 L 3.46875 -1.515625 C 3.546875 -1.6875 3.65625 -1.9375 3.734375 -2.15625 Z M 0.84375 -0.84375 C 0.890625 -0.515625 0.9375 -0.109375 0.953125 0.171875 L 1.203125 0.125 C 1.1875 -0.140625 1.140625 -0.5625 1.09375 -0.890625 Z M 0.375 -0.875 C 0.328125 -0.5 0.265625 -0.078125 0.15625 0.203125 C 0.21875 0.234375 0.359375 0.28125 0.40625 0.3125 C 0.5 0.015625 0.59375 -0.421875 0.640625 -0.828125 Z M 1.28125 -0.921875 C 1.359375 -0.65625 1.453125 -0.296875 1.5 -0.078125 L 1.734375 -0.140625 C 1.6875 -0.375 1.59375 -0.71875 1.5 -0.984375 Z M 2.828125 -3.71875 L 2.828125 -3.25 L 1.78125 -3.25 L 1.78125 -2.953125 L 2.828125 -2.953125 L 2.828125 -2.59375 L 1.90625 -2.59375 L 1.90625 -1.15625 L 2.65625 -1.15625 C 2.4375 -0.734375 2.078125 -0.328125 1.71875 -0.125 C 1.796875 -0.0625 1.875 0.0625 1.921875 0.140625 C 2.265625 -0.09375 2.609375 -0.5 2.84375 -0.90625 L 2.84375 0.359375 L 3.15625 0.359375 L 3.15625 -1 C 3.40625 -0.578125 3.75 -0.15625 4.046875 0.09375 C 4.09375 0.015625 4.203125 -0.09375 4.265625 -0.140625 C 3.953125 -0.359375 3.578125 -0.765625 3.34375 -1.15625 L 4.09375 -1.15625 L 4.09375 -2.59375 L 3.15625 -2.59375 L 3.15625 -2.953125 L 4.203125 -2.953125 L 4.203125 -3.25 L 3.15625 -3.25 L 3.15625 -3.71875 Z M 2.171875 -2.328125 L 2.859375 -2.328125 L 2.859375 -1.421875 L 2.171875 -1.421875 Z M 3.125 -2.328125 L 3.796875 -2.328125 L 3.796875 -1.421875 L 3.125 -1.421875 Z M 0.296875 -1.0625 C 0.375 -1.109375 0.515625 -1.140625 1.46875 -1.28125 L 1.515625 -1.015625 L 1.78125 -1.09375 C 1.75 -1.328125 1.640625 -1.71875 1.53125 -2.03125 L 1.28125 -1.96875 C 1.328125 -1.84375 1.359375 -1.6875 1.40625 -1.546875 L 0.6875 -1.453125 C 1.046875 -1.859375 1.390625 -2.390625 1.6875 -2.890625 L 1.390625 -3.0625 C 1.296875 -2.859375 1.1875 -2.65625 1.0625 -2.46875 L 0.609375 -2.421875 C 0.859375 -2.765625 1.09375 -3.1875 1.296875 -3.609375 L 1 -3.734375 C 0.8125 -3.25 0.5 -2.75 0.40625 -2.609375 C 0.3125 -2.46875 0.234375 -2.390625 0.15625 -2.359375 C 0.1875 -2.28125 0.25 -2.125 0.265625 -2.0625 C 0.328125 -2.09375 0.421875 -2.109375 0.890625 -2.171875 C 0.734375 -1.9375 0.578125 -1.734375 0.515625 -1.65625 C 0.375 -1.5 0.28125 -1.390625 0.1875 -1.359375 C 0.21875 -1.28125 0.28125 -1.125 0.296875 -1.0625 Z "/>
</g>
<g id="glyph-0-2">
<path d="M 3.3125 -1.15625 C 3.15625 -1.5625 3.046875 -2.03125 2.96875 -2.515625 L 2.984375 -2.546875 L 3.625 -2.546875 C 3.5625 -2.015625 3.46875 -1.546875 3.3125 -1.15625 Z M 0.1875 -1.015625 L 0.1875 -0.765625 L 0.734375 -0.765625 C 0.65625 -0.625 0.578125 -0.484375 0.5 -0.375 C 0.703125 -0.3125 0.921875 -0.25 1.140625 -0.171875 C 0.90625 -0.0625 0.578125 0.046875 0.171875 0.125 C 0.21875 0.1875 0.28125 0.28125 0.3125 0.34375 C 0.828125 0.234375 1.1875 0.109375 1.453125 -0.046875 C 1.6875 0.046875 1.890625 0.140625 2.046875 0.234375 L 2.15625 0.140625 C 2.203125 0.1875 2.28125 0.3125 2.3125 0.359375 C 2.734375 0.140625 3.0625 -0.15625 3.296875 -0.515625 C 3.5 -0.15625 3.765625 0.140625 4.09375 0.34375 C 4.140625 0.265625 4.25 0.140625 4.3125 0.09375 C 3.953125 -0.09375 3.671875 -0.40625 3.46875 -0.8125 C 3.703125 -1.28125 3.84375 -1.84375 3.921875 -2.546875 L 4.25 -2.546875 L 4.25 -2.84375 L 3.0625 -2.84375 C 3.140625 -3.109375 3.203125 -3.390625 3.25 -3.671875 L 2.96875 -3.734375 C 2.84375 -3.03125 2.65625 -2.328125 2.375 -1.84375 L 2.375 -2.03125 L 1.5 -2.03125 L 1.5 -2.21875 L 2.28125 -2.21875 L 2.28125 -2.71875 L 2.5625 -2.71875 L 2.5625 -2.984375 L 2.28125 -2.984375 L 2.28125 -3.4375 L 1.5 -3.4375 L 1.5 -3.734375 L 1.234375 -3.734375 L 1.234375 -3.4375 L 0.5 -3.4375 L 0.5 -2.984375 L 0.171875 -2.984375 L 0.171875 -2.71875 L 0.5 -2.71875 L 0.5 -2.21875 L 1.234375 -2.21875 L 1.234375 -2.03125 L 0.390625 -2.03125 L 0.390625 -1.3125 L 1.234375 -1.3125 L 1.234375 -1.21875 L 0.953125 -1.265625 C 0.921875 -1.1875 0.890625 -1.109375 0.859375 -1.015625 Z M 1.8125 -1.1875 L 1.8125 -1.015625 L 1.15625 -1.015625 L 1.234375 -1.21875 L 1.234375 -1.125 L 1.5 -1.125 L 1.5 -1.3125 L 2.375 -1.3125 L 2.375 -1.6875 C 2.4375 -1.640625 2.515625 -1.578125 2.546875 -1.53125 C 2.640625 -1.6875 2.71875 -1.859375 2.796875 -2.046875 C 2.875 -1.59375 3 -1.1875 3.140625 -0.828125 C 2.9375 -0.46875 2.640625 -0.171875 2.25 0.046875 L 2.28125 0.015625 C 2.125 -0.0625 1.9375 -0.15625 1.71875 -0.234375 C 1.921875 -0.40625 2.015625 -0.59375 2.046875 -0.765625 L 2.5 -0.765625 L 2.5 -1.015625 L 2.09375 -1.015625 L 2.09375 -1.1875 Z M 0.765625 -3.203125 L 1.234375 -3.203125 L 1.234375 -2.96875 L 0.765625 -2.96875 Z M 1.234375 -2.453125 L 0.765625 -2.453125 L 0.765625 -2.734375 L 1.234375 -2.734375 Z M 1.5 -3.203125 L 2.015625 -3.203125 L 2.015625 -2.96875 L 1.5 -2.96875 Z M 1.5 -2.453125 L 1.5 -2.734375 L 2.015625 -2.734375 L 2.015625 -2.453125 Z M 0.6875 -1.8125 L 1.234375 -1.8125 L 1.234375 -1.515625 L 0.6875 -1.515625 Z M 1.5 -1.8125 L 2.078125 -1.8125 L 2.078125 -1.515625 L 1.5 -1.515625 Z M 0.90625 -0.515625 L 1.03125 -0.765625 L 1.765625 -0.765625 C 1.71875 -0.640625 1.609375 -0.484375 1.421875 -0.34375 C 1.25 -0.40625 1.078125 -0.46875 0.90625 -0.515625 Z "/>
</g>
<g id="glyph-0-3">
<path d="M 2 -2.375 L 2.03125 -2.125 L 2.578125 -2.171875 C 2.578125 -1.9375 2.65625 -1.828125 2.9375 -1.828125 C 3.015625 -1.828125 3.5 -1.828125 3.609375 -1.828125 C 3.734375 -1.828125 3.875 -1.828125 3.9375 -1.84375 C 3.9375 -1.90625 3.921875 -2 3.921875 -2.0625 C 3.84375 -2.046875 3.6875 -2.046875 3.59375 -2.046875 C 3.5 -2.046875 3.078125 -2.046875 2.984375 -2.046875 C 2.875 -2.046875 2.859375 -2.078125 2.859375 -2.1875 L 2.859375 -2.234375 L 3.609375 -2.3125 L 3.578125 -2.515625 L 2.859375 -2.453125 L 2.859375 -2.703125 L 3.859375 -2.703125 C 3.828125 -2.578125 3.78125 -2.453125 3.75 -2.359375 L 4 -2.296875 C 4.078125 -2.453125 4.15625 -2.703125 4.21875 -2.921875 L 4.015625 -2.96875 L 3.96875 -2.953125 L 2.9375 -2.953125 L 2.9375 -3.203125 L 3.984375 -3.203125 L 3.984375 -3.453125 L 2.9375 -3.453125 L 2.9375 -3.71875 L 2.609375 -3.71875 L 2.609375 -2.953125 L 1.609375 -2.953125 L 1.609375 -1.6875 C 1.609375 -1.125 1.5625 -0.359375 1.15625 0.1875 C 1.234375 0.21875 1.359375 0.296875 1.40625 0.34375 C 1.828125 -0.21875 1.890625 -1.0625 1.890625 -1.6875 L 1.890625 -2.703125 L 2.578125 -2.703125 L 2.578125 -2.421875 Z M 4 -1.28125 C 3.796875 -1.15625 3.46875 -1 3.1875 -0.875 C 3.125 -0.984375 3.046875 -1.09375 2.9375 -1.1875 C 3.046875 -1.265625 3.15625 -1.34375 3.234375 -1.421875 L 4.203125 -1.421875 L 4.203125 -1.65625 L 2.015625 -1.65625 L 2.015625 -1.421875 L 2.921875 -1.421875 C 2.65625 -1.25 2.28125 -1.09375 1.96875 -1 C 2 -0.953125 2.046875 -0.875 2.078125 -0.828125 C 2.296875 -0.890625 2.515625 -0.96875 2.734375 -1.078125 C 2.765625 -1.046875 2.8125 -1 2.84375 -0.953125 C 2.609375 -0.78125 2.203125 -0.59375 1.890625 -0.515625 C 1.9375 -0.46875 2 -0.390625 2.015625 -0.328125 C 2.328125 -0.4375 2.703125 -0.625 2.953125 -0.796875 C 2.96875 -0.75 3 -0.703125 3.015625 -0.640625 C 2.75 -0.375 2.234375 -0.09375 1.828125 0.03125 C 1.875 0.078125 1.9375 0.171875 1.96875 0.21875 C 2.328125 0.09375 2.78125 -0.171875 3.078125 -0.421875 C 3.109375 -0.203125 3.0625 -0.015625 3 0.0625 C 2.953125 0.109375 2.890625 0.125 2.828125 0.125 C 2.75 0.125 2.671875 0.125 2.5625 0.109375 C 2.609375 0.171875 2.625 0.28125 2.625 0.34375 C 2.71875 0.359375 2.8125 0.359375 2.875 0.359375 C 3.015625 0.359375 3.09375 0.328125 3.1875 0.234375 C 3.34375 0.09375 3.40625 -0.3125 3.265625 -0.703125 L 3.46875 -0.78125 C 3.578125 -0.34375 3.796875 0.046875 4.109375 0.234375 C 4.15625 0.15625 4.25 0.0625 4.3125 0.015625 C 4 -0.140625 3.796875 -0.484375 3.671875 -0.859375 C 3.859375 -0.9375 4.046875 -1.03125 4.1875 -1.125 Z M 0.734375 -3.734375 L 0.734375 -2.828125 L 0.1875 -2.828125 L 0.1875 -2.515625 L 0.734375 -2.515625 L 0.734375 -1.609375 L 0.125 -1.4375 L 0.203125 -1.109375 L 0.734375 -1.28125 L 0.734375 -0.03125 C 0.734375 0.03125 0.703125 0.046875 0.65625 0.046875 C 0.59375 0.0625 0.421875 0.0625 0.234375 0.046875 C 0.28125 0.140625 0.3125 0.28125 0.328125 0.359375 C 0.609375 0.359375 0.78125 0.34375 0.890625 0.296875 C 1 0.25 1.03125 0.15625 1.03125 -0.03125 L 1.03125 -1.375 L 1.515625 -1.546875 L 1.46875 -1.84375 L 1.03125 -1.71875 L 1.03125 -2.515625 L 1.4375 -2.515625 L 1.4375 -2.828125 L 1.03125 -2.828125 L 1.03125 -3.734375 Z "/>
</g>
</g>
</defs>
<g fill="rgb(0%, 0%, 0%)" fill-opacity="1">
<use xlink:href="#glyph-0-0" x="30" y="25.155273"/>
<use xlink:href="#glyph-0-1" x="34" y="25.155273"/>
<use xlink:href="#glyph-0-2" x="38" y="25.155273"/>
<use xlink:href="#glyph-0-3" x="42" y="25.155273"/>
</g>
</svg>
