<?xml version="1.0" encoding="UTF-8"?>
<svg xmlns="http://www.w3.org/2000/svg" xmlns:xlink="http://www.w3.org/1999/xlink" width="854" height="480" viewBox="0 0 854 480">
<defs>
<g>
<g id="glyph-0-0">
</g>
<g id="glyph-0-1">
<path d="M 1.171875 -2.421875 L 1.5 -2.421875 L 1.5 -1.9375 L 1.46875 -1.4375 L 1.21875 -1.4375 L 1.171875 -1.9375 Z M 0.5 -1.9375 L 0.5 -2.421875 L 0.828125 -2.421875 L 0.828125 -1.9375 L 0.78125 -1.4375 L 0.546875 -1.4375 Z "/>
</g>
<g id="glyph-0-2">
<path d="M 0.296875 -1.828125 L 0.578125 -1.828125 L 0.578125 -1.515625 L 0.609375 -1.515625 C 0.628906 -1.628906 0.679688 -1.710938 0.765625 -1.765625 C 0.859375 -1.828125 0.972656 -1.859375 1.109375 -1.859375 C 1.203125 -1.859375 1.285156 -1.84375 1.359375 -1.8125 C 1.441406 -1.78125 1.507812 -1.734375 1.5625 -1.671875 C 1.613281 -1.609375 1.65625 -1.53125 1.6875 -1.4375 C 1.71875 -1.351562 1.734375 -1.253906 1.734375 -1.140625 L 1.734375 -0.6875 C 1.734375 -0.570312 1.71875 -0.46875 1.6875 -0.375 C 1.65625 -0.289062 1.613281 -0.21875 1.5625 -0.15625 C 1.507812 -0.09375 1.441406 -0.046875 1.359375 -0.015625 C 1.285156 0.015625 1.203125 0.03125 1.109375 0.03125 C 0.972656 0.03125 0.859375 0 0.765625 -0.0625 C 0.679688 -0.125 0.628906 -0.207031 0.609375 -0.3125 L 0.578125 -0.3125 C 0.578125 -0.28125 0.578125 -0.242188 0.578125 -0.203125 C 0.585938 -0.171875 0.59375 -0.132812 0.59375 -0.09375 C 0.59375 -0.0625 0.59375 -0.03125 0.59375 0 L 0.59375 0.5625 L 0.296875 0.5625 Z M 0.59375 -1.140625 L 0.59375 -0.6875 C 0.59375 -0.539062 0.628906 -0.425781 0.703125 -0.34375 C 0.773438 -0.257812 0.875 -0.21875 1 -0.21875 C 1.132812 -0.21875 1.238281 -0.257812 1.3125 -0.34375 C 1.394531 -0.425781 1.4375 -0.539062 1.4375 -0.6875 L 1.4375 -1.140625 C 1.4375 -1.285156 1.394531 -1.398438 1.3125 -1.484375 C 1.238281 -1.566406 1.132812 -1.609375 1 -1.609375 C 0.875 -1.609375 0.773438 -1.566406 0.703125 -1.484375 C 0.628906 -1.398438 0.59375 -1.285156 0.59375 -1.140625 Z "/>
</g>
<g id="glyph-0-3">
<path d="M 0.3125 0 L 0.3125 -0.265625 L 0.984375 -0.265625 L 0.984375 -1.5625 L 0.40625 -1.5625 L 0.40625 -1.828125 L 1.28125 -1.828125 L 1.28125 -0.265625 L 1.828125 -0.265625 L 1.828125 0 Z M 1.046875 -2.546875 L 1.109375 -2.546875 C 1.179688 -2.546875 1.234375 -2.523438 1.265625 -2.484375 C 1.304688 -2.453125 1.328125 -2.40625 1.328125 -2.34375 C 1.328125 -2.28125 1.304688 -2.226562 1.265625 -2.1875 C 1.234375 -2.15625 1.179688 -2.140625 1.109375 -2.140625 L 1.046875 -2.140625 C 0.984375 -2.140625 0.929688 -2.15625 0.890625 -2.1875 C 0.847656 -2.226562 0.828125 -2.28125 0.828125 -2.34375 C 0.828125 -2.40625 0.847656 -2.453125 0.890625 -2.484375 C 0.929688 -2.523438 0.984375 -2.546875 1.046875 -2.546875 Z "/>
</g>
<g id="glyph-0-4">
<path d="M 0.265625 -0.328125 L 1.375 -1.546875 L 1.375 -1.578125 C 1.351562 -1.578125 1.328125 -1.578125 1.296875 -1.578125 C 1.273438 -1.566406 1.25 -1.5625 1.21875 -1.5625 C 1.195312 -1.5625 1.171875 -1.5625 1.140625 -1.5625 L 0.296875 -1.5625 L 0.296875 -1.828125 L 1.6875 -1.828125 L 1.6875 -1.5 L 0.5625 -0.265625 L 0.5625 -0.25 C 0.59375 -0.25 0.617188 -0.253906 0.640625 -0.265625 C 0.671875 -0.265625 0.695312 -0.265625 0.71875 -0.265625 C 0.75 -0.265625 0.78125 -0.265625 0.8125 -0.265625 L 1.734375 -0.265625 L 1.734375 0 L 0.265625 0 Z "/>
</g>
<g id="glyph-0-5">
<path d="M 0.203125 -0.53125 C 0.203125 -0.613281 0.21875 -0.691406 0.25 -0.765625 C 0.28125 -0.835938 0.320312 -0.894531 0.375 -0.9375 C 0.4375 -0.988281 0.503906 -1.023438 0.578125 -1.046875 C 0.660156 -1.078125 0.753906 -1.09375 0.859375 -1.09375 L 1.40625 -1.09375 L 1.40625 -1.25 C 1.40625 -1.363281 1.367188 -1.453125 1.296875 -1.515625 C 1.222656 -1.578125 1.113281 -1.609375 0.96875 -1.609375 C 0.863281 -1.609375 0.773438 -1.585938 0.703125 -1.546875 C 0.640625 -1.515625 0.59375 -1.460938 0.5625 -1.390625 L 0.265625 -1.390625 C 0.296875 -1.535156 0.375 -1.648438 0.5 -1.734375 C 0.632812 -1.816406 0.796875 -1.859375 0.984375 -1.859375 C 1.203125 -1.859375 1.375 -1.804688 1.5 -1.703125 C 1.632812 -1.597656 1.703125 -1.453125 1.703125 -1.265625 L 1.703125 0 L 1.4375 0 L 1.4375 -0.34375 L 1.40625 -0.34375 C 1.375 -0.226562 1.304688 -0.132812 1.203125 -0.0625 C 1.097656 0 0.96875 0.03125 0.8125 0.03125 C 0.625 0.03125 0.472656 -0.015625 0.359375 -0.109375 C 0.253906 -0.210938 0.203125 -0.351562 0.203125 -0.53125 Z M 0.515625 -0.546875 C 0.515625 -0.441406 0.546875 -0.359375 0.609375 -0.296875 C 0.671875 -0.242188 0.757812 -0.21875 0.875 -0.21875 C 0.945312 -0.21875 1.015625 -0.222656 1.078125 -0.234375 C 1.148438 -0.253906 1.207031 -0.28125 1.25 -0.3125 C 1.300781 -0.351562 1.335938 -0.398438 1.359375 -0.453125 C 1.390625 -0.503906 1.40625 -0.554688 1.40625 -0.609375 L 1.40625 -0.859375 L 0.859375 -0.859375 C 0.753906 -0.859375 0.671875 -0.828125 0.609375 -0.765625 C 0.546875 -0.710938 0.515625 -0.640625 0.515625 -0.546875 Z "/>
</g>
<g id="glyph-0-6">
<path d="M 0.140625 -0.96875 L 0.140625 -1.234375 L 1.234375 -1.234375 C 1.253906 -1.234375 1.273438 -1.234375 1.296875 -1.234375 C 1.328125 -1.234375 1.359375 -1.226562 1.390625 -1.21875 C 1.410156 -1.21875 1.4375 -1.21875 1.46875 -1.21875 L 1.46875 -1.25 C 1.445312 -1.257812 1.429688 -1.269531 1.421875 -1.28125 C 1.390625 -1.3125 1.351562 -1.351562 1.3125 -1.40625 L 0.78125 -2.078125 L 1.125 -2.078125 L 1.890625 -1.09375 L 1.125 -0.109375 L 0.78125 -0.109375 L 1.3125 -0.796875 C 1.332031 -0.816406 1.347656 -0.832031 1.359375 -0.84375 C 1.378906 -0.863281 1.394531 -0.882812 1.40625 -0.90625 C 1.425781 -0.914062 1.445312 -0.929688 1.46875 -0.953125 L 1.46875 -0.984375 C 1.4375 -0.972656 1.410156 -0.96875 1.390625 -0.96875 C 1.359375 -0.96875 1.328125 -0.96875 1.296875 -0.96875 C 1.273438 -0.96875 1.253906 -0.96875 1.234375 -0.96875 Z "/>
</g>
<g id="glyph-0-7">
<path d="M 0.984375 0.03125 C 0.878906 0.03125 0.78125 0.015625 0.6875 -0.015625 C 0.601562 -0.046875 0.523438 -0.0859375 0.453125 -0.140625 C 0.390625 -0.203125 0.335938 -0.269531 0.296875 -0.34375 C 0.253906 -0.425781 0.226562 -0.515625 0.21875 -0.609375 L 0.53125 -0.609375 C 0.539062 -0.492188 0.585938 -0.398438 0.671875 -0.328125 C 0.753906 -0.265625 0.859375 -0.234375 0.984375 -0.234375 C 1.117188 -0.234375 1.226562 -0.273438 1.3125 -0.359375 C 1.394531 -0.441406 1.4375 -0.554688 1.4375 -0.703125 C 1.4375 -0.835938 1.394531 -0.945312 1.3125 -1.03125 C 1.226562 -1.125 1.113281 -1.171875 0.96875 -1.171875 L 0.6875 -1.171875 L 0.6875 -1.484375 L 1.15625 -1.96875 C 1.175781 -1.988281 1.195312 -2.007812 1.21875 -2.03125 C 1.25 -2.050781 1.273438 -2.066406 1.296875 -2.078125 C 1.328125 -2.097656 1.351562 -2.117188 1.375 -2.140625 C 1.351562 -2.140625 1.328125 -2.140625 1.296875 -2.140625 C 1.273438 -2.140625 1.25 -2.132812 1.21875 -2.125 C 1.195312 -2.125 1.171875 -2.125 1.140625 -2.125 L 0.296875 -2.125 L 0.296875 -2.390625 L 1.625 -2.390625 L 1.625 -2.0625 L 1.0625 -1.53125 C 1.050781 -1.507812 1.039062 -1.492188 1.03125 -1.484375 C 1.019531 -1.472656 1.003906 -1.46875 0.984375 -1.46875 C 0.972656 -1.445312 0.960938 -1.4375 0.953125 -1.4375 C 1.078125 -1.4375 1.1875 -1.414062 1.28125 -1.375 C 1.375 -1.34375 1.453125 -1.296875 1.515625 -1.234375 C 1.585938 -1.171875 1.644531 -1.09375 1.6875 -1 C 1.726562 -0.90625 1.75 -0.804688 1.75 -0.703125 C 1.75 -0.585938 1.726562 -0.484375 1.6875 -0.390625 C 1.65625 -0.304688 1.601562 -0.226562 1.53125 -0.15625 C 1.46875 -0.09375 1.390625 -0.046875 1.296875 -0.015625 C 1.203125 0.015625 1.097656 0.03125 0.984375 0.03125 Z "/>
</g>
<g id="glyph-0-8">
<path d="M 0.265625 -1.71875 C 0.265625 -1.820312 0.28125 -1.914062 0.3125 -2 C 0.351562 -2.09375 0.40625 -2.171875 0.46875 -2.234375 C 0.53125 -2.296875 0.601562 -2.34375 0.6875 -2.375 C 0.78125 -2.40625 0.882812 -2.421875 1 -2.421875 C 1.113281 -2.421875 1.210938 -2.40625 1.296875 -2.375 C 1.390625 -2.34375 1.46875 -2.296875 1.53125 -2.234375 C 1.59375 -2.171875 1.640625 -2.09375 1.671875 -2 C 1.710938 -1.914062 1.734375 -1.820312 1.734375 -1.71875 L 1.734375 -0.6875 C 1.734375 -0.570312 1.710938 -0.46875 1.671875 -0.375 C 1.640625 -0.289062 1.59375 -0.21875 1.53125 -0.15625 C 1.46875 -0.09375 1.390625 -0.046875 1.296875 -0.015625 C 1.210938 0.015625 1.113281 0.03125 1 0.03125 C 0.882812 0.03125 0.78125 0.015625 0.6875 -0.015625 C 0.601562 -0.046875 0.53125 -0.09375 0.46875 -0.15625 C 0.40625 -0.21875 0.351562 -0.289062 0.3125 -0.375 C 0.28125 -0.46875 0.265625 -0.570312 0.265625 -0.6875 Z M 0.5625 -0.6875 C 0.5625 -0.539062 0.597656 -0.425781 0.671875 -0.34375 C 0.753906 -0.269531 0.863281 -0.234375 1 -0.234375 C 1.132812 -0.234375 1.238281 -0.269531 1.3125 -0.34375 C 1.394531 -0.425781 1.4375 -0.539062 1.4375 -0.6875 L 1.4375 -1.71875 C 1.4375 -1.851562 1.394531 -1.957031 1.3125 -2.03125 C 1.238281 -2.113281 1.132812 -2.15625 1 -2.15625 C 0.863281 -2.15625 0.753906 -2.113281 0.671875 -2.03125 C 0.597656 -1.957031 0.5625 -1.851562 0.5625 -1.71875 Z M 0.828125 -1.453125 C 0.828125 -1.503906 0.84375 -1.546875 0.875 -1.578125 C 0.90625 -1.609375 0.945312 -1.625 1 -1.625 C 1.050781 -1.625 1.09375 -1.609375 1.125 -1.578125 C 1.15625 -1.546875 1.171875 -1.503906 1.171875 -1.453125 L 1.171875 -0.921875 C 1.171875 -0.859375 1.15625 -0.8125 1.125 -0.78125 C 1.09375 -0.75 1.050781 -0.734375 1 -0.734375 C 0.945312 -0.734375 0.90625 -0.75 0.875 -0.78125 C 0.84375 -0.8125 0.828125 -0.859375 0.828125 -0.921875 Z "/>
</g>
</g>
</defs>
<g fill="rgb(50.588235%, 78.039216%, 51.764706%)" fill-opacity="1">
<use xlink:href="#glyph-0-0" x="30" y="23.233398"/>
<use xlink:href="#glyph-0-0" x="32" y="23.233398"/>
<use xlink:href="#glyph-0-1" x="34" y="23.233398"/>
<use xlink:href="#glyph-0-2" x="36" y="23.233398"/>
<use xlink:href="#glyph-0-3" x="38" y="23.233398"/>
<use xlink:href="#glyph-0-4" x="40" y="23.233398"/>
<use xlink:href="#glyph-0-4" x="42" y="23.233398"/>
<use xlink:href="#glyph-0-5" x="44" y="23.233398"/>
<use xlink:href="#glyph-0-1" x="46" y="23.233398"/>
<use xlink:href="#glyph-0-0" x="48" y="23.233398"/>
<use xlink:href="#glyph-0-0" x="50" y="23.233398"/>
<use xlink:href="#glyph-0-6" x="52" y="23.233398"/>
<use xlink:href="#glyph-0-0" x="54" y="23.233398"/>
<use xlink:href="#glyph-0-7" x="56" y="23.233398"/>
<use xlink:href="#glyph-0-8" x="58" y="23.233398"/>
</g>
</svg>
