<?xml version="1.0" encoding="UTF-8"?>
<svg xmlns="http://www.w3.org/2000/svg" xmlns:xlink="http://www.w3.org/1999/xlink" width="1920" height="1080" viewBox="0 0 1920 1080">
<defs>
<g>
<g id="glyph-0-0">
<path d="M 0.328125 -1.28125 L 0.328125 -1.625 C 0.328125 -1.820312 0.382812 -1.976562 0.5 -2.09375 C 0.625 -2.21875 0.78125 -2.28125 0.96875 -2.28125 C 1.070312 -2.28125 1.160156 -2.265625 1.234375 -2.234375 C 1.316406 -2.203125 1.382812 -2.160156 1.4375 -2.109375 C 1.5 -2.054688 1.550781 -2 1.59375 -1.9375 C 1.644531 -1.882812 1.691406 -1.832031 1.734375 -1.78125 C 1.773438 -1.738281 1.816406 -1.703125 1.859375 -1.671875 C 1.910156 -1.640625 1.960938 -1.625 2.015625 -1.625 C 2.171875 -1.625 2.25 -1.71875 2.25 -1.90625 L 2.25 -2.25 L 2.671875 -2.25 L 2.671875 -1.90625 C 2.671875 -1.707031 2.609375 -1.546875 2.484375 -1.421875 C 2.367188 -1.304688 2.21875 -1.25 2.03125 -1.25 C 1.925781 -1.25 1.832031 -1.265625 1.75 -1.296875 C 1.675781 -1.328125 1.609375 -1.363281 1.546875 -1.40625 C 1.492188 -1.457031 1.441406 -1.507812 1.390625 -1.5625 C 1.347656 -1.625 1.304688 -1.679688 1.265625 -1.734375 C 1.222656 -1.785156 1.175781 -1.828125 1.125 -1.859375 C 1.082031 -1.890625 1.035156 -1.90625 0.984375 -1.90625 C 0.828125 -1.90625 0.75 -1.8125 0.75 -1.625 L 0.75 -1.28125 Z "/>
</g>
<g id="glyph-0-1">
<path d="M 0.34375 -2.53125 C 0.34375 -2.695312 0.367188 -2.847656 0.421875 -2.984375 C 0.484375 -3.117188 0.566406 -3.234375 0.671875 -3.328125 C 0.773438 -3.429688 0.894531 -3.507812 1.03125 -3.5625 C 1.175781 -3.625 1.332031 -3.65625 1.5 -3.65625 C 1.664062 -3.65625 1.816406 -3.625 1.953125 -3.5625 C 2.097656 -3.507812 2.222656 -3.429688 2.328125 -3.328125 C 2.429688 -3.234375 2.507812 -3.117188 2.5625 -2.984375 C 2.625 -2.847656 2.65625 -2.695312 2.65625 -2.53125 C 2.65625 -2.320312 2.609375 -2.101562 2.515625 -1.875 C 2.421875 -1.65625 2.289062 -1.410156 2.125 -1.140625 L 1.4375 0 L 0.90625 0 L 1.65625 -1.203125 C 1.726562 -1.304688 1.785156 -1.390625 1.828125 -1.453125 C 1.867188 -1.523438 1.90625 -1.578125 1.9375 -1.609375 C 1.96875 -1.648438 1.988281 -1.679688 2 -1.703125 L 1.9375 -1.703125 C 1.90625 -1.648438 1.863281 -1.601562 1.8125 -1.5625 C 1.769531 -1.519531 1.710938 -1.484375 1.640625 -1.453125 C 1.566406 -1.429688 1.472656 -1.421875 1.359375 -1.421875 C 1.210938 -1.421875 1.078125 -1.445312 0.953125 -1.5 C 0.828125 -1.550781 0.71875 -1.625 0.625 -1.71875 C 0.539062 -1.820312 0.472656 -1.941406 0.421875 -2.078125 C 0.367188 -2.210938 0.34375 -2.363281 0.34375 -2.53125 Z M 1.5 -1.796875 C 1.707031 -1.796875 1.875 -1.863281 2 -2 C 2.132812 -2.132812 2.203125 -2.3125 2.203125 -2.53125 C 2.203125 -2.75 2.132812 -2.921875 2 -3.046875 C 1.875 -3.179688 1.707031 -3.25 1.5 -3.25 C 1.394531 -3.25 1.300781 -3.226562 1.21875 -3.1875 C 1.132812 -3.15625 1.0625 -3.109375 1 -3.046875 C 0.9375 -2.984375 0.882812 -2.90625 0.84375 -2.8125 C 0.8125 -2.726562 0.796875 -2.632812 0.796875 -2.53125 C 0.796875 -2.414062 0.8125 -2.3125 0.84375 -2.21875 C 0.882812 -2.132812 0.9375 -2.0625 1 -2 C 1.0625 -1.9375 1.132812 -1.882812 1.21875 -1.84375 C 1.300781 -1.8125 1.394531 -1.796875 1.5 -1.796875 Z "/>
</g>
<g id="glyph-0-2">
<path d="M 0.34375 -0.984375 C 0.34375 -1.097656 0.359375 -1.203125 0.390625 -1.296875 C 0.429688 -1.398438 0.484375 -1.488281 0.546875 -1.5625 C 0.609375 -1.644531 0.679688 -1.710938 0.765625 -1.765625 C 0.859375 -1.816406 0.960938 -1.851562 1.078125 -1.875 L 1.078125 -1.890625 C 0.984375 -1.910156 0.894531 -1.941406 0.8125 -1.984375 C 0.726562 -2.035156 0.65625 -2.097656 0.59375 -2.171875 C 0.539062 -2.242188 0.5 -2.320312 0.46875 -2.40625 C 0.4375 -2.5 0.421875 -2.59375 0.421875 -2.6875 C 0.421875 -2.832031 0.445312 -2.960938 0.5 -3.078125 C 0.550781 -3.203125 0.625 -3.304688 0.71875 -3.390625 C 0.8125 -3.472656 0.925781 -3.535156 1.0625 -3.578125 C 1.195312 -3.628906 1.34375 -3.65625 1.5 -3.65625 C 1.65625 -3.65625 1.800781 -3.628906 1.9375 -3.578125 C 2.070312 -3.535156 2.1875 -3.472656 2.28125 -3.390625 C 2.375 -3.304688 2.445312 -3.203125 2.5 -3.078125 C 2.550781 -2.960938 2.578125 -2.832031 2.578125 -2.6875 C 2.578125 -2.59375 2.5625 -2.5 2.53125 -2.40625 C 2.5 -2.320312 2.453125 -2.242188 2.390625 -2.171875 C 2.335938 -2.097656 2.269531 -2.035156 2.1875 -1.984375 C 2.101562 -1.941406 2.015625 -1.910156 1.921875 -1.890625 L 1.921875 -1.875 C 2.140625 -1.832031 2.316406 -1.734375 2.453125 -1.578125 C 2.585938 -1.421875 2.65625 -1.226562 2.65625 -1 C 2.65625 -0.84375 2.625 -0.695312 2.5625 -0.5625 C 2.507812 -0.4375 2.429688 -0.328125 2.328125 -0.234375 C 2.234375 -0.148438 2.113281 -0.0820312 1.96875 -0.03125 C 1.832031 0.0195312 1.675781 0.046875 1.5 0.046875 C 1.320312 0.046875 1.160156 0.0234375 1.015625 -0.015625 C 0.878906 -0.0664062 0.757812 -0.140625 0.65625 -0.234375 C 0.5625 -0.328125 0.484375 -0.4375 0.421875 -0.5625 C 0.367188 -0.6875 0.34375 -0.828125 0.34375 -0.984375 Z M 1.5 -1.703125 C 1.289062 -1.703125 1.125 -1.640625 1 -1.515625 C 0.875 -1.390625 0.8125 -1.226562 0.8125 -1.03125 C 0.8125 -0.820312 0.875 -0.648438 1 -0.515625 C 1.125 -0.390625 1.289062 -0.328125 1.5 -0.328125 C 1.707031 -0.328125 1.875 -0.390625 2 -0.515625 C 2.125 -0.648438 2.1875 -0.820312 2.1875 -1.03125 C 2.1875 -1.226562 2.125 -1.390625 2 -1.515625 C 1.875 -1.640625 1.707031 -1.703125 1.5 -1.703125 Z M 1.5 -3.28125 C 1.3125 -3.28125 1.160156 -3.222656 1.046875 -3.109375 C 0.941406 -2.992188 0.890625 -2.847656 0.890625 -2.671875 C 0.890625 -2.492188 0.941406 -2.34375 1.046875 -2.21875 C 1.160156 -2.101562 1.3125 -2.046875 1.5 -2.046875 C 1.6875 -2.046875 1.832031 -2.101562 1.9375 -2.21875 C 2.050781 -2.34375 2.109375 -2.492188 2.109375 -2.671875 C 2.109375 -2.847656 2.050781 -2.992188 1.9375 -3.109375 C 1.832031 -3.222656 1.6875 -3.28125 1.5 -3.28125 Z "/>
</g>
</g>
</defs>
<g fill="rgb(100%, 100%, 100%)" fill-opacity="1">
<use xlink:href="#glyph-0-0" x="30" y="24.849609"/>
<use xlink:href="#glyph-0-1" x="33" y="24.849609"/>
<use xlink:href="#glyph-0-2" x="36" y="24.849609"/>
</g>
</svg>
