<?xml version="1.0" encoding="UTF-8"?>
<svg xmlns="http://www.w3.org/2000/svg" xmlns:xlink="http://www.w3.org/1999/xlink" width="1280" height="720" viewBox="0 0 1280 720">
<defs>
<g>
<g id="glyph-0-0">
<path d="M 0.359375 -2.953125 C 0.367188 -3.117188 0.40625 -3.269531 0.46875 -3.40625 C 0.53125 -3.539062 0.617188 -3.65625 0.734375 -3.75 C 0.847656 -3.851562 0.976562 -3.929688 1.125 -3.984375 C 1.28125 -4.035156 1.453125 -4.0625 1.640625 -4.0625 C 1.828125 -4.0625 1.992188 -4.035156 2.140625 -3.984375 C 2.296875 -3.929688 2.425781 -3.851562 2.53125 -3.75 C 2.632812 -3.65625 2.710938 -3.539062 2.765625 -3.40625 C 2.828125 -3.269531 2.859375 -3.117188 2.859375 -2.953125 C 2.859375 -2.648438 2.773438 -2.359375 2.609375 -2.078125 C 2.441406 -1.796875 2.175781 -1.5 1.8125 -1.1875 L 1.140625 -0.609375 C 1.128906 -0.585938 1.109375 -0.570312 1.078125 -0.5625 C 1.054688 -0.550781 1.035156 -0.535156 1.015625 -0.515625 C 0.984375 -0.492188 0.957031 -0.476562 0.9375 -0.46875 L 0.9375 -0.4375 C 1 -0.445312 1.054688 -0.453125 1.109375 -0.453125 C 1.160156 -0.453125 1.210938 -0.453125 1.265625 -0.453125 C 1.316406 -0.453125 1.363281 -0.453125 1.40625 -0.453125 L 2.890625 -0.453125 L 2.890625 0 L 0.390625 0 L 0.390625 -0.5625 L 1.453125 -1.46875 C 1.609375 -1.601562 1.742188 -1.726562 1.859375 -1.84375 C 1.972656 -1.96875 2.0625 -2.085938 2.125 -2.203125 C 2.195312 -2.328125 2.25 -2.445312 2.28125 -2.5625 C 2.320312 -2.6875 2.34375 -2.8125 2.34375 -2.9375 C 2.34375 -3.144531 2.28125 -3.304688 2.15625 -3.421875 C 2.03125 -3.546875 1.859375 -3.609375 1.640625 -3.609375 C 1.410156 -3.609375 1.222656 -3.546875 1.078125 -3.421875 C 0.941406 -3.304688 0.875 -3.148438 0.875 -2.953125 Z "/>
</g>
</g>
</defs>
<g fill="rgb(50.196078%, 87.058824%, 91.764706%)" fill-opacity="1">
<use xlink:href="#glyph-0-0" x="30" y="25.388672"/>
</g>
</svg>
