<?xml version="1.0" encoding="UTF-8"?>
<svg xmlns="http://www.w3.org/2000/svg" xmlns:xlink="http://www.w3.org/1999/xlink" width="1280" height="720" viewBox="0 0 1280 720">
<defs>
<g>
<g id="glyph-0-0">
<path d="M 1.15625 -1.40625 L 1.875 -1.40625 L 1.875 -1.140625 L 1.15625 -1.140625 L 1.15625 -0.40625 L 0.90625 -0.40625 L 0.90625 -1.140625 L 0.1875 -1.140625 L 0.1875 -1.40625 L 0.90625 -1.40625 L 0.90625 -2.140625 L 1.15625 -2.140625 Z "/>
</g>
<g id="glyph-0-1">
<path d="M 1.890625 -1.296875 C 1.890625 -1.015625 1.859375 -0.773438 1.796875 -0.578125 C 1.742188 -0.378906 1.65625 -0.226562 1.53125 -0.125 C 1.40625 -0.0195312 1.238281 0.03125 1.03125 0.03125 C 0.738281 0.03125 0.519531 -0.0820312 0.375 -0.3125 C 0.238281 -0.550781 0.171875 -0.878906 0.171875 -1.296875 C 0.171875 -1.566406 0.195312 -1.800781 0.25 -2 C 0.3125 -2.195312 0.40625 -2.347656 0.53125 -2.453125 C 0.65625 -2.554688 0.820312 -2.609375 1.03125 -2.609375 C 1.320312 -2.609375 1.535156 -2.492188 1.671875 -2.265625 C 1.816406 -2.035156 1.890625 -1.710938 1.890625 -1.296875 Z M 0.5 -1.296875 C 0.5 -0.941406 0.535156 -0.675781 0.609375 -0.5 C 0.691406 -0.320312 0.832031 -0.234375 1.03125 -0.234375 C 1.21875 -0.234375 1.351562 -0.320312 1.4375 -0.5 C 1.519531 -0.675781 1.5625 -0.941406 1.5625 -1.296875 C 1.5625 -1.640625 1.519531 -1.898438 1.4375 -2.078125 C 1.351562 -2.253906 1.21875 -2.34375 1.03125 -2.34375 C 0.832031 -2.34375 0.691406 -2.253906 0.609375 -2.078125 C 0.535156 -1.898438 0.5 -1.640625 0.5 -1.296875 Z "/>
</g>
<g id="glyph-0-2">
<path d="M 0.265625 -0.1875 C 0.265625 -0.28125 0.285156 -0.34375 0.328125 -0.375 C 0.367188 -0.414062 0.421875 -0.4375 0.484375 -0.4375 C 0.546875 -0.4375 0.597656 -0.414062 0.640625 -0.375 C 0.679688 -0.34375 0.703125 -0.28125 0.703125 -0.1875 C 0.703125 -0.101562 0.679688 -0.0390625 0.640625 0 C 0.597656 0.03125 0.546875 0.046875 0.484375 0.046875 C 0.421875 0.046875 0.367188 0.03125 0.328125 0 C 0.285156 -0.0390625 0.265625 -0.101562 0.265625 -0.1875 Z "/>
</g>
<g id="glyph-0-3">
<path d="M 2 -0.578125 L 1.609375 -0.578125 L 1.609375 0 L 1.3125 0 L 1.3125 -0.578125 L 0.078125 -0.578125 L 0.078125 -0.859375 L 1.28125 -2.59375 L 1.609375 -2.59375 L 1.609375 -0.875 L 2 -0.875 Z M 1.3125 -1.6875 C 1.3125 -1.8125 1.3125 -1.914062 1.3125 -2 C 1.320312 -2.09375 1.328125 -2.175781 1.328125 -2.25 L 1.3125 -2.25 C 1.289062 -2.207031 1.265625 -2.160156 1.234375 -2.109375 C 1.210938 -2.054688 1.1875 -2.007812 1.15625 -1.96875 L 0.390625 -0.875 L 1.3125 -0.875 Z "/>
</g>
<g id="glyph-0-4">
<path d="M 1.03125 -2.609375 C 1.257812 -2.609375 1.441406 -2.554688 1.578125 -2.453125 C 1.722656 -2.347656 1.796875 -2.195312 1.796875 -2 C 1.796875 -1.894531 1.773438 -1.800781 1.734375 -1.71875 C 1.691406 -1.644531 1.628906 -1.578125 1.546875 -1.515625 C 1.472656 -1.460938 1.394531 -1.410156 1.3125 -1.359375 C 1.414062 -1.304688 1.507812 -1.25 1.59375 -1.1875 C 1.6875 -1.125 1.757812 -1.050781 1.8125 -0.96875 C 1.863281 -0.882812 1.890625 -0.785156 1.890625 -0.671875 C 1.890625 -0.453125 1.8125 -0.28125 1.65625 -0.15625 C 1.5 -0.03125 1.296875 0.03125 1.046875 0.03125 C 0.765625 0.03125 0.546875 -0.0234375 0.390625 -0.140625 C 0.242188 -0.265625 0.171875 -0.4375 0.171875 -0.65625 C 0.171875 -0.769531 0.195312 -0.867188 0.25 -0.953125 C 0.300781 -1.046875 0.363281 -1.125 0.4375 -1.1875 C 0.519531 -1.25 0.613281 -1.300781 0.71875 -1.34375 C 0.582031 -1.414062 0.472656 -1.503906 0.390625 -1.609375 C 0.304688 -1.710938 0.265625 -1.84375 0.265625 -2 C 0.265625 -2.132812 0.296875 -2.242188 0.359375 -2.328125 C 0.429688 -2.421875 0.523438 -2.488281 0.640625 -2.53125 C 0.753906 -2.582031 0.882812 -2.609375 1.03125 -2.609375 Z M 1.03125 -2.359375 C 0.894531 -2.359375 0.78125 -2.328125 0.6875 -2.265625 C 0.601562 -2.203125 0.5625 -2.109375 0.5625 -1.984375 C 0.5625 -1.898438 0.582031 -1.828125 0.625 -1.765625 C 0.675781 -1.703125 0.734375 -1.648438 0.796875 -1.609375 C 0.867188 -1.566406 0.953125 -1.523438 1.046875 -1.484375 C 1.171875 -1.535156 1.273438 -1.597656 1.359375 -1.671875 C 1.441406 -1.753906 1.484375 -1.859375 1.484375 -1.984375 C 1.484375 -2.109375 1.441406 -2.203125 1.359375 -2.265625 C 1.273438 -2.328125 1.164062 -2.359375 1.03125 -2.359375 Z M 0.484375 -0.65625 C 0.484375 -0.53125 0.523438 -0.425781 0.609375 -0.34375 C 0.703125 -0.257812 0.84375 -0.21875 1.03125 -0.21875 C 1.207031 -0.21875 1.34375 -0.257812 1.4375 -0.34375 C 1.53125 -0.425781 1.578125 -0.535156 1.578125 -0.671875 C 1.578125 -0.796875 1.523438 -0.894531 1.421875 -0.96875 C 1.328125 -1.050781 1.195312 -1.125 1.03125 -1.1875 L 0.96875 -1.21875 C 0.8125 -1.144531 0.691406 -1.066406 0.609375 -0.984375 C 0.523438 -0.898438 0.484375 -0.789062 0.484375 -0.65625 Z "/>
</g>
</g>
</defs>
<g fill="rgb(100%, 94.509804%, 46.27451%)" fill-opacity="1">
<use xlink:href="#glyph-0-0" x="30" y="23.859375"/>
<use xlink:href="#glyph-0-1" x="32" y="23.859375"/>
<use xlink:href="#glyph-0-2" x="34" y="23.859375"/>
<use xlink:href="#glyph-0-3" x="35" y="23.859375"/>
<use xlink:href="#glyph-0-4" x="37" y="23.859375"/>
</g>
</svg>
