<?xml version="1.0" encoding="UTF-8"?>
<svg xmlns="http://www.w3.org/2000/svg" xmlns:xlink="http://www.w3.org/1999/xlink" width="1280" height="720" viewBox="0 0 1280 720">
<defs>
<g>
<g id="glyph-0-0">
<path d="M 1.4375 0 L 1.03125 0 L 1.03125 -2.8125 L 0.046875 -2.8125 L 0.046875 -3.171875 L 2.421875 -3.171875 L 2.421875 -2.8125 L 1.4375 -2.8125 Z "/>
</g>
<g id="glyph-0-1">
<path d="M 2.4375 -1.1875 C 2.4375 -0.800781 2.335938 -0.5 2.140625 -0.28125 C 1.941406 -0.0625 1.671875 0.046875 1.328125 0.046875 C 1.117188 0.046875 0.929688 0 0.765625 -0.09375 C 0.609375 -0.195312 0.484375 -0.335938 0.390625 -0.515625 C 0.296875 -0.703125 0.25 -0.925781 0.25 -1.1875 C 0.25 -1.582031 0.347656 -1.882812 0.546875 -2.09375 C 0.742188 -2.3125 1.007812 -2.421875 1.34375 -2.421875 C 1.5625 -2.421875 1.753906 -2.375 1.921875 -2.28125 C 2.085938 -2.1875 2.210938 -2.046875 2.296875 -1.859375 C 2.390625 -1.679688 2.4375 -1.457031 2.4375 -1.1875 Z M 0.640625 -1.1875 C 0.640625 -0.90625 0.695312 -0.679688 0.8125 -0.515625 C 0.925781 -0.359375 1.101562 -0.28125 1.34375 -0.28125 C 1.582031 -0.28125 1.757812 -0.359375 1.875 -0.515625 C 1.988281 -0.679688 2.046875 -0.90625 2.046875 -1.1875 C 2.046875 -1.46875 1.988281 -1.6875 1.875 -1.84375 C 1.757812 -2.007812 1.582031 -2.09375 1.34375 -2.09375 C 1.09375 -2.09375 0.910156 -2.007812 0.796875 -1.84375 C 0.691406 -1.6875 0.640625 -1.46875 0.640625 -1.1875 Z "/>
</g>
<g id="glyph-0-2">
<path d="M 0.765625 -1.609375 C 0.765625 -1.566406 0.757812 -1.503906 0.75 -1.421875 C 0.75 -1.347656 0.75 -1.28125 0.75 -1.21875 L 0.765625 -1.21875 C 0.785156 -1.25 0.8125 -1.285156 0.84375 -1.328125 C 0.875 -1.367188 0.90625 -1.410156 0.9375 -1.453125 C 0.976562 -1.503906 1.015625 -1.546875 1.046875 -1.578125 L 1.8125 -2.375 L 2.265625 -2.375 L 1.296875 -1.359375 L 2.328125 0 L 1.859375 0 L 1.03125 -1.109375 L 0.765625 -0.875 L 0.765625 0 L 0.375 0 L 0.375 -3.375 L 0.765625 -3.375 Z "/>
</g>
<g id="glyph-0-3">
<path d="M 1.296875 -2.421875 C 1.503906 -2.421875 1.679688 -2.375 1.828125 -2.28125 C 1.972656 -2.195312 2.082031 -2.070312 2.15625 -1.90625 C 2.238281 -1.75 2.28125 -1.5625 2.28125 -1.34375 L 2.28125 -1.109375 L 0.640625 -1.109375 C 0.648438 -0.835938 0.71875 -0.628906 0.84375 -0.484375 C 0.976562 -0.347656 1.164062 -0.28125 1.40625 -0.28125 C 1.5625 -0.28125 1.695312 -0.296875 1.8125 -0.328125 C 1.925781 -0.359375 2.046875 -0.398438 2.171875 -0.453125 L 2.171875 -0.109375 C 2.046875 -0.0546875 1.925781 -0.0195312 1.8125 0 C 1.695312 0.03125 1.554688 0.046875 1.390625 0.046875 C 1.160156 0.046875 0.957031 0 0.78125 -0.09375 C 0.613281 -0.1875 0.484375 -0.320312 0.390625 -0.5 C 0.296875 -0.6875 0.25 -0.910156 0.25 -1.171875 C 0.25 -1.429688 0.289062 -1.65625 0.375 -1.84375 C 0.457031 -2.03125 0.578125 -2.171875 0.734375 -2.265625 C 0.898438 -2.367188 1.085938 -2.421875 1.296875 -2.421875 Z M 1.296875 -2.109375 C 1.109375 -2.109375 0.957031 -2.046875 0.84375 -1.921875 C 0.738281 -1.804688 0.675781 -1.640625 0.65625 -1.421875 L 1.875 -1.421875 C 1.863281 -1.617188 1.8125 -1.78125 1.71875 -1.90625 C 1.632812 -2.039062 1.492188 -2.109375 1.296875 -2.109375 Z "/>
</g>
<g id="glyph-0-4">
<path d="M 1.515625 -2.421875 C 1.804688 -2.421875 2.023438 -2.351562 2.171875 -2.21875 C 2.316406 -2.082031 2.390625 -1.859375 2.390625 -1.546875 L 2.390625 0 L 2 0 L 2 -1.515625 C 2 -1.898438 1.820312 -2.09375 1.46875 -2.09375 C 1.195312 -2.09375 1.007812 -2.019531 0.90625 -1.875 C 0.8125 -1.726562 0.765625 -1.515625 0.765625 -1.234375 L 0.765625 0 L 0.375 0 L 0.375 -2.375 L 0.6875 -2.375 L 0.75 -2.046875 L 0.765625 -2.046875 C 0.847656 -2.171875 0.957031 -2.265625 1.09375 -2.328125 C 1.226562 -2.390625 1.367188 -2.421875 1.515625 -2.421875 Z "/>
</g>
<g id="glyph-0-5">
</g>
<g id="glyph-0-6">
<path d="M 2.203125 0 L 0.4375 0 L 0.4375 -3.171875 L 2.203125 -3.171875 L 2.203125 -2.8125 L 0.828125 -2.8125 L 0.828125 -1.828125 L 2.125 -1.828125 L 2.125 -1.484375 L 0.828125 -1.484375 L 0.828125 -0.34375 L 2.203125 -0.34375 Z "/>
</g>
<g id="glyph-0-7">
<path d="M 2.984375 -2.421875 C 3.253906 -2.421875 3.457031 -2.351562 3.59375 -2.21875 C 3.726562 -2.082031 3.796875 -1.859375 3.796875 -1.546875 L 3.796875 0 L 3.40625 0 L 3.40625 -1.53125 C 3.40625 -1.90625 3.242188 -2.09375 2.921875 -2.09375 C 2.691406 -2.09375 2.523438 -2.023438 2.421875 -1.890625 C 2.328125 -1.753906 2.28125 -1.5625 2.28125 -1.3125 L 2.28125 0 L 1.890625 0 L 1.890625 -1.53125 C 1.890625 -1.90625 1.726562 -2.09375 1.40625 -2.09375 C 1.164062 -2.09375 1 -2.019531 0.90625 -1.875 C 0.8125 -1.726562 0.765625 -1.515625 0.765625 -1.234375 L 0.765625 0 L 0.375 0 L 0.375 -2.375 L 0.6875 -2.375 L 0.75 -2.046875 L 0.765625 -2.046875 C 0.847656 -2.171875 0.953125 -2.265625 1.078125 -2.328125 C 1.203125 -2.390625 1.332031 -2.421875 1.46875 -2.421875 C 1.84375 -2.421875 2.085938 -2.289062 2.203125 -2.03125 L 2.21875 -2.03125 C 2.300781 -2.164062 2.410156 -2.265625 2.546875 -2.328125 C 2.679688 -2.390625 2.828125 -2.421875 2.984375 -2.421875 Z "/>
</g>
<g id="glyph-0-8">
<path d="M 0.765625 -2.546875 C 0.765625 -2.453125 0.757812 -2.359375 0.75 -2.265625 C 0.75 -2.179688 0.75 -2.113281 0.75 -2.0625 L 0.765625 -2.0625 C 0.835938 -2.164062 0.929688 -2.25 1.046875 -2.3125 C 1.160156 -2.382812 1.3125 -2.421875 1.5 -2.421875 C 1.800781 -2.421875 2.039062 -2.316406 2.21875 -2.109375 C 2.394531 -1.898438 2.484375 -1.59375 2.484375 -1.1875 C 2.484375 -0.78125 2.390625 -0.472656 2.203125 -0.265625 C 2.023438 -0.0546875 1.789062 0.046875 1.5 0.046875 C 1.3125 0.046875 1.160156 0.015625 1.046875 -0.046875 C 0.929688 -0.117188 0.835938 -0.203125 0.765625 -0.296875 L 0.734375 -0.296875 L 0.65625 0 L 0.375 0 L 0.375 -3.375 L 0.765625 -3.375 Z M 1.4375 -2.09375 C 1.1875 -2.09375 1.007812 -2.019531 0.90625 -1.875 C 0.8125 -1.726562 0.765625 -1.503906 0.765625 -1.203125 L 0.765625 -1.1875 C 0.765625 -0.894531 0.8125 -0.671875 0.90625 -0.515625 C 1.007812 -0.359375 1.191406 -0.28125 1.453125 -0.28125 C 1.660156 -0.28125 1.816406 -0.359375 1.921875 -0.515625 C 2.023438 -0.671875 2.078125 -0.894531 2.078125 -1.1875 C 2.078125 -1.789062 1.863281 -2.09375 1.4375 -2.09375 Z "/>
</g>
<g id="glyph-0-9">
<path d="M 1.21875 0.046875 C 0.925781 0.046875 0.691406 -0.0546875 0.515625 -0.265625 C 0.335938 -0.472656 0.25 -0.78125 0.25 -1.1875 C 0.25 -1.59375 0.335938 -1.898438 0.515625 -2.109375 C 0.691406 -2.316406 0.925781 -2.421875 1.21875 -2.421875 C 1.40625 -2.421875 1.554688 -2.382812 1.671875 -2.3125 C 1.785156 -2.25 1.882812 -2.171875 1.96875 -2.078125 L 1.984375 -2.078125 C 1.984375 -2.109375 1.976562 -2.160156 1.96875 -2.234375 C 1.96875 -2.316406 1.96875 -2.378906 1.96875 -2.421875 L 1.96875 -3.375 L 2.359375 -3.375 L 2.359375 0 L 2.03125 0 L 1.984375 -0.3125 L 1.96875 -0.3125 C 1.894531 -0.21875 1.796875 -0.132812 1.671875 -0.0625 C 1.554688 0.0078125 1.40625 0.046875 1.21875 0.046875 Z M 1.28125 -0.28125 C 1.53125 -0.28125 1.707031 -0.347656 1.8125 -0.484375 C 1.914062 -0.617188 1.96875 -0.828125 1.96875 -1.109375 L 1.96875 -1.1875 C 1.96875 -1.476562 1.914062 -1.703125 1.8125 -1.859375 C 1.71875 -2.015625 1.539062 -2.09375 1.28125 -2.09375 C 1.070312 -2.09375 0.910156 -2.007812 0.796875 -1.84375 C 0.691406 -1.675781 0.640625 -1.453125 0.640625 -1.171875 C 0.640625 -0.890625 0.691406 -0.671875 0.796875 -0.515625 C 0.910156 -0.359375 1.070312 -0.28125 1.28125 -0.28125 Z "/>
</g>
<g id="glyph-0-10">
<path d="M 0.578125 -3.265625 C 0.640625 -3.265625 0.691406 -3.242188 0.734375 -3.203125 C 0.773438 -3.171875 0.796875 -3.109375 0.796875 -3.015625 C 0.796875 -2.929688 0.773438 -2.867188 0.734375 -2.828125 C 0.691406 -2.785156 0.640625 -2.765625 0.578125 -2.765625 C 0.515625 -2.765625 0.457031 -2.785156 0.40625 -2.828125 C 0.363281 -2.867188 0.34375 -2.929688 0.34375 -3.015625 C 0.34375 -3.109375 0.363281 -3.171875 0.40625 -3.203125 C 0.457031 -3.242188 0.515625 -3.265625 0.578125 -3.265625 Z M 0.765625 -2.375 L 0.765625 0 L 0.375 0 L 0.375 -2.375 Z "/>
</g>
<g id="glyph-0-11">
<path d="M 1.21875 -2.421875 C 1.375 -2.421875 1.515625 -2.390625 1.640625 -2.328125 C 1.765625 -2.273438 1.875 -2.1875 1.96875 -2.0625 L 1.984375 -2.0625 L 2.046875 -2.375 L 2.359375 -2.375 L 2.359375 0.046875 C 2.359375 0.378906 2.269531 0.628906 2.09375 0.796875 C 1.914062 0.972656 1.644531 1.0625 1.28125 1.0625 C 0.9375 1.0625 0.65625 1.015625 0.4375 0.921875 L 0.4375 0.546875 C 0.664062 0.671875 0.957031 0.734375 1.3125 0.734375 C 1.507812 0.734375 1.664062 0.671875 1.78125 0.546875 C 1.90625 0.429688 1.96875 0.273438 1.96875 0.078125 L 1.96875 -0.015625 C 1.96875 -0.0546875 1.96875 -0.109375 1.96875 -0.171875 C 1.96875 -0.242188 1.972656 -0.289062 1.984375 -0.3125 L 1.96875 -0.3125 C 1.800781 -0.0703125 1.550781 0.046875 1.21875 0.046875 C 0.914062 0.046875 0.675781 -0.0625 0.5 -0.28125 C 0.332031 -0.5 0.25 -0.800781 0.25 -1.1875 C 0.25 -1.5625 0.332031 -1.859375 0.5 -2.078125 C 0.675781 -2.304688 0.914062 -2.421875 1.21875 -2.421875 Z M 1.28125 -2.09375 C 1.070312 -2.09375 0.910156 -2.015625 0.796875 -1.859375 C 0.691406 -1.703125 0.640625 -1.476562 0.640625 -1.1875 C 0.640625 -0.882812 0.691406 -0.65625 0.796875 -0.5 C 0.910156 -0.351562 1.070312 -0.28125 1.28125 -0.28125 C 1.519531 -0.28125 1.691406 -0.34375 1.796875 -0.46875 C 1.910156 -0.59375 1.96875 -0.800781 1.96875 -1.09375 L 1.96875 -1.1875 C 1.96875 -1.507812 1.910156 -1.738281 1.796875 -1.875 C 1.691406 -2.019531 1.519531 -2.09375 1.28125 -2.09375 Z "/>
</g>
<g id="glyph-0-12">
<path d="M 0.171875 -1.21875 C 0.171875 -1.570312 0.222656 -1.914062 0.328125 -2.25 C 0.441406 -2.59375 0.609375 -2.898438 0.828125 -3.171875 L 1.203125 -3.171875 C 0.992188 -2.890625 0.835938 -2.582031 0.734375 -2.25 C 0.628906 -1.914062 0.578125 -1.570312 0.578125 -1.21875 C 0.578125 -0.875 0.628906 -0.535156 0.734375 -0.203125 C 0.835938 0.117188 0.988281 0.421875 1.1875 0.703125 L 0.828125 0.703125 C 0.609375 0.441406 0.441406 0.148438 0.328125 -0.171875 C 0.222656 -0.503906 0.171875 -0.851562 0.171875 -1.21875 Z "/>
</g>
<g id="glyph-0-13">
<path d="M 0.90625 0 L 0 -2.375 L 0.421875 -2.375 L 0.921875 -0.96875 C 0.941406 -0.90625 0.960938 -0.832031 0.984375 -0.75 C 1.015625 -0.675781 1.039062 -0.601562 1.0625 -0.53125 C 1.082031 -0.457031 1.097656 -0.394531 1.109375 -0.34375 L 1.125 -0.34375 C 1.144531 -0.394531 1.164062 -0.457031 1.1875 -0.53125 C 1.207031 -0.601562 1.226562 -0.679688 1.25 -0.765625 C 1.28125 -0.847656 1.304688 -0.914062 1.328125 -0.96875 L 1.84375 -2.375 L 2.25 -2.375 L 1.34375 0 Z "/>
</g>
<g id="glyph-0-14">
<path d="M 1.328125 0.046875 C 1.117188 0.046875 0.929688 0.00390625 0.765625 -0.078125 C 0.609375 -0.171875 0.484375 -0.304688 0.390625 -0.484375 C 0.296875 -0.660156 0.25 -0.890625 0.25 -1.171875 C 0.25 -1.460938 0.296875 -1.703125 0.390625 -1.890625 C 0.484375 -2.078125 0.613281 -2.210938 0.78125 -2.296875 C 0.945312 -2.378906 1.140625 -2.421875 1.359375 -2.421875 C 1.484375 -2.421875 1.597656 -2.40625 1.703125 -2.375 C 1.816406 -2.351562 1.910156 -2.328125 1.984375 -2.296875 L 1.859375 -1.96875 C 1.785156 -2 1.703125 -2.023438 1.609375 -2.046875 C 1.515625 -2.066406 1.425781 -2.078125 1.34375 -2.078125 C 0.875 -2.078125 0.640625 -1.78125 0.640625 -1.1875 C 0.640625 -0.894531 0.695312 -0.671875 0.8125 -0.515625 C 0.925781 -0.367188 1.097656 -0.296875 1.328125 -0.296875 C 1.453125 -0.296875 1.5625 -0.304688 1.65625 -0.328125 C 1.757812 -0.359375 1.851562 -0.394531 1.9375 -0.4375 L 1.9375 -0.078125 C 1.863281 -0.0351562 1.773438 -0.00390625 1.671875 0.015625 C 1.578125 0.0351562 1.460938 0.046875 1.328125 0.046875 Z "/>
</g>
<g id="glyph-0-15">
<path d="M 1.28125 -2.421875 C 1.570312 -2.421875 1.785156 -2.351562 1.921875 -2.21875 C 2.054688 -2.09375 2.125 -1.894531 2.125 -1.625 L 2.125 0 L 1.84375 0 L 1.765625 -0.34375 L 1.75 -0.34375 C 1.644531 -0.207031 1.535156 -0.109375 1.421875 -0.046875 C 1.304688 0.015625 1.148438 0.046875 0.953125 0.046875 C 0.734375 0.046875 0.550781 -0.0078125 0.40625 -0.125 C 0.269531 -0.238281 0.203125 -0.414062 0.203125 -0.65625 C 0.203125 -0.894531 0.296875 -1.078125 0.484375 -1.203125 C 0.671875 -1.335938 0.957031 -1.410156 1.34375 -1.421875 L 1.75 -1.4375 L 1.75 -1.578125 C 1.75 -1.773438 1.703125 -1.910156 1.609375 -1.984375 C 1.523438 -2.066406 1.40625 -2.109375 1.25 -2.109375 C 1.125 -2.109375 1.003906 -2.085938 0.890625 -2.046875 C 0.785156 -2.015625 0.679688 -1.972656 0.578125 -1.921875 L 0.46875 -2.21875 C 0.570312 -2.269531 0.691406 -2.316406 0.828125 -2.359375 C 0.972656 -2.398438 1.125 -2.421875 1.28125 -2.421875 Z M 1.390625 -1.15625 C 1.097656 -1.132812 0.894531 -1.082031 0.78125 -1 C 0.664062 -0.925781 0.609375 -0.8125 0.609375 -0.65625 C 0.609375 -0.519531 0.648438 -0.421875 0.734375 -0.359375 C 0.816406 -0.296875 0.921875 -0.265625 1.046875 -0.265625 C 1.242188 -0.265625 1.410156 -0.320312 1.546875 -0.4375 C 1.679688 -0.550781 1.75 -0.722656 1.75 -0.953125 L 1.75 -1.15625 Z "/>
</g>
<g id="glyph-0-16">
<path d="M 2.03125 -2.546875 L 2.25 -2.328125 L 1.484375 -1.5625 L 2.234375 -0.8125 L 2.015625 -0.578125 L 1.265625 -1.328125 L 0.515625 -0.578125 L 0.28125 -0.8125 L 1.03125 -1.5625 L 0.28125 -2.3125 L 0.515625 -2.546875 L 1.265625 -1.78125 Z "/>
</g>
<g id="glyph-0-17">
<path d="M 0.25 -1.359375 C 0.25 -1.578125 0.265625 -1.796875 0.296875 -2.015625 C 0.335938 -2.242188 0.410156 -2.445312 0.515625 -2.625 C 0.617188 -2.800781 0.765625 -2.941406 0.953125 -3.046875 C 1.148438 -3.160156 1.394531 -3.21875 1.6875 -3.21875 C 1.75 -3.21875 1.816406 -3.210938 1.890625 -3.203125 C 1.972656 -3.191406 2.035156 -3.179688 2.078125 -3.171875 L 2.078125 -2.84375 C 2.023438 -2.851562 1.96875 -2.863281 1.90625 -2.875 C 1.84375 -2.882812 1.773438 -2.890625 1.703125 -2.890625 C 1.492188 -2.890625 1.320312 -2.851562 1.1875 -2.78125 C 1.050781 -2.71875 0.941406 -2.625 0.859375 -2.5 C 0.785156 -2.382812 0.726562 -2.25 0.6875 -2.09375 C 0.65625 -1.945312 0.640625 -1.785156 0.640625 -1.609375 L 0.65625 -1.609375 C 0.726562 -1.710938 0.820312 -1.800781 0.9375 -1.875 C 1.0625 -1.945312 1.21875 -1.984375 1.40625 -1.984375 C 1.6875 -1.984375 1.910156 -1.898438 2.078125 -1.734375 C 2.242188 -1.566406 2.328125 -1.328125 2.328125 -1.015625 C 2.328125 -0.691406 2.234375 -0.429688 2.046875 -0.234375 C 1.867188 -0.046875 1.628906 0.046875 1.328125 0.046875 C 1.117188 0.046875 0.929688 0 0.765625 -0.09375 C 0.609375 -0.195312 0.484375 -0.351562 0.390625 -0.5625 C 0.296875 -0.769531 0.25 -1.035156 0.25 -1.359375 Z M 1.3125 -0.28125 C 1.5 -0.28125 1.648438 -0.335938 1.765625 -0.453125 C 1.878906 -0.578125 1.9375 -0.765625 1.9375 -1.015625 C 1.9375 -1.222656 1.882812 -1.382812 1.78125 -1.5 C 1.6875 -1.613281 1.535156 -1.671875 1.328125 -1.671875 C 1.191406 -1.671875 1.070312 -1.640625 0.96875 -1.578125 C 0.863281 -1.523438 0.78125 -1.453125 0.71875 -1.359375 C 0.664062 -1.273438 0.640625 -1.1875 0.640625 -1.09375 C 0.640625 -0.96875 0.664062 -0.84375 0.71875 -0.71875 C 0.769531 -0.59375 0.84375 -0.488281 0.9375 -0.40625 C 1.039062 -0.320312 1.164062 -0.28125 1.3125 -0.28125 Z "/>
</g>
<g id="glyph-0-18">
<path d="M 2.453125 -0.71875 L 1.984375 -0.71875 L 1.984375 0 L 1.609375 0 L 1.609375 -0.71875 L 0.09375 -0.71875 L 0.09375 -1.046875 L 1.578125 -3.1875 L 1.984375 -3.1875 L 1.984375 -1.0625 L 2.453125 -1.0625 Z M 1.609375 -2.0625 C 1.609375 -2.21875 1.609375 -2.347656 1.609375 -2.453125 C 1.617188 -2.566406 1.628906 -2.671875 1.640625 -2.765625 L 1.609375 -2.765625 C 1.585938 -2.710938 1.554688 -2.648438 1.515625 -2.578125 C 1.484375 -2.515625 1.453125 -2.460938 1.421875 -2.421875 L 0.46875 -1.0625 L 1.609375 -1.0625 Z "/>
</g>
<g id="glyph-0-19">
<path d="M 1.15625 -1.21875 C 1.15625 -0.851562 1.101562 -0.503906 1 -0.171875 C 0.894531 0.148438 0.726562 0.441406 0.5 0.703125 L 0.140625 0.703125 C 0.335938 0.421875 0.488281 0.117188 0.59375 -0.203125 C 0.707031 -0.535156 0.765625 -0.875 0.765625 -1.21875 C 0.765625 -1.570312 0.707031 -1.914062 0.59375 -2.25 C 0.488281 -2.582031 0.335938 -2.890625 0.140625 -3.171875 L 0.5 -3.171875 C 0.726562 -2.898438 0.894531 -2.59375 1 -2.25 C 1.101562 -1.914062 1.15625 -1.570312 1.15625 -1.21875 Z "/>
</g>
</g>
</defs>
<g fill="rgb(50.196078%, 87.058824%, 91.764706%)" fill-opacity="1">
<use xlink:href="#glyph-0-0" x="30" y="24.750977"/>
<use xlink:href="#glyph-0-1" x="32" y="24.750977"/>
<use xlink:href="#glyph-0-2" x="35" y="24.750977"/>
<use xlink:href="#glyph-0-3" x="37" y="24.750977"/>
<use xlink:href="#glyph-0-4" x="40" y="24.750977"/>
<use xlink:href="#glyph-0-5" x="43" y="24.750977"/>
<use xlink:href="#glyph-0-6" x="44" y="24.750977"/>
<use xlink:href="#glyph-0-7" x="46" y="24.750977"/>
<use xlink:href="#glyph-0-8" x="50" y="24.750977"/>
<use xlink:href="#glyph-0-3" x="53" y="24.750977"/>
<use xlink:href="#glyph-0-9" x="56" y="24.750977"/>
<use xlink:href="#glyph-0-9" x="59" y="24.750977"/>
<use xlink:href="#glyph-0-10" x="62" y="24.750977"/>
<use xlink:href="#glyph-0-4" x="63" y="24.750977"/>
<use xlink:href="#glyph-0-11" x="66" y="24.750977"/>
<use xlink:href="#glyph-0-5" x="69" y="24.750977"/>
<use xlink:href="#glyph-0-5" x="70" y="24.750977"/>
<use xlink:href="#glyph-0-5" x="71" y="24.750977"/>
<use xlink:href="#glyph-0-5" x="72" y="24.750977"/>
<use xlink:href="#glyph-0-12" x="73" y="24.750977"/>
<use xlink:href="#glyph-0-13" x="74" y="24.750977"/>
<use xlink:href="#glyph-0-1" x="76" y="24.750977"/>
<use xlink:href="#glyph-0-14" x="79" y="24.750977"/>
<use xlink:href="#glyph-0-15" x="81" y="24.750977"/>
<use xlink:href="#glyph-0-8" x="83" y="24.750977"/>
<use xlink:href="#glyph-0-5" x="86" y="24.750977"/>
<use xlink:href="#glyph-0-16" x="87" y="24.750977"/>
<use xlink:href="#glyph-0-5" x="90" y="24.750977"/>
<use xlink:href="#glyph-0-17" x="91" y="24.750977"/>
<use xlink:href="#glyph-0-18" x="94" y="24.750977"/>
<use xlink:href="#glyph-0-19" x="97" y="24.750977"/>
</g>
</svg>
