<?xml version="1.0" encoding="UTF-8"?>
<svg xmlns="http://www.w3.org/2000/svg" xmlns:xlink="http://www.w3.org/1999/xlink" width="1280" height="720" viewBox="0 0 1280 720">
<defs>
<g>
<g id="glyph-0-0">
<path d="M 1.609375 0 L 1.171875 0 L 1.171875 -3.171875 L 0.046875 -3.171875 L 0.046875 -3.5625 L 2.71875 -3.5625 L 2.71875 -3.171875 L 1.609375 -3.171875 Z "/>
</g>
<g id="glyph-0-1">
<path d="M 1.671875 -2.734375 C 1.722656 -2.734375 1.773438 -2.726562 1.828125 -2.71875 C 1.890625 -2.71875 1.941406 -2.710938 1.984375 -2.703125 L 1.9375 -2.296875 C 1.894531 -2.304688 1.847656 -2.3125 1.796875 -2.3125 C 1.742188 -2.320312 1.691406 -2.328125 1.640625 -2.328125 C 1.503906 -2.328125 1.375 -2.289062 1.25 -2.21875 C 1.132812 -2.144531 1.039062 -2.039062 0.96875 -1.90625 C 0.894531 -1.769531 0.859375 -1.613281 0.859375 -1.4375 L 0.859375 0 L 0.421875 0 L 0.421875 -2.6875 L 0.78125 -2.6875 L 0.828125 -2.1875 L 0.859375 -2.1875 C 0.941406 -2.332031 1.050781 -2.457031 1.1875 -2.5625 C 1.320312 -2.675781 1.484375 -2.734375 1.671875 -2.734375 Z "/>
</g>
<g id="glyph-0-2">
<path d="M 1.4375 -2.71875 C 1.769531 -2.71875 2.015625 -2.644531 2.171875 -2.5 C 2.328125 -2.363281 2.40625 -2.140625 2.40625 -1.828125 L 2.40625 0 L 2.078125 0 L 2 -0.375 L 1.96875 -0.375 C 1.851562 -0.226562 1.734375 -0.117188 1.609375 -0.046875 C 1.484375 0.015625 1.304688 0.046875 1.078125 0.046875 C 0.828125 0.046875 0.625 -0.015625 0.46875 -0.140625 C 0.3125 -0.265625 0.234375 -0.46875 0.234375 -0.75 C 0.234375 -1.007812 0.335938 -1.210938 0.546875 -1.359375 C 0.753906 -1.503906 1.078125 -1.582031 1.515625 -1.59375 L 1.96875 -1.609375 L 1.96875 -1.78125 C 1.96875 -2 1.921875 -2.148438 1.828125 -2.234375 C 1.734375 -2.328125 1.597656 -2.375 1.421875 -2.375 C 1.273438 -2.375 1.140625 -2.351562 1.015625 -2.3125 C 0.890625 -2.269531 0.769531 -2.222656 0.65625 -2.171875 L 0.53125 -2.5 C 0.644531 -2.5625 0.78125 -2.613281 0.9375 -2.65625 C 1.101562 -2.695312 1.269531 -2.71875 1.4375 -2.71875 Z M 1.5625 -1.296875 C 1.226562 -1.285156 1 -1.234375 0.875 -1.140625 C 0.75 -1.046875 0.6875 -0.910156 0.6875 -0.734375 C 0.6875 -0.585938 0.726562 -0.476562 0.8125 -0.40625 C 0.90625 -0.34375 1.023438 -0.3125 1.171875 -0.3125 C 1.398438 -0.3125 1.585938 -0.375 1.734375 -0.5 C 1.890625 -0.625 1.96875 -0.8125 1.96875 -1.0625 L 1.96875 -1.3125 Z "/>
</g>
<g id="glyph-0-3">
<path d="M 0.65625 -3.6875 C 0.71875 -3.6875 0.773438 -3.660156 0.828125 -3.609375 C 0.878906 -3.566406 0.90625 -3.5 0.90625 -3.40625 C 0.90625 -3.3125 0.878906 -3.238281 0.828125 -3.1875 C 0.773438 -3.144531 0.71875 -3.125 0.65625 -3.125 C 0.582031 -3.125 0.519531 -3.144531 0.46875 -3.1875 C 0.414062 -3.238281 0.390625 -3.3125 0.390625 -3.40625 C 0.390625 -3.5 0.414062 -3.566406 0.46875 -3.609375 C 0.519531 -3.660156 0.582031 -3.6875 0.65625 -3.6875 Z M 0.859375 -2.6875 L 0.859375 0 L 0.421875 0 L 0.421875 -2.6875 Z "/>
</g>
<g id="glyph-0-4">
<path d="M 1.71875 -2.734375 C 2.03125 -2.734375 2.269531 -2.65625 2.4375 -2.5 C 2.601562 -2.34375 2.6875 -2.09375 2.6875 -1.75 L 2.6875 0 L 2.25 0 L 2.25 -1.71875 C 2.25 -2.144531 2.050781 -2.359375 1.65625 -2.359375 C 1.351562 -2.359375 1.144531 -2.273438 1.03125 -2.109375 C 0.914062 -1.941406 0.859375 -1.703125 0.859375 -1.390625 L 0.859375 0 L 0.421875 0 L 0.421875 -2.6875 L 0.78125 -2.6875 L 0.84375 -2.3125 L 0.875 -2.3125 C 0.957031 -2.457031 1.070312 -2.5625 1.21875 -2.625 C 1.375 -2.695312 1.539062 -2.734375 1.71875 -2.734375 Z "/>
</g>
</g>
</defs>
<g fill="rgb(100%, 94.509804%, 46.27451%)" fill-opacity="1">
<use xlink:href="#glyph-0-0" x="30" y="25.344727"/>
<use xlink:href="#glyph-0-1" x="33" y="25.344727"/>
<use xlink:href="#glyph-0-2" x="35" y="25.344727"/>
<use xlink:href="#glyph-0-3" x="38" y="25.344727"/>
<use xlink:href="#glyph-0-4" x="39" y="25.344727"/>
</g>
</svg>
