<?xml version="1.0" encoding="UTF-8"?>
<svg xmlns="http://www.w3.org/2000/svg" xmlns:xlink="http://www.w3.org/1999/xlink" width="1280" height="720" viewBox="0 0 1280 720">
<defs>
<g>
<g id="glyph-0-0">
<path d="M 1.578125 0 L 1.1875 0 L 1.1875 -2.21875 C 1.1875 -2.34375 1.1875 -2.441406 1.1875 -2.515625 C 1.195312 -2.597656 1.207031 -2.679688 1.21875 -2.765625 C 1.164062 -2.710938 1.117188 -2.671875 1.078125 -2.640625 C 1.046875 -2.609375 1 -2.566406 0.9375 -2.515625 L 0.59375 -2.234375 L 0.390625 -2.5 L 1.25 -3.171875 L 1.578125 -3.171875 Z "/>
</g>
<g id="glyph-0-1">
<path d="M 2.453125 -0.71875 L 1.984375 -0.71875 L 1.984375 0 L 1.609375 0 L 1.609375 -0.71875 L 0.09375 -0.71875 L 0.09375 -1.046875 L 1.578125 -3.1875 L 1.984375 -3.1875 L 1.984375 -1.0625 L 2.453125 -1.0625 Z M 1.609375 -2.0625 C 1.609375 -2.21875 1.609375 -2.347656 1.609375 -2.453125 C 1.617188 -2.566406 1.628906 -2.671875 1.640625 -2.765625 L 1.609375 -2.765625 C 1.585938 -2.710938 1.554688 -2.648438 1.515625 -2.578125 C 1.484375 -2.515625 1.453125 -2.460938 1.421875 -2.421875 L 0.46875 -1.0625 L 1.609375 -1.0625 Z "/>
</g>
</g>
</defs>
<g fill="rgb(100%, 94.509804%, 46.27451%)" fill-opacity="1">
<use xlink:href="#glyph-0-0" x="30" y="24.750977"/>
<use xlink:href="#glyph-0-1" x="33" y="24.750977"/>
</g>
</svg>
