<?xml version="1.0" encoding="UTF-8"?>
<svg xmlns="http://www.w3.org/2000/svg" xmlns:xlink="http://www.w3.org/1999/xlink" width="1920" height="1080" viewBox="0 0 1920 1080">
<defs>
<g>
<g id="glyph-0-0">
<path d="M 4.125 -4.5625 L 4.125 -1.1875 L 4.5625 -1.1875 L 4.5625 -4.5625 Z M 5.21875 -5.078125 L 5.21875 -0.140625 C 5.21875 -0.046875 5.1875 -0.015625 5.09375 -0.015625 C 4.984375 0 4.640625 0 4.28125 -0.015625 C 4.34375 0.125 4.40625 0.34375 4.421875 0.46875 C 4.890625 0.46875 5.21875 0.453125 5.40625 0.375 C 5.59375 0.296875 5.671875 0.15625 5.671875 -0.140625 L 5.671875 -5.078125 Z M 0.875 -4.984375 C 0.734375 -4.390625 0.53125 -3.78125 0.25 -3.375 C 0.359375 -3.328125 0.5625 -3.25 0.65625 -3.203125 C 0.765625 -3.375 0.875 -3.59375 0.96875 -3.828125 L 1.765625 -3.828125 L 1.765625 -3.1875 L 0.28125 -3.1875 L 0.28125 -2.765625 L 1.765625 -2.765625 L 1.765625 -2.140625 L 0.5625 -2.140625 L 0.5625 -0.015625 L 0.96875 -0.015625 L 0.96875 -1.734375 L 1.765625 -1.734375 L 1.765625 0.484375 L 2.203125 0.484375 L 2.203125 -1.734375 L 3.0625 -1.734375 L 3.0625 -0.46875 C 3.0625 -0.40625 3.03125 -0.390625 2.96875 -0.390625 C 2.90625 -0.390625 2.703125 -0.390625 2.4375 -0.390625 C 2.5 -0.28125 2.546875 -0.109375 2.578125 0 C 2.90625 0 3.140625 0 3.28125 -0.0625 C 3.4375 -0.140625 3.46875 -0.25 3.46875 -0.46875 L 3.46875 -2.140625 L 2.203125 -2.140625 L 2.203125 -2.765625 L 3.6875 -2.765625 L 3.6875 -3.1875 L 2.203125 -3.1875 L 2.203125 -3.828125 L 3.453125 -3.828125 L 3.453125 -4.25 L 2.203125 -4.25 L 2.203125 -5.109375 L 1.765625 -5.109375 L 1.765625 -4.25 L 1.125 -4.25 C 1.1875 -4.453125 1.25 -4.6875 1.296875 -4.90625 Z "/>
</g>
<g id="glyph-0-1">
<path d="M 1.09375 -4.96875 L 1.09375 -2.9375 C 1.09375 -1.859375 1.015625 -0.734375 0.234375 0.140625 C 0.34375 0.21875 0.515625 0.390625 0.59375 0.5 C 1.15625 -0.109375 1.40625 -0.859375 1.5 -1.625 L 4.078125 -1.625 L 4.078125 0.484375 L 4.578125 0.484375 L 4.578125 -2.109375 L 1.546875 -2.109375 C 1.5625 -2.375 1.578125 -2.65625 1.578125 -2.9375 L 1.578125 -3.078125 L 5.515625 -3.078125 L 5.515625 -3.546875 L 3.796875 -3.546875 L 3.796875 -5.125 L 3.3125 -5.125 L 3.3125 -3.546875 L 1.578125 -3.546875 L 1.578125 -4.96875 Z "/>
</g>
<g id="glyph-0-2">
<path d="M 2.796875 -5.109375 C 2.78125 -4.171875 2.8125 -1.1875 0.265625 0.109375 C 0.40625 0.203125 0.546875 0.34375 0.640625 0.46875 C 2.125 -0.34375 2.78125 -1.703125 3.0625 -2.9375 C 3.359375 -1.796875 4.03125 -0.28125 5.5625 0.4375 C 5.640625 0.3125 5.765625 0.15625 5.890625 0.0625 C 3.734375 -0.921875 3.359375 -3.46875 3.265625 -4.203125 C 3.296875 -4.578125 3.296875 -4.890625 3.3125 -5.109375 Z "/>
</g>
<g id="glyph-0-3">
<path d="M 3.0625 -3.328125 C 3.296875 -3.328125 3.515625 -3.5 3.515625 -3.78125 C 3.515625 -4.0625 3.296875 -4.234375 3.0625 -4.234375 C 2.8125 -4.234375 2.59375 -4.0625 2.59375 -3.78125 C 2.59375 -3.5 2.8125 -3.328125 3.0625 -3.328125 Z M 3.0625 -0.328125 C 3.296875 -0.328125 3.515625 -0.515625 3.515625 -0.78125 C 3.515625 -1.0625 3.296875 -1.25 3.0625 -1.25 C 2.8125 -1.25 2.59375 -1.0625 2.59375 -0.78125 C 2.59375 -0.515625 2.8125 -0.328125 3.0625 -0.328125 Z "/>
</g>
<g id="glyph-1-0">
<path d="M 2.03125 -4.40625 C 2.226562 -4.40625 2.410156 -4.375 2.578125 -4.3125 C 2.742188 -4.25 2.882812 -4.160156 3 -4.046875 C 3.113281 -3.929688 3.203125 -3.796875 3.265625 -3.640625 C 3.328125 -3.484375 3.359375 -3.304688 3.359375 -3.109375 C 3.359375 -2.921875 3.328125 -2.75 3.265625 -2.59375 C 3.203125 -2.4375 3.109375 -2.300781 2.984375 -2.1875 C 2.867188 -2.070312 2.726562 -1.984375 2.5625 -1.921875 C 2.40625 -1.859375 2.226562 -1.828125 2.03125 -1.828125 L 1.09375 -1.828125 L 1.09375 0 L 0.546875 0 L 0.546875 -4.40625 Z M 1.09375 -2.328125 L 2.03125 -2.328125 C 2.257812 -2.328125 2.441406 -2.394531 2.578125 -2.53125 C 2.722656 -2.675781 2.796875 -2.867188 2.796875 -3.109375 C 2.796875 -3.347656 2.722656 -3.539062 2.578125 -3.6875 C 2.441406 -3.832031 2.257812 -3.90625 2.03125 -3.90625 L 1.09375 -3.90625 Z "/>
</g>
<g id="glyph-1-1">
<path d="M 0.484375 -2.140625 C 0.484375 -2.535156 0.601562 -2.847656 0.84375 -3.078125 C 1.082031 -3.304688 1.410156 -3.421875 1.828125 -3.421875 C 2.253906 -3.421875 2.582031 -3.304688 2.8125 -3.078125 C 3.050781 -2.847656 3.171875 -2.535156 3.171875 -2.140625 L 3.171875 -1.515625 L 1.03125 -1.515625 L 1.03125 -1.25 C 1.03125 -1 1.097656 -0.796875 1.234375 -0.640625 C 1.378906 -0.492188 1.578125 -0.421875 1.828125 -0.421875 C 2.015625 -0.421875 2.175781 -0.445312 2.3125 -0.5 C 2.445312 -0.5625 2.546875 -0.648438 2.609375 -0.765625 L 3.15625 -0.765625 C 3.09375 -0.503906 2.941406 -0.300781 2.703125 -0.15625 C 2.460938 -0.0078125 2.171875 0.0625 1.828125 0.0625 C 1.410156 0.0625 1.082031 -0.0507812 0.84375 -0.28125 C 0.601562 -0.507812 0.484375 -0.820312 0.484375 -1.21875 Z M 1.03125 -1.984375 L 2.625 -1.984375 L 2.625 -2.140625 C 2.625 -2.390625 2.554688 -2.582031 2.421875 -2.71875 C 2.285156 -2.863281 2.085938 -2.9375 1.828125 -2.9375 C 1.578125 -2.9375 1.378906 -2.863281 1.234375 -2.71875 C 1.097656 -2.582031 1.03125 -2.390625 1.03125 -2.140625 Z "/>
</g>
<g id="glyph-1-2">
<path d="M 0.359375 -3.359375 L 1.34375 -3.359375 L 1.34375 -4.40625 L 1.890625 -4.40625 L 1.890625 -3.359375 L 3.203125 -3.359375 L 3.203125 -2.859375 L 1.890625 -2.859375 L 1.890625 -0.875 C 1.890625 -0.757812 1.925781 -0.664062 2 -0.59375 C 2.070312 -0.53125 2.171875 -0.5 2.296875 -0.5 L 3.140625 -0.5 L 3.140625 0 L 2.296875 0 C 2.003906 0 1.769531 -0.078125 1.59375 -0.234375 C 1.425781 -0.390625 1.34375 -0.601562 1.34375 -0.875 L 1.34375 -2.859375 L 0.359375 -2.859375 Z "/>
</g>
<g id="glyph-1-3">
<path d="M 1.203125 -3.359375 L 1.203125 -2.78125 L 1.25 -2.78125 C 1.300781 -2.976562 1.410156 -3.132812 1.578125 -3.25 C 1.742188 -3.363281 1.953125 -3.421875 2.203125 -3.421875 C 2.554688 -3.421875 2.832031 -3.304688 3.03125 -3.078125 C 3.226562 -2.859375 3.328125 -2.554688 3.328125 -2.171875 L 3.328125 -1.984375 L 2.78125 -1.984375 L 2.78125 -2.109375 C 2.78125 -2.367188 2.710938 -2.570312 2.578125 -2.71875 C 2.453125 -2.863281 2.265625 -2.9375 2.015625 -2.9375 C 1.773438 -2.9375 1.582031 -2.863281 1.4375 -2.71875 C 1.300781 -2.570312 1.234375 -2.367188 1.234375 -2.109375 L 1.234375 0 L 0.6875 0 L 0.6875 -3.359375 Z "/>
</g>
</g>
</defs>
<g fill="rgb(100%, 100%, 100%)" fill-opacity="1">
<use xlink:href="#glyph-0-0" x="30" y="27.087891"/>
<use xlink:href="#glyph-0-1" x="36" y="27.087891"/>
<use xlink:href="#glyph-0-2" x="42" y="27.087891"/>
<use xlink:href="#glyph-0-3" x="48" y="27.087891"/>
</g>
<g fill="rgb(100%, 100%, 100%)" fill-opacity="1">
<use xlink:href="#glyph-1-0" x="54" y="26.647461"/>
<use xlink:href="#glyph-1-1" x="58" y="26.647461"/>
<use xlink:href="#glyph-1-2" x="62" y="26.647461"/>
<use xlink:href="#glyph-1-1" x="66" y="26.647461"/>
<use xlink:href="#glyph-1-3" x="70" y="26.647461"/>
</g>
</svg>
